FjallaOne-Regular.ufo
<glyph name="exclam" format="1">
  <advance width="680"/>
  <unicode hex="0021"/>
  <outline>
    <contour>
      <point x="238" y="555" type="line"/>
      <point x="445" y="555" type="line"/>
      <point x="476" y="1813" type="line"/>
      <point x="203" y="1813" type="line"/>
    </contour>
    <contour>
      <point x="186" y="177" type="curve" smooth="yes"/>
      <point x="186" y="52"/>
      <point x="247" y="-14"/>
      <point x="341" y="-14" type="curve" smooth="yes"/>
      <point x="440" y="-14"/>
      <point x="499" y="56"/>
      <point x="499" y="177" type="curve" smooth="yes"/>
      <point x="499" y="309"/>
      <point x="441" y="373"/>
      <point x="342" y="373" type="curve" smooth="yes"/>
      <point x="246" y="373"/>
      <point x="186" y="317"/>
    </contour>
  </outline>
</glyph>
<glyph name="numbersign" format="1">
  <advance width="1098"/>
  <unicode hex="0023"/>
  <outline>
    <contour>
      <point x="204" y="0" type="line"/>
      <point x="383" y="0" type="line"/>
      <point x="411" y="385" type="line"/>
      <point x="649" y="385" type="line"/>
      <point x="621" y="0" type="line"/>
      <point x="800" y="0" type="line"/>
      <point x="828" y="385" type="line"/>
      <point x="967" y="385" type="line"/>
      <point x="967" y="567" type="line"/>
      <point x="841" y="567" type="line"/>
      <point x="860" y="809" type="line"/>
      <point x="1007" y="809" type="line"/>
      <point x="1007" y="991" type="line"/>
      <point x="873" y="991" type="line"/>
      <point x="901" y="1369" type="line"/>
      <point x="722" y="1369" type="line"/>
      <point x="694" y="991" type="line"/>
      <point x="456" y="991" type="line"/>
      <point x="484" y="1369" type="line"/>
      <point x="305" y="1369" type="line"/>
      <point x="277" y="991" type="line"/>
      <point x="131" y="991" type="line"/>
      <point x="131" y="809" type="line"/>
      <point x="264" y="809" type="line"/>
      <point x="245" y="567" type="line"/>
      <point x="91" y="567" type="line"/>
      <point x="91" y="385" type="line"/>
      <point x="232" y="385" type="line"/>
    </contour>
    <contour>
      <point x="424" y="567" type="line"/>
      <point x="442" y="809" type="line"/>
      <point x="681" y="809" type="line"/>
      <point x="663" y="567" type="line"/>
    </contour>
  </outline>
</glyph>
<glyph name="dollar" format="1">
  <advance width="996"/>
  <unicode hex="0024"/>
  <outline>
    <contour>
      <point x="419" y="1611" type="line"/>
      <point x="605" y="1611" type="line"/>
      <point x="605" y="1944" type="line"/>
      <point x="419" y="1944" type="line"/>
    </contour>
    <contour>
      <point x="420" y="78" type="line"/>
      <point x="420" y="-255" type="line"/>
      <point x="606" y="-255" type="line"/>
      <point x="606" y="78" type="line"/>
    </contour>
    <contour>
      <point x="92" y="346" type="curve" smooth="yes"/>
      <point x="92" y="164"/>
      <point x="183" y="-16"/>
      <point x="492" y="-16" type="curve" smooth="yes"/>
      <point x="742" y="-16"/>
      <point x="903" y="132"/>
      <point x="903" y="368" type="curve" smooth="yes"/>
      <point x="903" y="525"/>
      <point x="843" y="643"/>
      <point x="733" y="786" type="curve" smooth="yes"/>
      <point x="438" y="1168" type="line" smooth="yes"/>
      <point x="388" y="1234"/>
      <point x="353" y="1294"/>
      <point x="353" y="1371" type="curve" smooth="yes"/>
      <point x="353" y="1461"/>
      <point x="404" y="1520"/>
      <point x="501" y="1520" type="curve" smooth="yes"/>
      <point x="608" y="1520"/>
      <point x="668" y="1419"/>
      <point x="668" y="1239" type="curve" smooth="yes"/>
      <point x="668" y="1157" type="line"/>
      <point x="868" y="1157" type="line"/>
      <point x="882" y="1231"/>
      <point x="895" y="1288"/>
      <point x="895" y="1361" type="curve" smooth="yes"/>
      <point x="895" y="1534"/>
      <point x="803" y="1723"/>
      <point x="501" y="1723" type="curve" smooth="yes"/>
      <point x="252" y="1723"/>
      <point x="103" y="1563"/>
      <point x="103" y="1336" type="curve" smooth="yes"/>
      <point x="103" y="1185"/>
      <point x="159" y="1069"/>
      <point x="254" y="947" type="curve" smooth="yes"/>
      <point x="517" y="608" type="line" smooth="yes"/>
      <point x="612" y="487"/>
      <point x="637" y="410"/>
      <point x="637" y="334" type="curve" smooth="yes"/>
      <point x="637" y="238"/>
      <point x="588" y="187"/>
      <point x="490" y="187" type="curve" smooth="yes"/>
      <point x="375" y="187"/>
      <point x="319" y="288"/>
      <point x="319" y="472" type="curve" smooth="yes"/>
      <point x="319" y="548" type="line"/>
      <point x="118" y="548" type="line"/>
      <point x="101" y="477"/>
      <point x="92" y="419"/>
    </contour>
  </outline>
</glyph>
<glyph name="percent" format="1">
  <advance width="1875"/>
  <unicode hex="0025"/>
  <outline>
    <contour>
      <point x="620" y="0" type="line"/>
      <point x="802" y="0" type="line"/>
      <point x="1261" y="1727" type="line"/>
      <point x="1080" y="1727" type="line"/>
    </contour>
    <contour>
      <point x="474" y="786" type="curve" smooth="yes"/>
      <point x="608" y="786"/>
      <point x="794" y="855"/>
      <point x="794" y="1221" type="curve" smooth="yes"/>
      <point x="794" y="1328" type="line" smooth="yes"/>
      <point x="794" y="1697"/>
      <point x="612" y="1748"/>
      <point x="475" y="1748" type="curve" smooth="yes"/>
      <point x="333" y="1748"/>
      <point x="151" y="1693"/>
      <point x="151" y="1328" type="curve" smooth="yes"/>
      <point x="151" y="1221" type="line" smooth="yes"/>
      <point x="151" y="850"/>
      <point x="323" y="786"/>
    </contour>
    <contour>
      <point x="476" y="945" type="curve" smooth="yes"/>
      <point x="389" y="945"/>
      <point x="357" y="1016"/>
      <point x="357" y="1169" type="curve" smooth="yes"/>
      <point x="357" y="1363" type="line" smooth="yes"/>
      <point x="357" y="1517"/>
      <point x="389" y="1589"/>
      <point x="476" y="1589" type="curve" smooth="yes"/>
      <point x="559" y="1589"/>
      <point x="589" y="1517"/>
      <point x="589" y="1363" type="curve" smooth="yes"/>
      <point x="589" y="1169" type="line" smooth="yes"/>
      <point x="589" y="1016"/>
      <point x="559" y="945"/>
    </contour>
    <contour>
      <point x="1082" y="420" type="line"/>
      <point x="1082" y="48"/>
      <point x="1253" y="-15"/>
      <point x="1404" y="-15" type="curve" smooth="yes"/>
      <point x="1538" y="-15"/>
      <point x="1724" y="53"/>
      <point x="1724" y="420" type="curve" smooth="yes"/>
      <point x="1724" y="527" type="line" smooth="yes"/>
      <point x="1724" y="896"/>
      <point x="1542" y="947"/>
      <point x="1405" y="947" type="curve" smooth="yes"/>
      <point x="1264" y="947"/>
      <point x="1082" y="892"/>
      <point x="1082" y="527" type="curve" smooth="yes"/>
    </contour>
    <contour>
      <point x="1287" y="368" type="curve" smooth="yes"/>
      <point x="1287" y="562" type="line" smooth="yes"/>
      <point x="1287" y="716"/>
      <point x="1319" y="788"/>
      <point x="1406" y="788" type="curve" smooth="yes"/>
      <point x="1489" y="788"/>
      <point x="1519" y="716"/>
      <point x="1519" y="562" type="curve" smooth="yes"/>
      <point x="1519" y="368" type="line" smooth="yes"/>
      <point x="1519" y="215"/>
      <point x="1489" y="144"/>
      <point x="1406" y="144" type="curve" smooth="yes"/>
      <point x="1319" y="144"/>
      <point x="1287" y="215"/>
    </contour>
  </outline>
</glyph>
<glyph name="ampersand" format="1">
  <advance width="1201"/>
  <unicode hex="0026"/>
  <outline>
    <contour>
      <point x="50" y="410" type="curve" smooth="yes"/>
      <point x="50" y="138"/>
      <point x="230" y="-16"/>
      <point x="486" y="-16" type="curve" smooth="yes"/>
      <point x="803" y="-16"/>
      <point x="1108" y="346"/>
      <point x="1108" y="724" type="curve" smooth="yes"/>
      <point x="1108" y="764"/>
      <point x="1104" y="806"/>
      <point x="1098" y="841" type="curve"/>
      <point x="889" y="841" type="line"/>
      <point x="892" y="805"/>
      <point x="893" y="768"/>
      <point x="893" y="724" type="curve" smooth="yes"/>
      <point x="893" y="448"/>
      <point x="755" y="189"/>
      <point x="541" y="189" type="curve" smooth="yes"/>
      <point x="378" y="189"/>
      <point x="307" y="322"/>
      <point x="307" y="445" type="curve" smooth="yes"/>
      <point x="307" y="565"/>
      <point x="361" y="689"/>
      <point x="453" y="793" type="curve" smooth="yes"/>
      <point x="621" y="980" type="line" smooth="yes"/>
      <point x="704" y="1077"/>
      <point x="890" y="1255"/>
      <point x="890" y="1502" type="curve" smooth="yes"/>
      <point x="890" y="1624"/>
      <point x="818" y="1810"/>
      <point x="546" y="1810" type="curve" smooth="yes"/>
      <point x="338" y="1810"/>
      <point x="168" y="1664"/>
      <point x="168" y="1432" type="curve" smooth="yes"/>
      <point x="168" y="1282"/>
      <point x="231" y="1129"/>
      <point x="301" y="1003" type="curve" smooth="yes"/>
      <point x="857" y="1" type="line"/>
      <point x="1125" y="1" type="line"/>
      <point x="541" y="1061" type="line" smooth="yes"/>
      <point x="442" y="1241"/>
      <point x="405" y="1329"/>
      <point x="405" y="1432" type="curve" smooth="yes"/>
      <point x="405" y="1565"/>
      <point x="484" y="1606"/>
      <point x="546" y="1606" type="curve" smooth="yes"/>
      <point x="612" y="1606"/>
      <point x="672" y="1560"/>
      <point x="672" y="1458" type="curve" smooth="yes"/>
      <point x="672" y="1308"/>
      <point x="576" y="1204"/>
      <point x="523" y="1143" type="curve" smooth="yes"/>
      <point x="308" y="913" type="line" smooth="yes"/>
      <point x="220" y="812"/>
      <point x="50" y="637"/>
    </contour>
  </outline>
</glyph>
<glyph name="quotesingle" format="1">
  <advance width="651"/>
  <unicode hex="0027"/>
  <outline>
    <contour>
      <point x="226" y="1180" type="line"/>
      <point x="429" y="1180" type="line"/>
      <point x="450" y="1876" type="line"/>
      <point x="201" y="1876" type="line"/>
    </contour>
  </outline>
</glyph>
<glyph name="parenleft" format="1">
  <advance width="766"/>
  <unicode hex="0028"/>
  <outline>
    <contour>
      <point x="649" y="-83" type="line"/>
      <point x="465" y="-83"/>
      <point x="356" y="164"/>
      <point x="356" y="712" type="curve" smooth="yes"/>
      <point x="356" y="1003" type="line" smooth="yes"/>
      <point x="356" y="1520"/>
      <point x="457" y="1790"/>
      <point x="649" y="1790" type="curve"/>
      <point x="649" y="1963" type="line"/>
      <point x="457" y="1963"/>
      <point x="126" y="1919"/>
      <point x="126" y="957" type="curve" smooth="yes"/>
      <point x="126" y="760" type="line"/>
      <point x="126" y="-219"/>
      <point x="457" y="-257"/>
      <point x="649" y="-257" type="curve"/>
    </contour>
  </outline>
</glyph>
<glyph name="parenright" format="1">
  <advance width="766"/>
  <unicode hex="0029"/>
  <outline>
    <contour>
      <point x="116" y="-83" type="curve"/>
      <point x="116" y="-257" type="line"/>
      <point x="309" y="-257"/>
      <point x="639" y="-219"/>
      <point x="639" y="760" type="curve"/>
      <point x="639" y="957" type="line"/>
      <point x="639" y="1919"/>
      <point x="309" y="1963"/>
      <point x="116" y="1963" type="curve"/>
      <point x="116" y="1790" type="line"/>
      <point x="309" y="1790"/>
      <point x="410" y="1520"/>
      <point x="410" y="1003" type="curve" smooth="yes"/>
      <point x="410" y="712" type="line" smooth="yes"/>
      <point x="410" y="164"/>
      <point x="301" y="-83"/>
    </contour>
  </outline>
</glyph>
<glyph name="asterisk" format="1">
  <advance width="1038"/>
  <unicode hex="002A"/>
  <outline>
    <contour>
      <point x="361" y="844" type="line"/>
      <point x="516" y="1153" type="line"/>
      <point x="668" y="840" type="line"/>
      <point x="868" y="986" type="line"/>
      <point x="633" y="1239" type="line"/>
      <point x="964" y="1295" type="line"/>
      <point x="891" y="1534" type="line"/>
      <point x="590" y="1377" type="line"/>
      <point x="644" y="1727" type="line"/>
      <point x="398" y="1727" type="line"/>
      <point x="444" y="1377" type="line"/>
      <point x="145" y="1539" type="line"/>
      <point x="74" y="1300" type="line"/>
      <point x="399" y="1239" type="line"/>
      <point x="162" y="993" type="line"/>
    </contour>
  </outline>
</glyph>
<glyph name="plus" format="1">
  <advance width="825"/>
  <unicode hex="002B"/>
  <outline>
    <contour>
      <point x="312" y="368" type="line"/>
      <point x="511" y="368" type="line"/>
      <point x="511" y="691" type="line"/>
      <point x="785" y="691" type="line"/>
      <point x="785" y="887" type="line"/>
      <point x="511" y="887" type="line"/>
      <point x="511" y="1200" type="line"/>
      <point x="312" y="1200" type="line"/>
      <point x="312" y="887" type="line"/>
      <point x="40" y="887" type="line"/>
      <point x="40" y="691" type="line"/>
      <point x="312" y="691" type="line"/>
    </contour>
  </outline>
</glyph>
<glyph name="comma" format="1">
  <advance width="502"/>
  <unicode hex="002C"/>
  <outline>
    <contour>
      <point x="50" y="-327" type="line"/>
      <point x="261" y="-327" type="line"/>
      <point x="407" y="350" type="line"/>
      <point x="150" y="350" type="line"/>
    </contour>
  </outline>
</glyph>
<glyph name="period" format="1">
  <advance width="491"/>
  <unicode hex="002E"/>
  <outline>
    <contour>
      <point x="86" y="179" type="curve" smooth="yes"/>
      <point x="86" y="53"/>
      <point x="147" y="-14"/>
      <point x="241" y="-14" type="curve" smooth="yes"/>
      <point x="340" y="-14"/>
      <point x="399" y="57"/>
      <point x="399" y="179" type="curve" smooth="yes"/>
      <point x="399" y="312"/>
      <point x="341" y="377"/>
      <point x="242" y="377" type="curve" smooth="yes"/>
      <point x="146" y="377"/>
      <point x="86" y="320"/>
    </contour>
  </outline>
</glyph>
<glyph name="slash" format="1">
  <advance width="542"/>
  <unicode hex="002F"/>
  <outline>
    <contour>
      <point x="5" y="-326" type="line"/>
      <point x="224" y="-326" type="line"/>
      <point x="537" y="1884" type="line"/>
      <point x="318" y="1884" type="line"/>
    </contour>
  </outline>
</glyph>
<glyph name="zero" format="1">
  <advance width="1043"/>
  <unicode hex="0030"/>
  <outline>
    <contour>
      <point x="103" y="498" type="line"/>
      <point x="103" y="49"/>
      <point x="362" y="-15"/>
      <point x="524" y="-15" type="curve" smooth="yes"/>
      <point x="670" y="-15"/>
      <point x="940" y="50"/>
      <point x="940" y="498" type="curve" smooth="yes"/>
      <point x="940" y="1220" type="line" smooth="yes"/>
      <point x="940" y="1678"/>
      <point x="674" y="1723"/>
      <point x="524" y="1723" type="curve" smooth="yes"/>
      <point x="368" y="1723"/>
      <point x="103" y="1670"/>
      <point x="103" y="1220" type="curve" smooth="yes"/>
    </contour>
    <contour>
      <point x="368" y="389" type="curve" smooth="yes"/>
      <point x="368" y="1314" type="line" smooth="yes"/>
      <point x="368" y="1462"/>
      <point x="419" y="1528"/>
      <point x="524" y="1528" type="curve" smooth="yes"/>
      <point x="626" y="1528"/>
      <point x="677" y="1462"/>
      <point x="677" y="1314" type="curve" smooth="yes"/>
      <point x="677" y="389" type="line" smooth="yes"/>
      <point x="677" y="248"/>
      <point x="626" y="187"/>
      <point x="524" y="187" type="curve" smooth="yes"/>
      <point x="419" y="187"/>
      <point x="368" y="248"/>
    </contour>
  </outline>
</glyph>
<glyph name="one" format="1">
  <advance width="820"/>
  <unicode hex="0031"/>
  <outline>
    <contour>
      <point x="147" y="0" type="line"/>
      <point x="799" y="0" type="line"/>
      <point x="799" y="195" type="line"/>
      <point x="602" y="195" type="line"/>
      <point x="602" y="1707" type="line"/>
      <point x="601" y="1706" type="line"/>
      <point x="602" y="1708" type="line"/>
      <point x="409" y="1708" type="line"/>
      <point x="21" y="1304" type="line"/>
      <point x="133" y="1173" type="line"/>
      <point x="345" y="1360" type="line"/>
      <point x="345" y="195" type="line"/>
      <point x="147" y="195" type="line"/>
    </contour>
  </outline>
</glyph>
<glyph name="two" format="1">
  <advance width="982"/>
  <unicode hex="0032"/>
  <outline>
    <contour>
      <point x="97" y="0" type="line"/>
      <point x="893" y="0" type="line"/>
      <point x="893" y="204" type="line"/>
      <point x="394" y="204" type="line"/>
      <point x="731" y="844" type="line" smooth="yes"/>
      <point x="853" y="1078"/>
      <point x="895" y="1197"/>
      <point x="895" y="1336" type="curve" smooth="yes"/>
      <point x="895" y="1580"/>
      <point x="773" y="1723"/>
      <point x="475" y="1723" type="curve" smooth="yes"/>
      <point x="198" y="1723"/>
      <point x="81" y="1534"/>
      <point x="81" y="1361" type="curve" smooth="yes"/>
      <point x="81" y="1288"/>
      <point x="94" y="1231"/>
      <point x="108" y="1157" type="curve"/>
      <point x="308" y="1157" type="line"/>
      <point x="308" y="1239" type="line" smooth="yes"/>
      <point x="308" y="1419"/>
      <point x="368" y="1520"/>
      <point x="475" y="1520" type="curve" smooth="yes"/>
      <point x="572" y="1520"/>
      <point x="622" y="1457"/>
      <point x="622" y="1336" type="curve" smooth="yes"/>
      <point x="622" y="1247"/>
      <point x="607" y="1136"/>
      <point x="474" y="878" type="curve" smooth="yes"/>
      <point x="97" y="152" type="line"/>
    </contour>
  </outline>
</glyph>
<glyph name="three" format="1">
  <advance width="1025"/>
  <unicode hex="0033"/>
  <outline>
    <contour>
      <point x="95" y="348" type="curve" smooth="yes"/>
      <point x="95" y="118"/>
      <point x="236" y="-15"/>
      <point x="497" y="-15" type="curve" smooth="yes"/>
      <point x="727" y="-15"/>
      <point x="922" y="93"/>
      <point x="922" y="408" type="curve" smooth="yes"/>
      <point x="922" y="521" type="line" smooth="yes"/>
      <point x="922" y="745"/>
      <point x="820" y="840"/>
      <point x="687" y="885" type="curve"/>
      <point x="687" y="893" type="line"/>
      <point x="790" y="942"/>
      <point x="897" y="1046"/>
      <point x="897" y="1240" type="curve" smooth="yes"/>
      <point x="897" y="1345" type="line"/>
      <point x="897" y="1586"/>
      <point x="777" y="1723"/>
      <point x="486" y="1723" type="curve" smooth="yes"/>
      <point x="217" y="1723"/>
      <point x="91" y="1534"/>
      <point x="91" y="1361" type="curve" smooth="yes"/>
      <point x="91" y="1288"/>
      <point x="104" y="1223"/>
      <point x="118" y="1157" type="curve"/>
      <point x="318" y="1157" type="line"/>
      <point x="318" y="1239" type="line" smooth="yes"/>
      <point x="318" y="1419"/>
      <point x="379" y="1520"/>
      <point x="486" y="1520" type="curve" smooth="yes"/>
      <point x="583" y="1520"/>
      <point x="630" y="1462"/>
      <point x="630" y="1336" type="curve" smooth="yes"/>
      <point x="630" y="1172" type="line" smooth="yes"/>
      <point x="630" y="1031"/>
      <point x="565" y="977"/>
      <point x="479" y="977" type="curve" smooth="yes"/>
      <point x="370" y="977" type="line"/>
      <point x="370" y="792" type="line"/>
      <point x="479" y="792" type="line" smooth="yes"/>
      <point x="612" y="792"/>
      <point x="655" y="712"/>
      <point x="655" y="567" type="curve" smooth="yes"/>
      <point x="655" y="385" type="line" smooth="yes"/>
      <point x="655" y="241"/>
      <point x="596" y="187"/>
      <point x="497" y="187" type="curve" smooth="yes"/>
      <point x="397" y="187"/>
      <point x="322" y="256"/>
      <point x="322" y="469" type="curve" smooth="yes"/>
      <point x="322" y="549" type="line"/>
      <point x="120" y="549" type="line"/>
      <point x="103" y="476"/>
      <point x="95" y="405"/>
    </contour>
  </outline>
</glyph>
<glyph name="four" format="1">
  <advance width="1090"/>
  <unicode hex="0034"/>
  <outline>
    <contour>
      <point x="76" y="306" type="line"/>
      <point x="642" y="306" type="line"/>
      <point x="642" y="0" type="line"/>
      <point x="883" y="0" type="line"/>
      <point x="883" y="306" type="line"/>
      <point x="1041" y="306" type="line"/>
      <point x="1041" y="509" type="line"/>
      <point x="883" y="509" type="line"/>
      <point x="883" y="1708" type="line"/>
      <point x="574" y="1708" type="line"/>
      <point x="76" y="442" type="line"/>
    </contour>
    <contour>
      <point x="340" y="509" type="line"/>
      <point x="636" y="1335" type="line"/>
      <point x="668" y="1335" type="line"/>
      <point x="642" y="761" type="line"/>
      <point x="642" y="509" type="line"/>
    </contour>
  </outline>
</glyph>
<glyph name="five" format="1">
  <advance width="1020"/>
  <unicode hex="0035"/>
  <outline>
    <contour>
      <point x="121" y="351" type="curve" smooth="yes"/>
      <point x="121" y="127"/>
      <point x="258" y="-15"/>
      <point x="512" y="-15" type="curve" smooth="yes"/>
      <point x="721" y="-15"/>
      <point x="917" y="96"/>
      <point x="917" y="447" type="curve" smooth="yes"/>
      <point x="917" y="737" type="line" smooth="yes"/>
      <point x="917" y="1014"/>
      <point x="822" y="1159"/>
      <point x="610" y="1159" type="curve" smooth="yes"/>
      <point x="518" y="1159"/>
      <point x="428" y="1120"/>
      <point x="372" y="1057" type="curve"/>
      <point x="372" y="1479" type="line"/>
      <point x="890" y="1479" type="line"/>
      <point x="890" y="1708" type="line"/>
      <point x="156" y="1708" type="line"/>
      <point x="156" y="836" type="line"/>
      <point x="347" y="836" type="line"/>
      <point x="382" y="895"/>
      <point x="434" y="943"/>
      <point x="509" y="943" type="curve" smooth="yes"/>
      <point x="588" y="943"/>
      <point x="650" y="909"/>
      <point x="650" y="739" type="curve" smooth="yes"/>
      <point x="650" y="415" type="line" smooth="yes"/>
      <point x="650" y="268"/>
      <point x="609" y="186"/>
      <point x="500" y="186" type="curve" smooth="yes"/>
      <point x="393" y="186"/>
      <point x="348" y="253"/>
      <point x="348" y="415" type="curve" smooth="yes"/>
      <point x="348" y="549" type="line"/>
      <point x="146" y="549" type="line"/>
      <point x="129" y="476"/>
      <point x="121" y="413"/>
    </contour>
  </outline>
</glyph>
<glyph name="six" format="1">
  <advance width="1040"/>
  <unicode hex="0036"/>
  <outline>
    <contour>
      <point x="103" y="507" type="line"/>
      <point x="103" y="126"/>
      <point x="258" y="-15"/>
      <point x="537" y="-15" type="curve" smooth="yes"/>
      <point x="784" y="-15"/>
      <point x="942" y="115"/>
      <point x="942" y="479" type="curve" smooth="yes"/>
      <point x="942" y="645" type="line"/>
      <point x="942" y="983"/>
      <point x="759" y="1067"/>
      <point x="604" y="1067" type="curve" smooth="yes"/>
      <point x="428" y="1067"/>
      <point x="328" y="947"/>
      <point x="304" y="859" type="curve"/>
      <point x="342" y="738" type="line"/>
      <point x="368" y="791"/>
      <point x="434" y="873"/>
      <point x="530" y="873" type="curve" smooth="yes"/>
      <point x="623" y="873"/>
      <point x="678" y="819"/>
      <point x="678" y="654" type="curve" smooth="yes"/>
      <point x="678" y="407" type="line" smooth="yes"/>
      <point x="678" y="261"/>
      <point x="636" y="187"/>
      <point x="534" y="187" type="curve" smooth="yes"/>
      <point x="417" y="187"/>
      <point x="368" y="251"/>
      <point x="368" y="407" type="curve" smooth="yes"/>
      <point x="368" y="1302" type="line" smooth="yes"/>
      <point x="368" y="1474"/>
      <point x="422" y="1528"/>
      <point x="529" y="1528" type="curve" smooth="yes"/>
      <point x="647" y="1528"/>
      <point x="696" y="1479"/>
      <point x="696" y="1264" type="curve" smooth="yes"/>
      <point x="696" y="1227" type="line"/>
      <point x="896" y="1227" type="line"/>
      <point x="914" y="1282"/>
      <point x="923" y="1341"/>
      <point x="923" y="1388" type="curve" smooth="yes"/>
      <point x="923" y="1546"/>
      <point x="812" y="1723"/>
      <point x="529" y="1723" type="curve" smooth="yes"/>
      <point x="374" y="1723"/>
      <point x="103" y="1682"/>
      <point x="103" y="1209" type="curve" smooth="yes"/>
    </contour>
  </outline>
</glyph>
<glyph name="seven" format="1">
  <advance width="838"/>
  <unicode hex="0037"/>
  <outline>
    <contour>
      <point x="65" y="0" type="line"/>
      <point x="346" y="0" type="line"/>
      <point x="816" y="1572" type="line"/>
      <point x="816" y="1709" type="line"/>
      <point x="36" y="1709" type="line"/>
      <point x="36" y="1480" type="line"/>
      <point x="538" y="1480" type="line"/>
    </contour>
  </outline>
</glyph>
<glyph name="eight" format="1">
  <advance width="1032"/>
  <unicode hex="0038"/>
  <outline>
    <contour>
      <point x="505" y="976" type="line"/>
      <point x="420" y="976"/>
      <point x="370" y="1026"/>
      <point x="370" y="1177" type="curve" smooth="yes"/>
      <point x="370" y="1302" type="line" smooth="yes"/>
      <point x="370" y="1443"/>
      <point x="410" y="1520"/>
      <point x="517" y="1520" type="curve" smooth="yes"/>
      <point x="624" y="1520"/>
      <point x="666" y="1444"/>
      <point x="666" y="1304" type="curve" smooth="yes"/>
      <point x="666" y="1178" type="line" smooth="yes"/>
      <point x="666" y="1021"/>
      <point x="607" y="976"/>
      <point x="529" y="976" type="curve" smooth="yes"/>
    </contour>
    <contour>
      <point x="348" y="400" type="curve" smooth="yes"/>
      <point x="348" y="581" type="line" smooth="yes"/>
      <point x="348" y="726"/>
      <point x="407" y="791"/>
      <point x="504" y="791" type="curve" smooth="yes"/>
      <point x="529" y="791" type="line" smooth="yes"/>
      <point x="626" y="791"/>
      <point x="687" y="731"/>
      <point x="687" y="582" type="curve" smooth="yes"/>
      <point x="687" y="401" type="line" smooth="yes"/>
      <point x="687" y="227"/>
      <point x="604" y="187"/>
      <point x="516" y="187" type="curve" smooth="yes"/>
      <point x="428" y="187"/>
      <point x="348" y="226"/>
    </contour>
    <contour>
      <point x="82" y="414" type="line"/>
      <point x="82" y="62"/>
      <point x="309" y="-15"/>
      <point x="516" y="-15" type="curve" smooth="yes"/>
      <point x="723" y="-15"/>
      <point x="953" y="63"/>
      <point x="953" y="415" type="curve" smooth="yes"/>
      <point x="953" y="520" type="line" smooth="yes"/>
      <point x="953" y="721"/>
      <point x="863" y="825"/>
      <point x="741" y="885" type="curve"/>
      <point x="741" y="893" type="line"/>
      <point x="830" y="940"/>
      <point x="929" y="1035"/>
      <point x="929" y="1220" type="curve" smooth="yes"/>
      <point x="929" y="1340" type="line" smooth="yes"/>
      <point x="929" y="1674"/>
      <point x="671" y="1723"/>
      <point x="517" y="1723" type="curve" smooth="yes"/>
      <point x="364" y="1723"/>
      <point x="106" y="1673"/>
      <point x="106" y="1339" type="curve" smooth="yes"/>
      <point x="106" y="1219" type="line" smooth="yes"/>
      <point x="106" y="1034"/>
      <point x="205" y="939"/>
      <point x="294" y="892" type="curve"/>
      <point x="294" y="884" type="line"/>
      <point x="173" y="824"/>
      <point x="82" y="720"/>
      <point x="82" y="519" type="curve" smooth="yes"/>
    </contour>
  </outline>
</glyph>
<glyph name="less" format="1">
  <advance width="765"/>
  <unicode hex="003C"/>
  <outline>
    <contour>
      <point x="40" y="715" type="line"/>
      <point x="684" y="314" type="line"/>
      <point x="684" y="548" type="line"/>
      <point x="268" y="784" type="line"/>
      <point x="268" y="792" type="line"/>
      <point x="684" y="1027" type="line"/>
      <point x="684" y="1262" type="line"/>
      <point x="40" y="862" type="line"/>
    </contour>
  </outline>
</glyph>
<glyph name="equal" format="1">
  <advance width="906"/>
  <unicode hex="003D"/>
  <outline>
    <contour>
      <point x="81" y="488" type="line"/>
      <point x="825" y="488" type="line"/>
      <point x="825" y="683" type="line"/>
      <point x="81" y="683" type="line"/>
    </contour>
    <contour>
      <point x="81" y="895" type="line"/>
      <point x="825" y="895" type="line"/>
      <point x="825" y="1090" type="line"/>
      <point x="81" y="1090" type="line"/>
    </contour>
  </outline>
</glyph>
<glyph name="question" format="1">
  <advance width="1016"/>
  <unicode hex="003F"/>
  <outline>
    <contour>
      <point x="355" y="177" type="curve" smooth="yes"/>
      <point x="355" y="52"/>
      <point x="416" y="-14"/>
      <point x="510" y="-14" type="curve" smooth="yes"/>
      <point x="609" y="-14"/>
      <point x="668" y="56"/>
      <point x="668" y="177" type="curve" smooth="yes"/>
      <point x="668" y="309"/>
      <point x="610" y="373"/>
      <point x="511" y="373" type="curve" smooth="yes"/>
      <point x="415" y="373"/>
      <point x="355" y="317"/>
    </contour>
    <contour>
      <point x="386" y="557" type="line"/>
      <point x="607" y="557" type="line"/>
      <point x="607" y="701" type="line" smooth="yes"/>
      <point x="607" y="813"/>
      <point x="619" y="849"/>
      <point x="695" y="952" type="curve" smooth="yes"/>
      <point x="775" y="1060" type="line" smooth="yes"/>
      <point x="878" y="1200"/>
      <point x="918" y="1307"/>
      <point x="918" y="1439" type="curve" smooth="yes"/>
      <point x="918" y="1674"/>
      <point x="781" y="1827"/>
      <point x="505" y="1827" type="curve" smooth="yes"/>
      <point x="228" y="1827"/>
      <point x="107" y="1667"/>
      <point x="107" y="1465" type="curve" smooth="yes"/>
      <point x="107" y="1392"/>
      <point x="120" y="1335"/>
      <point x="134" y="1261" type="curve"/>
      <point x="338" y="1261" type="line"/>
      <point x="338" y="1343" type="line" smooth="yes"/>
      <point x="338" y="1523"/>
      <point x="388" y="1623"/>
      <point x="495" y="1623" type="curve" smooth="yes"/>
      <point x="592" y="1623"/>
      <point x="652" y="1548"/>
      <point x="652" y="1439" type="curve" smooth="yes"/>
      <point x="652" y="1365"/>
      <point x="621" y="1271"/>
      <point x="570" y="1189" type="curve" smooth="yes"/>
      <point x="452" y="1003" type="line" smooth="yes"/>
      <point x="394" y="910"/>
      <point x="387" y="866"/>
      <point x="387" y="760" type="curve" smooth="yes"/>
    </contour>
  </outline>
</glyph>
<glyph name="at" format="1">
  <advance width="1639"/>
  <unicode hex="0040"/>
  <outline>
    <contour>
      <point x="85" y="513" type="line"/>
      <point x="85" y="-304"/>
      <point x="566" y="-403"/>
      <point x="822" y="-403" type="curve" smooth="yes"/>
      <point x="944" y="-403"/>
      <point x="1097" y="-373"/>
      <point x="1149" y="-336" type="curve"/>
      <point x="1149" y="-176" type="line"/>
      <point x="1078" y="-205"/>
      <point x="957" y="-219"/>
      <point x="879" y="-219" type="curve" smooth="yes"/>
      <point x="631" y="-219"/>
      <point x="282" y="-178"/>
      <point x="282" y="474" type="curve" smooth="yes"/>
      <point x="282" y="945" type="line" smooth="yes"/>
      <point x="282" y="1582"/>
      <point x="610" y="1646"/>
      <point x="820" y="1646" type="curve" smooth="yes"/>
      <point x="1028" y="1646"/>
      <point x="1356" y="1614"/>
      <point x="1356" y="977" type="curve" smooth="yes"/>
      <point x="1356" y="697" type="line"/>
      <point x="1356" y="351"/>
      <point x="1309" y="299"/>
      <point x="1249" y="299" type="curve" smooth="yes"/>
      <point x="1203" y="299"/>
      <point x="1158" y="332"/>
      <point x="1158" y="450" type="curve" smooth="yes"/>
      <point x="1158" y="1284" type="line"/>
      <point x="962" y="1284" type="line"/>
      <point x="939" y="1150" type="line"/>
      <point x="918" y="1170" type="line"/>
      <point x="918" y="323" type="line"/>
      <point x="966" y="308" type="line"/>
      <point x="987" y="308" type="line"/>
      <point x="1024" y="176"/>
      <point x="1103" y="115"/>
      <point x="1240" y="115" type="curve" smooth="yes"/>
      <point x="1498" y="115"/>
      <point x="1554" y="391"/>
      <point x="1554" y="765" type="curve" smooth="yes"/>
      <point x="1554" y="977" type="line" smooth="yes"/>
      <point x="1554" y="1704"/>
      <point x="1150" y="1820"/>
      <point x="818" y="1820" type="curve" smooth="yes"/>
      <point x="496" y="1820"/>
      <point x="85" y="1672"/>
      <point x="85" y="945" type="curve" smooth="yes"/>
    </contour>
    <contour>
      <point x="464" y="594" type="line"/>
      <point x="464" y="137"/>
      <point x="654" y="116"/>
      <point x="759" y="116" type="curve" smooth="yes"/>
      <point x="874" y="116"/>
      <point x="970" y="210"/>
      <point x="1007" y="376" type="curve"/>
      <point x="936" y="446" type="line"/>
      <point x="919" y="384"/>
      <point x="884" y="312"/>
      <point x="816" y="312" type="curve" smooth="yes"/>
      <point x="750" y="312"/>
      <point x="704" y="349"/>
      <point x="704" y="546" type="curve" smooth="yes"/>
      <point x="704" y="864" type="line" smooth="yes"/>
      <point x="704" y="1069"/>
      <point x="759" y="1106"/>
      <point x="817" y="1106" type="curve" smooth="yes"/>
      <point x="885" y="1106"/>
      <point x="920" y="1032"/>
      <point x="938" y="950" type="curve"/>
      <point x="1007" y="1003" type="line"/>
      <point x="981" y="1132"/>
      <point x="908" y="1299"/>
      <point x="743" y="1299" type="curve" smooth="yes"/>
      <point x="642" y="1299"/>
      <point x="464" y="1249"/>
      <point x="464" y="837" type="curve" smooth="yes"/>
    </contour>
  </outline>
</glyph>
<glyph name="A" format="1">
  <advance width="957"/>
  <unicode hex="0041"/>
  <outline>
    <contour>
      <point x="14" y="0" type="line"/>
      <point x="275" y="0" type="line"/>
      <point x="320" y="306" type="line"/>
      <point x="636" y="306" type="line"/>
      <point x="683" y="0" type="line"/>
      <point x="943" y="0" type="line"/>
      <point x="624" y="1708" type="line"/>
      <point x="332" y="1708" type="line"/>
    </contour>
    <contour>
      <point x="350" y="501" type="line"/>
      <point x="473" y="1356" type="line"/>
      <point x="484" y="1356" type="line"/>
      <point x="606" y="501" type="line"/>
    </contour>
    <contour>
      <point x="478" y="500" type="move" name="top"/>
    </contour>
    <contour>
      <point x="478" y="-100" type="move" name="btm"/>
    </contour>
  </outline>
</glyph>
<glyph name="B" format="1">
  <advance width="1039"/>
  <unicode hex="0042"/>
  <outline>
    <contour>
      <point x="141" y="0" type="line"/>
      <point x="413" y="0" type="line" smooth="yes"/>
      <point x="704" y="0"/>
      <point x="963" y="65"/>
      <point x="963" y="437" type="curve" smooth="yes"/>
      <point x="963" y="524" type="line" smooth="yes"/>
      <point x="963" y="727"/>
      <point x="882" y="833"/>
      <point x="727" y="894" type="curve"/>
      <point x="727" y="902" type="line"/>
      <point x="832" y="940"/>
      <point x="935" y="1056"/>
      <point x="935" y="1238" type="curve" smooth="yes"/>
      <point x="935" y="1321" type="line" smooth="yes"/>
      <point x="935" y="1679"/>
      <point x="635" y="1708"/>
      <point x="403" y="1708" type="curve" smooth="yes"/>
      <point x="141" y="1708" type="line"/>
    </contour>
    <contour>
      <point x="400" y="977" type="line"/>
      <point x="400" y="1519" type="line"/>
      <point x="445" y="1519" type="line"/>
      <point x="616" y="1519"/>
      <point x="673" y="1429"/>
      <point x="673" y="1270" type="curve" smooth="yes"/>
      <point x="673" y="1200" type="line" smooth="yes"/>
      <point x="673" y="1040"/>
      <point x="584" y="977"/>
      <point x="445" y="977" type="curve" smooth="yes"/>
    </contour>
    <contour>
      <point x="400" y="189" type="line"/>
      <point x="400" y="794" type="line"/>
      <point x="469" y="794" type="line"/>
      <point x="639" y="794"/>
      <point x="696" y="705"/>
      <point x="696" y="545" type="curve" smooth="yes"/>
      <point x="696" y="412" type="line" smooth="yes"/>
      <point x="696" y="252"/>
      <point x="607" y="189"/>
      <point x="469" y="189" type="curve" smooth="yes"/>
    </contour>
    <contour>
      <point x="552" y="500" type="move" name="top"/>
    </contour>
    <contour>
      <point x="552" y="-100" type="move" name="btm"/>
    </contour>
  </outline>
</glyph>
<glyph name="C" format="1">
  <advance width="928"/>
  <unicode hex="0043"/>
  <outline>
    <contour>
      <point x="532" y="-15" type="curve" smooth="yes"/>
      <point x="761" y="-14"/>
      <point x="886" y="114"/>
      <point x="886" y="388" type="curve" smooth="yes"/>
      <point x="886" y="546" type="line"/>
      <point x="659" y="546" type="line"/>
      <point x="659" y="384" type="line" smooth="yes"/>
      <point x="659" y="247"/>
      <point x="605" y="188"/>
      <point x="532" y="188" type="curve" smooth="yes"/>
      <point x="427" y="188"/>
      <point x="378" y="251"/>
      <point x="378" y="463" type="curve" smooth="yes"/>
      <point x="378" y="1233" type="line" smooth="yes"/>
      <point x="378" y="1452"/>
      <point x="429" y="1520"/>
      <point x="524" y="1520" type="curve" smooth="yes"/>
      <point x="610" y="1520"/>
      <point x="656" y="1426"/>
      <point x="656" y="1239" type="curve" smooth="yes"/>
      <point x="656" y="1157" type="line"/>
      <point x="856" y="1157" type="line"/>
      <point x="871" y="1231"/>
      <point x="884" y="1288"/>
      <point x="884" y="1361" type="curve" smooth="yes"/>
      <point x="884" y="1559"/>
      <point x="794" y="1723"/>
      <point x="531" y="1723" type="curve" smooth="yes"/>
      <point x="372" y="1723"/>
      <point x="107" y="1676"/>
      <point x="107" y="1161" type="curve" smooth="yes"/>
      <point x="107" y="556" type="line" smooth="yes"/>
      <point x="107" y="43"/>
      <point x="366" y="-15"/>
    </contour>
    <contour>
      <point x="496" y="500" type="move" name="top"/>
    </contour>
    <contour>
      <point x="496" y="-100" type="move" name="btm"/>
    </contour>
  </outline>
</glyph>
<glyph name="D" format="1">
  <advance width="1051"/>
  <unicode hex="0044"/>
  <outline>
    <contour>
      <point x="400" y="197" type="line"/>
      <point x="456" y="197" type="line" smooth="yes"/>
      <point x="644" y="197"/>
      <point x="690" y="280"/>
      <point x="690" y="601" type="curve" smooth="yes"/>
      <point x="690" y="1107" type="line"/>
      <point x="690" y="1428"/>
      <point x="644" y="1511"/>
      <point x="456" y="1511" type="curve"/>
      <point x="400" y="1511" type="line"/>
    </contour>
    <contour>
      <point x="141" y="0" type="line"/>
      <point x="141" y="1708" type="line"/>
      <point x="410" y="1708" type="line" smooth="yes"/>
      <point x="652" y="1708"/>
      <point x="961" y="1695"/>
      <point x="961" y="1102" type="curve" smooth="yes"/>
      <point x="961" y="606" type="line"/>
      <point x="961" y="12"/>
      <point x="652" y="0"/>
      <point x="410" y="0" type="curve" smooth="yes"/>
    </contour>
    <contour>
      <point x="551" y="500" type="move" name="top"/>
    </contour>
    <contour>
      <point x="551" y="-100" type="move" name="btm"/>
    </contour>
  </outline>
</glyph>
<glyph name="E" format="1">
  <advance width="820"/>
  <unicode hex="0045"/>
  <outline>
    <contour>
      <point x="141" y="0" type="line"/>
      <point x="794" y="0" type="line"/>
      <point x="794" y="204" type="line"/>
      <point x="400" y="204" type="line"/>
      <point x="400" y="789" type="line"/>
      <point x="709" y="789" type="line"/>
      <point x="709" y="993" type="line"/>
      <point x="400" y="993" type="line"/>
      <point x="400" y="1504" type="line"/>
      <point x="794" y="1504" type="line"/>
      <point x="794" y="1708" type="line"/>
      <point x="141" y="1708" type="line"/>
    </contour>
    <contour>
      <point x="467" y="500" type="move" name="top"/>
    </contour>
    <contour>
      <point x="467" y="-100" type="move" name="btm"/>
    </contour>
  </outline>
</glyph>
<glyph name="F" format="1">
  <advance width="816"/>
  <unicode hex="0046"/>
  <outline>
    <contour>
      <point x="141" y="0" type="line"/>
      <point x="400" y="0" type="line"/>
      <point x="400" y="789" type="line"/>
      <point x="709" y="789" type="line"/>
      <point x="709" y="993" type="line"/>
      <point x="400" y="993" type="line"/>
      <point x="400" y="1496" type="line"/>
      <point x="794" y="1496" type="line"/>
      <point x="794" y="1708" type="line"/>
      <point x="141" y="1708" type="line"/>
    </contour>
    <contour>
      <point x="467" y="500" type="move" name="top"/>
    </contour>
    <contour>
      <point x="467" y="-100" type="move" name="btm"/>
    </contour>
  </outline>
</glyph>
<glyph name="G" format="1">
  <advance width="1029"/>
  <unicode hex="0047"/>
  <outline>
    <contour>
      <point x="489" y="-16" type="curve" smooth="yes"/>
      <point x="618" y="-16"/>
      <point x="725" y="87"/>
      <point x="766" y="193" type="curve"/>
      <point x="749" y="183" type="line"/>
      <point x="780" y="0" type="line"/>
      <point x="948" y="0" type="line"/>
      <point x="948" y="865" type="line"/>
      <point x="700" y="821" type="line"/>
      <point x="700" y="477" type="line" smooth="yes"/>
      <point x="700" y="313"/>
      <point x="651" y="187"/>
      <point x="536" y="187" type="curve" smooth="yes"/>
      <point x="427" y="187"/>
      <point x="378" y="251"/>
      <point x="378" y="463" type="curve" smooth="yes"/>
      <point x="378" y="1233" type="line" smooth="yes"/>
      <point x="378" y="1452"/>
      <point x="425" y="1520"/>
      <point x="534" y="1520" type="curve" smooth="yes"/>
      <point x="640" y="1520"/>
      <point x="687" y="1426"/>
      <point x="687" y="1239" type="curve" smooth="yes"/>
      <point x="687" y="1157" type="line"/>
      <point x="887" y="1157" type="line"/>
      <point x="901" y="1231"/>
      <point x="914" y="1288"/>
      <point x="914" y="1361" type="curve" smooth="yes"/>
      <point x="914" y="1559"/>
      <point x="818" y="1723"/>
      <point x="541" y="1723" type="curve" smooth="yes"/>
      <point x="378" y="1723"/>
      <point x="107" y="1676"/>
      <point x="107" y="1161" type="curve" smooth="yes"/>
      <point x="107" y="556" type="line" smooth="yes"/>
      <point x="107" y="43"/>
      <point x="368" y="-16"/>
    </contour>
    <contour>
      <point x="567" y="695" type="line"/>
      <point x="907" y="695" type="line"/>
      <point x="948" y="865" type="line"/>
      <point x="567" y="865" type="line"/>
    </contour>
    <contour>
      <point x="527" y="500" type="move" name="top"/>
    </contour>
    <contour>
      <point x="527" y="-100" type="move" name="btm"/>
    </contour>
  </outline>
</glyph>
<glyph name="H" format="1">
  <advance width="1107"/>
  <unicode hex="0048"/>
  <outline>
    <contour>
      <point x="141" y="0" type="line"/>
      <point x="400" y="0" type="line"/>
      <point x="400" y="789" type="line"/>
      <point x="707" y="789" type="line"/>
      <point x="707" y="0" type="line"/>
      <point x="966" y="0" type="line"/>
      <point x="966" y="1708" type="line"/>
      <point x="707" y="1708" type="line"/>
      <point x="707" y="993" type="line"/>
      <point x="400" y="993" type="line"/>
      <point x="400" y="1708" type="line"/>
      <point x="141" y="1708" type="line"/>
    </contour>
    <contour>
      <point x="553" y="500" type="move" name="top"/>
    </contour>
    <contour>
      <point x="553" y="-100" type="move" name="btm"/>
    </contour>
  </outline>
</glyph>
<glyph name="I" format="1">
  <advance width="541"/>
  <unicode hex="0049"/>
  <outline>
    <contour>
      <point x="141" y="0" type="line"/>
      <point x="400" y="0" type="line"/>
      <point x="400" y="1708" type="line"/>
      <point x="141" y="1708" type="line"/>
    </contour>
    <contour>
      <point x="270" y="500" type="move" name="top"/>
    </contour>
    <contour>
      <point x="270" y="-100" type="move" name="btm"/>
    </contour>
  </outline>
</glyph>
<glyph name="J" format="1">
  <advance width="821"/>
  <unicode hex="004A"/>
  <outline>
    <contour>
      <point x="12" y="362" type="curve" smooth="yes"/>
      <point x="12" y="156"/>
      <point x="94" y="-16"/>
      <point x="351" y="-16" type="curve" smooth="yes"/>
      <point x="535" y="-16"/>
      <point x="710" y="61"/>
      <point x="710" y="414" type="curve" smooth="yes"/>
      <point x="710" y="1708" type="line"/>
      <point x="451" y="1708" type="line"/>
      <point x="451" y="385" type="line" smooth="yes"/>
      <point x="451" y="230"/>
      <point x="413" y="187"/>
      <point x="351" y="187" type="curve" smooth="yes"/>
      <point x="277" y="187"/>
      <point x="247" y="242"/>
      <point x="247" y="418" type="curve" smooth="yes"/>
      <point x="247" y="619" type="line"/>
      <point x="40" y="619" type="line"/>
      <point x="21" y="529"/>
      <point x="12" y="434"/>
    </contour>
    <contour>
      <point x="586" y="500" type="move" name="top"/>
    </contour>
    <contour>
      <point x="361" y="-100" type="move" name="btm"/>
    </contour>
  </outline>
</glyph>
<glyph name="K" format="1">
  <advance width="1011"/>
  <unicode hex="004B"/>
  <outline>
    <contour>
      <point x="141" y="0" type="line"/>
      <point x="400" y="0" type="line"/>
      <point x="400" y="813" type="line"/>
      <point x="408" y="813" type="line"/>
      <point x="722" y="0" type="line"/>
      <point x="999" y="0" type="line"/>
      <point x="603" y="980" type="line"/>
      <point x="601" y="830" type="line"/>
      <point x="962" y="1708" type="line"/>
      <point x="704" y="1708" type="line"/>
      <point x="408" y="962" type="line"/>
      <point x="400" y="962" type="line"/>
      <point x="400" y="1708" type="line"/>
      <point x="141" y="1708" type="line"/>
    </contour>
    <contour>
      <point x="570" y="500" type="move" name="top"/>
    </contour>
    <contour>
      <point x="517" y="-100" type="move" name="btm"/>
    </contour>
  </outline>
</glyph>
<glyph name="L" format="1">
  <advance width="766"/>
  <unicode hex="004C"/>
  <outline>
    <contour>
      <point x="141" y="0" type="line"/>
      <point x="753" y="0" type="line"/>
      <point x="753" y="204" type="line"/>
      <point x="400" y="204" type="line"/>
      <point x="400" y="1708" type="line"/>
      <point x="141" y="1708" type="line"/>
    </contour>
    <contour>
      <point x="267" y="500" type="move" name="top"/>
    </contour>
    <contour>
      <point x="447" y="-100" type="move" name="btm"/>
    </contour>
    <contour>
      <point x="492" y="600" type="move" name="car"/>
    </contour>
  </outline>
</glyph>
<glyph name="M" format="1">
  <advance width="1412"/>
  <unicode hex="004D"/>
  <outline>
    <contour>
      <point x="141" y="0" type="line"/>
      <point x="373" y="0" type="line"/>
      <point x="373" y="565" type="line" smooth="yes"/>
      <point x="373" y="912"/>
      <point x="357" y="1215"/>
      <point x="346" y="1335" type="curve"/>
      <point x="365" y="1335" type="line"/>
      <point x="625" y="220" type="line"/>
      <point x="789" y="220" type="line"/>
      <point x="1047" y="1335" type="line"/>
      <point x="1066" y="1335" type="line"/>
      <point x="1055" y="1215"/>
      <point x="1039" y="912"/>
      <point x="1039" y="565" type="curve" smooth="yes"/>
      <point x="1039" y="0" type="line"/>
      <point x="1271" y="0" type="line"/>
      <point x="1271" y="1708" type="line"/>
      <point x="950" y="1708" type="line"/>
      <point x="781" y="1017" type="line" smooth="yes"/>
      <point x="746" y="871"/>
      <point x="729" y="736"/>
      <point x="711" y="620" type="curve"/>
      <point x="703" y="620" type="line"/>
      <point x="685" y="736"/>
      <point x="668" y="871"/>
      <point x="633" y="1017" type="curve" smooth="yes"/>
      <point x="462" y="1708" type="line"/>
      <point x="141" y="1708" type="line"/>
    </contour>
    <contour>
      <point x="706" y="500" type="move" name="top"/>
    </contour>
    <contour>
      <point x="706" y="-100" type="move" name="btm"/>
    </contour>
  </outline>
</glyph>
<glyph name="N" format="1">
  <advance width="1113"/>
  <unicode hex="004E"/>
  <outline>
    <contour>
      <point x="141" y="0" type="line"/>
      <point x="369" y="0" type="line"/>
      <point x="369" y="502" type="line" smooth="yes"/>
      <point x="369" y="848"/>
      <point x="351" y="972"/>
      <point x="342" y="1093" type="curve"/>
      <point x="350" y="1093" type="line"/>
      <point x="765" y="0" type="line"/>
      <point x="972" y="0" type="line"/>
      <point x="972" y="1708" type="line"/>
      <point x="742" y="1708" type="line"/>
      <point x="742" y="1085" type="line" smooth="yes"/>
      <point x="742" y="820"/>
      <point x="760" y="691"/>
      <point x="769" y="585" type="curve"/>
      <point x="763" y="585" type="line"/>
      <point x="346" y="1708" type="line"/>
      <point x="141" y="1708" type="line"/>
    </contour>
    <contour>
      <point x="556" y="500" type="move" name="top"/>
    </contour>
    <contour>
      <point x="556" y="-100" type="move" name="btm"/>
    </contour>
  </outline>
</glyph>
<glyph name="O" format="1">
  <advance width="1060"/>
  <unicode hex="004F"/>
  <outline>
    <contour>
      <point x="532" y="-15" type="curve" smooth="yes"/>
      <point x="681" y="-15"/>
      <point x="953" y="49"/>
      <point x="953" y="556" type="curve" smooth="yes"/>
      <point x="953" y="1161" type="line" smooth="yes"/>
      <point x="953" y="1684"/>
      <point x="686" y="1723"/>
      <point x="532" y="1723" type="curve" smooth="yes"/>
      <point x="372" y="1723"/>
      <point x="107" y="1676"/>
      <point x="107" y="1161" type="curve" smooth="yes"/>
      <point x="107" y="556" type="line" smooth="yes"/>
      <point x="107" y="43"/>
      <point x="366" y="-15"/>
    </contour>
    <contour>
      <point x="532" y="188" type="curve" smooth="yes"/>
      <point x="427" y="188"/>
      <point x="378" y="251"/>
      <point x="378" y="463" type="curve" smooth="yes"/>
      <point x="378" y="1233" type="line" smooth="yes"/>
      <point x="378" y="1452"/>
      <point x="427" y="1520"/>
      <point x="532" y="1520" type="curve" smooth="yes"/>
      <point x="634" y="1520"/>
      <point x="683" y="1452"/>
      <point x="683" y="1233" type="curve" smooth="yes"/>
      <point x="683" y="463" type="line" smooth="yes"/>
      <point x="683" y="251"/>
      <point x="634" y="188"/>
    </contour>
    <contour>
      <point x="530" y="500" type="move" name="top"/>
    </contour>
    <contour>
      <point x="530" y="-100" type="move" name="btm"/>
    </contour>
  </outline>
</glyph>
<glyph name="P" format="1">
  <advance width="995"/>
  <unicode hex="0050"/>
  <outline>
    <contour>
      <point x="141" y="0" type="line"/>
      <point x="400" y="0" type="line"/>
      <point x="400" y="520" type="line"/>
      <point x="425" y="520" type="line" smooth="yes"/>
      <point x="624" y="520"/>
      <point x="927" y="571"/>
      <point x="927" y="1119" type="curve" smooth="yes"/>
      <point x="927" y="1179" type="line"/>
      <point x="927" y="1682"/>
      <point x="597" y="1708"/>
      <point x="400" y="1708" type="curve" smooth="yes"/>
      <point x="141" y="1708" type="line"/>
    </contour>
    <contour>
      <point x="400" y="710" type="line"/>
      <point x="400" y="1521" type="line"/>
      <point x="413" y="1521" type="line"/>
      <point x="609" y="1521"/>
      <point x="661" y="1428"/>
      <point x="661" y="1225" type="curve" smooth="yes"/>
      <point x="661" y="1071" type="line" smooth="yes"/>
      <point x="661" y="814"/>
      <point x="601" y="710"/>
      <point x="413" y="710" type="curve" smooth="yes"/>
    </contour>
    <contour>
      <point x="534" y="500" type="move" name="top"/>
    </contour>
    <contour>
      <point x="534" y="-100" type="move" name="btm"/>
    </contour>
  </outline>
</glyph>
<glyph name="Q" format="1">
  <advance width="1060"/>
  <unicode hex="0051"/>
  <outline>
    <contour>
      <point x="427" y="-72" type="line"/>
      <point x="427" y="-327"/>
      <point x="611" y="-346"/>
      <point x="695" y="-346" type="curve" smooth="yes"/>
      <point x="759" y="-346"/>
      <point x="813" y="-337"/>
      <point x="878" y="-308" type="curve"/>
      <point x="878" y="-168" type="line"/>
      <point x="862" y="-169"/>
      <point x="842" y="-169"/>
      <point x="824" y="-169" type="curve" smooth="yes"/>
      <point x="706" y="-169"/>
      <point x="645" y="-146"/>
      <point x="645" y="-16" type="curve" smooth="yes"/>
      <point x="645" y="78" type="line"/>
      <point x="427" y="78" type="line"/>
    </contour>
    <contour>
      <point x="532" y="-15" type="curve" smooth="yes"/>
      <point x="681" y="-15"/>
      <point x="953" y="49"/>
      <point x="953" y="556" type="curve" smooth="yes"/>
      <point x="953" y="1161" type="line" smooth="yes"/>
      <point x="953" y="1684"/>
      <point x="686" y="1723"/>
      <point x="532" y="1723" type="curve" smooth="yes"/>
      <point x="372" y="1723"/>
      <point x="107" y="1676"/>
      <point x="107" y="1161" type="curve" smooth="yes"/>
      <point x="107" y="556" type="line" smooth="yes"/>
      <point x="107" y="43"/>
      <point x="366" y="-15"/>
    </contour>
    <contour>
      <point x="532" y="188" type="curve" smooth="yes"/>
      <point x="427" y="188"/>
      <point x="378" y="251"/>
      <point x="378" y="463" type="curve" smooth="yes"/>
      <point x="378" y="1233" type="line" smooth="yes"/>
      <point x="378" y="1452"/>
      <point x="427" y="1520"/>
      <point x="532" y="1520" type="curve" smooth="yes"/>
      <point x="634" y="1520"/>
      <point x="683" y="1452"/>
      <point x="683" y="1233" type="curve" smooth="yes"/>
      <point x="683" y="463" type="line" smooth="yes"/>
      <point x="683" y="251"/>
      <point x="634" y="188"/>
    </contour>
    <contour>
      <point x="530" y="500" type="move" name="top"/>
    </contour>
    <contour>
      <point x="530" y="-100" type="move" name="btm"/>
    </contour>
  </outline>
</glyph>
<glyph name="R" format="1">
  <advance width="1060"/>
  <unicode hex="0052"/>
  <outline>
    <contour>
      <point x="141" y="0" type="line"/>
      <point x="400" y="0" type="line"/>
      <point x="400" y="639" type="line"/>
      <point x="578" y="639" type="line"/>
      <point x="459" y="720" type="line"/>
      <point x="724" y="0" type="line"/>
      <point x="1000" y="0" type="line"/>
      <point x="678" y="783" type="line"/>
      <point x="708" y="678" type="line"/>
      <point x="866" y="747"/>
      <point x="950" y="912"/>
      <point x="950" y="1177" type="curve" smooth="yes"/>
      <point x="950" y="1220" type="line"/>
      <point x="950" y="1684"/>
      <point x="619" y="1708"/>
      <point x="422" y="1708" type="curve" smooth="yes"/>
      <point x="141" y="1708" type="line"/>
    </contour>
    <contour>
      <point x="400" y="826" type="line"/>
      <point x="400" y="1521" type="line"/>
      <point x="434" y="1521" type="line"/>
      <point x="631" y="1521"/>
      <point x="683" y="1441"/>
      <point x="683" y="1265" type="curve" smooth="yes"/>
      <point x="683" y="1130" type="line" smooth="yes"/>
      <point x="683" y="900"/>
      <point x="623" y="826"/>
      <point x="434" y="826" type="curve" smooth="yes"/>
    </contour>
    <contour>
      <point x="570" y="500" type="move" name="top"/>
    </contour>
    <contour>
      <point x="570" y="-100" type="move" name="btm"/>
    </contour>
  </outline>
</glyph>
<glyph name="S" format="1">
  <advance width="936"/>
  <unicode hex="0053"/>
  <outline>
    <contour>
      <point x="65" y="346" type="curve" smooth="yes"/>
      <point x="65" y="164"/>
      <point x="156" y="-16"/>
      <point x="465" y="-16" type="curve" smooth="yes"/>
      <point x="715" y="-16"/>
      <point x="879" y="132"/>
      <point x="879" y="368" type="curve" smooth="yes"/>
      <point x="879" y="525"/>
      <point x="819" y="643"/>
      <point x="709" y="786" type="curve" smooth="yes"/>
      <point x="408" y="1168" type="line" smooth="yes"/>
      <point x="358" y="1234"/>
      <point x="323" y="1294"/>
      <point x="323" y="1371" type="curve" smooth="yes"/>
      <point x="323" y="1461"/>
      <point x="374" y="1520"/>
      <point x="471" y="1520" type="curve" smooth="yes"/>
      <point x="578" y="1520"/>
      <point x="637" y="1419"/>
      <point x="637" y="1239" type="curve" smooth="yes"/>
      <point x="637" y="1157" type="line"/>
      <point x="837" y="1157" type="line"/>
      <point x="851" y="1231"/>
      <point x="865" y="1288"/>
      <point x="865" y="1361" type="curve" smooth="yes"/>
      <point x="865" y="1534"/>
      <point x="773" y="1723"/>
      <point x="471" y="1723" type="curve" smooth="yes"/>
      <point x="222" y="1723"/>
      <point x="73" y="1563"/>
      <point x="73" y="1336" type="curve" smooth="yes"/>
      <point x="73" y="1185"/>
      <point x="128" y="1069"/>
      <point x="223" y="947" type="curve" smooth="yes"/>
      <point x="493" y="608" type="line" smooth="yes"/>
      <point x="588" y="487"/>
      <point x="613" y="410"/>
      <point x="613" y="334" type="curve" smooth="yes"/>
      <point x="613" y="238"/>
      <point x="561" y="187"/>
      <point x="463" y="187" type="curve" smooth="yes"/>
      <point x="347" y="187"/>
      <point x="292" y="288"/>
      <point x="292" y="472" type="curve" smooth="yes"/>
      <point x="292" y="548" type="line"/>
      <point x="91" y="548" type="line"/>
      <point x="74" y="477"/>
      <point x="65" y="419"/>
    </contour>
    <contour>
      <point x="472" y="500" type="move" name="top"/>
    </contour>
    <contour>
      <point x="472" y="-100" type="move" name="btm"/>
    </contour>
  </outline>
</glyph>
<glyph name="T" format="1">
  <advance width="856"/>
  <unicode hex="0054"/>
  <outline>
    <contour>
      <point x="299" y="0" type="line"/>
      <point x="558" y="0" type="line"/>
      <point x="558" y="1504" type="line"/>
      <point x="832" y="1504" type="line"/>
      <point x="832" y="1708" type="line"/>
      <point x="24" y="1708" type="line"/>
      <point x="24" y="1504" type="line"/>
      <point x="299" y="1504" type="line"/>
    </contour>
    <contour>
      <point x="428" y="500" type="move" name="top"/>
    </contour>
    <contour>
      <point x="428" y="-100" type="move" name="btm"/>
    </contour>
  </outline>
</glyph>
<glyph name="U" format="1">
  <advance width="1095"/>
  <unicode hex="0055"/>
  <outline>
    <contour>
      <point x="141" y="525" type="curve" smooth="yes"/>
      <point x="141" y="1708" type="line"/>
      <point x="400" y="1708" type="line"/>
      <point x="400" y="464" type="line" smooth="yes"/>
      <point x="400" y="252"/>
      <point x="445" y="188"/>
      <point x="547" y="188" type="curve" smooth="yes"/>
      <point x="649" y="188"/>
      <point x="695" y="252"/>
      <point x="695" y="464" type="curve" smooth="yes"/>
      <point x="695" y="1708" type="line"/>
      <point x="953" y="1708" type="line"/>
      <point x="953" y="525" type="line" smooth="yes"/>
      <point x="953" y="23"/>
      <point x="696" y="-15"/>
      <point x="547" y="-15" type="curve" smooth="yes"/>
      <point x="399" y="-15"/>
      <point x="141" y="23"/>
    </contour>
    <contour>
      <point x="547" y="500" type="move" name="top"/>
    </contour>
    <contour>
      <point x="547" y="-100" type="move" name="btm"/>
    </contour>
  </outline>
</glyph>
<glyph name="V" format="1">
  <advance width="945"/>
  <unicode hex="0056"/>
  <outline>
    <contour>
      <point x="324" y="0" type="line"/>
      <point x="14" y="1708" type="line"/>
      <point x="279" y="1708" type="line"/>
      <point x="467" y="351" type="line"/>
      <point x="478" y="351" type="line"/>
      <point x="667" y="1708" type="line"/>
      <point x="931" y="1708" type="line"/>
      <point x="620" y="0" type="line"/>
    </contour>
    <contour>
      <point x="472" y="500" type="move" name="top"/>
    </contour>
    <contour>
      <point x="472" y="-100" type="move" name="btm"/>
    </contour>
  </outline>
</glyph>
<glyph name="W" format="1">
  <advance width="1469"/>
  <unicode hex="0057"/>
  <outline>
    <contour>
      <point x="278" y="0" type="line"/>
      <point x="538" y="0" type="line"/>
      <point x="686" y="821" type="line"/>
      <point x="729" y="1178" type="line"/>
      <point x="749" y="1178" type="line"/>
      <point x="793" y="821" type="line"/>
      <point x="934" y="0" type="line"/>
      <point x="1197" y="0" type="line"/>
      <point x="1436" y="1708" type="line"/>
      <point x="1187" y="1708" type="line"/>
      <point x="1082" y="676" type="line"/>
      <point x="1070" y="435" type="line"/>
      <point x="1044" y="435" type="line"/>
      <point x="1024" y="676" type="line"/>
      <point x="848" y="1708" type="line"/>
      <point x="641" y="1708" type="line"/>
      <point x="457" y="676" type="line"/>
      <point x="433" y="435" type="line"/>
      <point x="408" y="435" type="line"/>
      <point x="395" y="676" type="line"/>
      <point x="280" y="1708" type="line"/>
      <point x="32" y="1708" type="line"/>
    </contour>
    <contour>
      <point x="734" y="500" type="move" name="top"/>
    </contour>
    <contour>
      <point x="734" y="-100" type="move" name="btm"/>
    </contour>
  </outline>
</glyph>
<glyph name="X" format="1">
  <advance width="921"/>
  <unicode hex="0058"/>
  <outline>
    <contour>
      <point x="24" y="0" type="line"/>
      <point x="282" y="0" type="line"/>
      <point x="451" y="549" type="line"/>
      <point x="468" y="549" type="line"/>
      <point x="633" y="0" type="line"/>
      <point x="897" y="0" type="line"/>
      <point x="584" y="859" type="line"/>
      <point x="897" y="1708" type="line"/>
      <point x="629" y="1708" type="line"/>
      <point x="470" y="1162" type="line"/>
      <point x="460" y="1162" type="line"/>
      <point x="298" y="1708" type="line"/>
      <point x="24" y="1708" type="line"/>
      <point x="336" y="860" type="line"/>
    </contour>
    <contour>
      <point x="460" y="500" type="move" name="top"/>
    </contour>
    <contour>
      <point x="460" y="-100" type="move" name="btm"/>
    </contour>
  </outline>
</glyph>
<glyph name="Y" format="1">
  <advance width="949"/>
  <unicode hex="0059"/>
  <outline>
    <contour>
      <point x="344" y="0" type="line"/>
      <point x="603" y="0" type="line"/>
      <point x="603" y="599" type="line"/>
      <point x="939" y="1708" type="line"/>
      <point x="679" y="1708" type="line"/>
      <point x="481" y="884" type="line"/>
      <point x="469" y="884" type="line"/>
      <point x="271" y="1708" type="line"/>
      <point x="10" y="1708" type="line"/>
      <point x="344" y="599" type="line"/>
    </contour>
    <contour>
      <point x="474" y="500" type="move" name="top"/>
    </contour>
    <contour>
      <point x="474" y="-100" type="move" name="btm"/>
    </contour>
  </outline>
</glyph>
<glyph name="Z" format="1">
  <advance width="855"/>
  <unicode hex="005A"/>
  <outline>
    <contour>
      <point x="24" y="0" type="line"/>
      <point x="831" y="0" type="line"/>
      <point x="831" y="204" type="line"/>
      <point x="313" y="204" type="line"/>
      <point x="831" y="1571" type="line"/>
      <point x="831" y="1708" type="line"/>
      <point x="110" y="1708" type="line"/>
      <point x="110" y="1504" type="line"/>
      <point x="541" y="1504" type="line"/>
      <point x="24" y="137" type="line"/>
    </contour>
    <contour>
      <point x="427" y="500" type="move" name="top"/>
    </contour>
    <contour>
      <point x="427" y="-100" type="move" name="btm"/>
    </contour>
  </outline>
</glyph>
<glyph name="bracketleft" format="1">
  <advance width="766"/>
  <unicode hex="005B"/>
  <outline>
    <contour>
      <point x="134" y="-256" type="line"/>
      <point x="639" y="-256" type="line"/>
      <point x="639" y="-66" type="line"/>
      <point x="356" y="-66" type="line"/>
      <point x="356" y="1771" type="line"/>
      <point x="639" y="1771" type="line"/>
      <point x="639" y="1963" type="line"/>
      <point x="134" y="1963" type="line"/>
    </contour>
  </outline>
</glyph>
<glyph name="backslash" format="1">
  <advance width="542"/>
  <unicode hex="005C"/>
  <outline>
    <contour>
      <point x="318" y="-326" type="line"/>
      <point x="537" y="-326" type="line"/>
      <point x="224" y="1884" type="line"/>
      <point x="5" y="1884" type="line"/>
    </contour>
  </outline>
</glyph>
<glyph name="bracketright" format="1">
  <advance width="766"/>
  <unicode hex="005D"/>
  <outline>
    <contour>
      <point x="126" y="-66" type="line"/>
      <point x="126" y="-256" type="line"/>
      <point x="631" y="-256" type="line"/>
      <point x="631" y="1963" type="line"/>
      <point x="126" y="1963" type="line"/>
      <point x="126" y="1771" type="line"/>
      <point x="410" y="1771" type="line"/>
      <point x="410" y="-66" type="line"/>
    </contour>
  </outline>
</glyph>
<glyph name="asciicircum" format="1">
  <advance width="949"/>
  <unicode hex="005E"/>
  <outline>
    <contour>
      <point x="30" y="277" type="line"/>
      <point x="249" y="277" type="line"/>
      <point x="408" y="1067" type="line"/>
      <point x="462" y="1402" type="line"/>
      <point x="487" y="1402" type="line"/>
      <point x="538" y="1067" type="line"/>
      <point x="700" y="277" type="line"/>
      <point x="919" y="277" type="line"/>
      <point x="586" y="1725" type="line"/>
      <point x="353" y="1725" type="line"/>
    </contour>
  </outline>
</glyph>
<glyph name="a" format="1">
  <advance width="914"/>
  <unicode hex="0061"/>
  <outline>
    <contour>
      <point x="53" y="316" type="curve" smooth="yes"/>
      <point x="53" y="138"/>
      <point x="136" y="-16"/>
      <point x="316" y="-16" type="curve" smooth="yes"/>
      <point x="432" y="-16"/>
      <point x="521" y="40"/>
      <point x="575" y="118" type="curve"/>
      <point x="593" y="0" type="line"/>
      <point x="788" y="0" type="line"/>
      <point x="788" y="1041" type="line" smooth="yes"/>
      <point x="788" y="1278"/>
      <point x="709" y="1392"/>
      <point x="435" y="1392" type="curve" smooth="yes"/>
      <point x="225" y="1392"/>
      <point x="76" y="1282"/>
      <point x="76" y="1077" type="curve" smooth="yes"/>
      <point x="76" y="1034"/>
      <point x="82" y="993"/>
      <point x="94" y="941" type="curve"/>
      <point x="287" y="941" type="line"/>
      <point x="287" y="996" type="line" smooth="yes"/>
      <point x="287" y="1154"/>
      <point x="355" y="1203"/>
      <point x="427" y="1203" type="curve" smooth="yes"/>
      <point x="534" y="1203"/>
      <point x="535" y="1107"/>
      <point x="535" y="1004" type="curve" smooth="yes"/>
      <point x="535" y="837" type="line"/>
      <point x="486" y="819"/>
      <point x="422" y="790"/>
      <point x="372" y="765" type="curve" smooth="yes"/>
      <point x="162" y="661"/>
      <point x="53" y="542"/>
    </contour>
    <contour>
      <point x="298" y="355" type="curve" smooth="yes"/>
      <point x="298" y="490"/>
      <point x="372" y="576"/>
      <point x="443" y="620" type="curve" smooth="yes"/>
      <point x="481" y="644"/>
      <point x="509" y="657"/>
      <point x="535" y="668" type="curve"/>
      <point x="535" y="234" type="line"/>
      <point x="507" y="202"/>
      <point x="470" y="177"/>
      <point x="428" y="177" type="curve" smooth="yes"/>
      <point x="337" y="177"/>
      <point x="298" y="250"/>
    </contour>
    <contour>
      <point x="436" y="500" type="move" name="top"/>
    </contour>
    <contour>
      <point x="443" y="-100" type="move" name="btm"/>
    </contour>
  </outline>
</glyph>
<glyph name="b" format="1">
  <advance width="985"/>
  <unicode hex="0062"/>
  <outline>
    <contour>
      <point x="129" y="0" type="line"/>
      <point x="327" y="0" type="line"/>
      <point x="348" y="128" type="line"/>
      <point x="393" y="55"/>
      <point x="465" y="-16"/>
      <point x="594" y="-16" type="curve" smooth="yes"/>
      <point x="687" y="-16"/>
      <point x="890" y="14"/>
      <point x="890" y="481" type="curve" smooth="yes"/>
      <point x="890" y="898" type="line"/>
      <point x="890" y="1366"/>
      <point x="688" y="1392"/>
      <point x="604" y="1392" type="curve" smooth="yes"/>
      <point x="494" y="1392"/>
      <point x="421" y="1333"/>
      <point x="375" y="1269" type="curve"/>
      <point x="374" y="1270" type="line"/>
      <point x="382" y="1452" type="line"/>
      <point x="382" y="1819" type="line"/>
      <point x="129" y="1819" type="line"/>
    </contour>
    <contour>
      <point x="382" y="297" type="curve"/>
      <point x="382" y="1094" type="line"/>
      <point x="407" y="1144"/>
      <point x="447" y="1187"/>
      <point x="509" y="1187" type="curve" smooth="yes"/>
      <point x="583" y="1187"/>
      <point x="635" y="1142"/>
      <point x="635" y="937" type="curve" smooth="yes"/>
      <point x="635" y="449" type="line" smooth="yes"/>
      <point x="635" y="244"/>
      <point x="582" y="198"/>
      <point x="508" y="198" type="curve" smooth="yes"/>
      <point x="441" y="198"/>
      <point x="404" y="246"/>
    </contour>
    <contour>
      <point x="509" y="500" type="move" name="top"/>
    </contour>
    <contour>
      <point x="509" y="-100" type="move" name="btm"/>
    </contour>
  </outline>
</glyph>
<glyph name="c" format="1">
  <advance width="863"/>
  <unicode hex="0063"/>
  <outline>
    <contour>
      <point x="452" y="-15" type="curve" smooth="yes"/>
      <point x="681" y="-15"/>
      <point x="792" y="99"/>
      <point x="792" y="360" type="curve" smooth="yes"/>
      <point x="792" y="423" type="line"/>
      <point x="587" y="423" type="line"/>
      <point x="587" y="363" type="line" smooth="yes"/>
      <point x="587" y="218"/>
      <point x="531" y="173"/>
      <point x="480" y="173" type="curve" smooth="yes"/>
      <point x="381" y="173"/>
      <point x="349" y="261"/>
      <point x="349" y="501" type="curve" smooth="yes"/>
      <point x="349" y="892" type="line" smooth="yes"/>
      <point x="349" y="1129"/>
      <point x="392" y="1205"/>
      <point x="474" y="1205" type="curve" smooth="yes"/>
      <point x="548" y="1205"/>
      <point x="587" y="1122"/>
      <point x="587" y="984" type="curve" smooth="yes"/>
      <point x="587" y="941" type="line"/>
      <point x="779" y="941" type="line"/>
      <point x="790" y="984"/>
      <point x="796" y="1027"/>
      <point x="796" y="1090" type="curve" smooth="yes"/>
      <point x="796" y="1296"/>
      <point x="669" y="1393"/>
      <point x="482" y="1393" type="curve" smooth="yes"/>
      <point x="343" y="1393"/>
      <point x="95" y="1350"/>
      <point x="95" y="824" type="curve" smooth="yes"/>
      <point x="95" y="564" type="line" smooth="yes"/>
      <point x="95" y="154"/>
      <point x="220" y="-15"/>
    </contour>
    <contour>
      <point x="471" y="500" type="move" name="top"/>
    </contour>
    <contour>
      <point x="471" y="-100" type="move" name="btm"/>
    </contour>
  </outline>
</glyph>
<glyph name="e" format="1">
  <advance width="914"/>
  <unicode hex="0065"/>
  <outline>
    <contour>
      <point x="463" y="-15" type="curve" smooth="yes"/>
      <point x="699" y="-15"/>
      <point x="827" y="99"/>
      <point x="827" y="360" type="curve" smooth="yes"/>
      <point x="827" y="423" type="line"/>
      <point x="619" y="423" type="line"/>
      <point x="619" y="363" type="line" smooth="yes"/>
      <point x="619" y="218"/>
      <point x="558" y="173"/>
      <point x="496" y="173" type="curve" smooth="yes"/>
      <point x="381" y="173"/>
      <point x="349" y="261"/>
      <point x="349" y="501" type="curve" smooth="yes"/>
      <point x="349" y="641" type="line"/>
      <point x="800" y="641" type="line"/>
      <point x="820" y="729"/>
      <point x="833" y="852"/>
      <point x="833" y="963" type="curve" smooth="yes"/>
      <point x="833" y="1295"/>
      <point x="677" y="1393"/>
      <point x="495" y="1393" type="curve" smooth="yes"/>
      <point x="349" y="1393"/>
      <point x="95" y="1350"/>
      <point x="95" y="824" type="curve" smooth="yes"/>
      <point x="95" y="564" type="line" smooth="yes"/>
      <point x="95" y="154"/>
      <point x="226" y="-15"/>
    </contour>
    <contour>
      <point x="349" y="811" type="line"/>
      <point x="349" y="892" type="line" smooth="yes"/>
      <point x="349" y="1129"/>
      <point x="391" y="1205"/>
      <point x="480" y="1205" type="curve"/>
      <point x="564" y="1204"/>
      <point x="601" y="1131"/>
      <point x="601" y="949" type="curve" smooth="yes"/>
      <point x="601" y="913"/>
      <point x="600" y="840"/>
      <point x="597" y="811" type="curve"/>
    </contour>
    <contour>
      <point x="480" y="500" type="move" name="top"/>
    </contour>
    <contour>
      <point x="480" y="-100" type="move" name="btm"/>
    </contour>
  </outline>
</glyph>
<glyph name="f" format="1">
  <advance width="606"/>
  <unicode hex="0066"/>
  <outline>
    <contour>
      <point x="148" y="0" type="line"/>
      <point x="401" y="0" type="line"/>
      <point x="401" y="1185" type="line"/>
      <point x="602" y="1185" type="line"/>
      <point x="602" y="1377" type="line"/>
      <point x="401" y="1377" type="line"/>
      <point x="401" y="1476" type="line" smooth="yes"/>
      <point x="401" y="1596"/>
      <point x="459" y="1635"/>
      <point x="525" y="1635" type="curve" smooth="yes"/>
      <point x="559" y="1635"/>
      <point x="592" y="1631"/>
      <point x="619" y="1624" type="curve"/>
      <point x="619" y="1802" type="line"/>
      <point x="573" y="1825"/>
      <point x="500" y="1836"/>
      <point x="451" y="1836" type="curve" smooth="yes"/>
      <point x="283" y="1836"/>
      <point x="148" y="1775"/>
      <point x="148" y="1476" type="curve" smooth="yes"/>
      <point x="148" y="1377" type="line"/>
      <point x="33" y="1377" type="line"/>
      <point x="33" y="1185" type="line"/>
      <point x="148" y="1185" type="line"/>
    </contour>
    <contour>
      <point x="326" y="500" type="move" name="top"/>
    </contour>
    <contour>
      <point x="326" y="-100" type="move" name="btm"/>
    </contour>
  </outline>
</glyph>
<glyph name="g" format="1">
  <advance width="984"/>
  <unicode hex="0067"/>
  <outline>
    <contour>
      <point x="154" y="-94" type="line"/>
      <point x="145" y="-126"/>
      <point x="141" y="-155"/>
      <point x="141" y="-174" type="curve" smooth="yes"/>
      <point x="141" y="-391"/>
      <point x="289" y="-445"/>
      <point x="471" y="-445" type="curve" smooth="yes"/>
      <point x="740" y="-445"/>
      <point x="855" y="-251"/>
      <point x="855" y="56" type="curve" smooth="yes"/>
      <point x="855" y="1378" type="line"/>
      <point x="658" y="1378" type="line"/>
      <point x="635" y="1242" type="line"/>
      <point x="598" y="1315"/>
      <point x="531" y="1392"/>
      <point x="397" y="1392" type="curve" smooth="yes"/>
      <point x="297" y="1392"/>
      <point x="95" y="1366"/>
      <point x="95" y="918" type="curve" smooth="yes"/>
      <point x="95" y="556" type="line"/>
      <point x="95" y="88"/>
      <point x="298" y="58"/>
      <point x="391" y="58" type="curve" smooth="yes"/>
      <point x="497" y="58"/>
      <point x="566" y="107"/>
      <point x="611" y="165" type="curve"/>
      <point x="611" y="-52" type="line" smooth="yes"/>
      <point x="611" y="-220"/>
      <point x="543" y="-257"/>
      <point x="468" y="-257" type="curve" smooth="yes"/>
      <point x="377" y="-257"/>
      <point x="333" y="-212"/>
      <point x="333" y="-94" type="curve"/>
    </contour>
    <contour>
      <point x="477" y="264" type="curve" smooth="yes"/>
      <point x="403" y="264"/>
      <point x="349" y="311"/>
      <point x="349" y="516" type="curve" smooth="yes"/>
      <point x="349" y="938" type="line" smooth="yes"/>
      <point x="349" y="1144"/>
      <point x="402" y="1187"/>
      <point x="476" y="1187" type="curve" smooth="yes"/>
      <point x="536" y="1187"/>
      <point x="578" y="1141"/>
      <point x="603" y="1086" type="curve"/>
      <point x="603" y="364" type="line"/>
      <point x="581" y="313"/>
      <point x="543" y="264"/>
    </contour>
    <contour>
      <point x="480" y="500" type="move" name="top"/>
    </contour>
    <contour>
      <point x="480" y="-100" type="move" name="btm"/>
    </contour>
  </outline>
</glyph>
<glyph name="h" format="1">
  <advance width="1012"/>
  <unicode hex="0068"/>
  <outline>
    <contour>
      <point x="128" y="0" type="line"/>
      <point x="381" y="0" type="line"/>
      <point x="381" y="1091" type="line"/>
      <point x="419" y="1150"/>
      <point x="470" y="1187"/>
      <point x="521" y="1187" type="curve" smooth="yes"/>
      <point x="593" y="1187"/>
      <point x="631" y="1146"/>
      <point x="631" y="1025" type="curve" smooth="yes"/>
      <point x="631" y="0" type="line"/>
      <point x="884" y="0" type="line"/>
      <point x="884" y="1055" type="line" smooth="yes"/>
      <point x="884" y="1279"/>
      <point x="792" y="1393"/>
      <point x="632" y="1393" type="curve" smooth="yes"/>
      <point x="539" y="1393"/>
      <point x="443" y="1362"/>
      <point x="368" y="1259" type="curve"/>
      <point x="381" y="1495" type="line"/>
      <point x="381" y="1819" type="line"/>
      <point x="128" y="1819" type="line"/>
    </contour>
    <contour>
      <point x="506" y="500" type="move" name="top"/>
    </contour>
    <contour>
      <point x="506" y="-100" type="move" name="btm"/>
    </contour>
  </outline>
</glyph>
<glyph name="i" format="1">
  <advance width="511"/>
  <unicode hex="0069"/>
  <outline>
    <contour>
      <point x="254" y="1568" type="curve" smooth="yes"/>
      <point x="353" y="1568"/>
      <point x="412" y="1632"/>
      <point x="412" y="1736" type="curve" smooth="yes"/>
      <point x="412" y="1847"/>
      <point x="354" y="1899"/>
      <point x="255" y="1899" type="curve" smooth="yes"/>
      <point x="160" y="1899"/>
      <point x="99" y="1855"/>
      <point x="99" y="1736" type="curve" smooth="yes"/>
      <point x="99" y="1629"/>
      <point x="161" y="1568"/>
    </contour>
    <contour>
      <point x="129" y="0" type="line"/>
      <point x="382" y="0" type="line"/>
      <point x="382" y="1377" type="line"/>
      <point x="129" y="1377" type="line"/>
    </contour>
  </outline>
</glyph>
<glyph name="j" format="1">
  <advance width="511"/>
  <unicode hex="006A"/>
  <outline>
    <contour>
      <point x="129" y="-116" type="line"/>
      <point x="129" y="-236"/>
      <point x="79" y="-275"/>
      <point x="20" y="-275" type="curve" smooth="yes"/>
      <point x="9" y="-275"/>
      <point x="-2" y="-274"/>
      <point x="-12" y="-273" type="curve"/>
      <point x="-12" y="-420" type="line"/>
      <point x="28" y="-438"/>
      <point x="70" y="-444"/>
      <point x="110" y="-444" type="curve" smooth="yes"/>
      <point x="251" y="-444"/>
      <point x="382" y="-384"/>
      <point x="382" y="-84" type="curve" smooth="yes"/>
      <point x="382" y="1377" type="line"/>
      <point x="129" y="1377" type="line"/>
    </contour>
    <contour>
      <point x="254" y="1568" type="curve" smooth="yes"/>
      <point x="353" y="1568"/>
      <point x="412" y="1632"/>
      <point x="412" y="1736" type="curve" smooth="yes"/>
      <point x="412" y="1847"/>
      <point x="354" y="1899"/>
      <point x="255" y="1899" type="curve" smooth="yes"/>
      <point x="160" y="1899"/>
      <point x="99" y="1855"/>
      <point x="99" y="1736" type="curve" smooth="yes"/>
      <point x="99" y="1629"/>
      <point x="161" y="1568"/>
    </contour>
    <contour>
      <point x="260" y="500" type="move" name="top"/>
    </contour>
    <contour>
      <point x="185" y="-100" type="move" name="btm"/>
    </contour>
  </outline>
</glyph>
<glyph name="k" format="1">
  <advance width="949"/>
  <unicode hex="006B"/>
  <outline>
    <contour>
      <point x="129" y="0" type="line"/>
      <point x="382" y="0" type="line"/>
      <point x="382" y="683" type="line"/>
      <point x="390" y="683" type="line"/>
      <point x="682" y="0" type="line"/>
      <point x="938" y="0" type="line"/>
      <point x="614" y="759" type="line"/>
      <point x="909" y="1377" type="line"/>
      <point x="666" y="1377" type="line"/>
      <point x="390" y="772" type="line"/>
      <point x="382" y="772" type="line"/>
      <point x="382" y="1819" type="line"/>
      <point x="129" y="1819" type="line"/>
    </contour>
    <contour>
      <point x="533" y="500" type="move" name="top"/>
    </contour>
    <contour>
      <point x="533" y="-100" type="move" name="btm"/>
    </contour>
  </outline>
</glyph>
<glyph name="l" format="1">
  <advance width="511"/>
  <unicode hex="006C"/>
  <outline>
    <contour>
      <point x="129" y="0" type="line"/>
      <point x="382" y="0" type="line"/>
      <point x="382" y="1819" type="line"/>
      <point x="129" y="1819" type="line"/>
    </contour>
    <contour>
      <point x="255" y="500" type="move" name="top"/>
    </contour>
    <contour>
      <point x="255" y="-100" type="move" name="btm"/>
    </contour>
    <contour>
      <point x="255" y="600" type="move" name="car"/>
    </contour>
  </outline>
</glyph>
<glyph name="m" format="1">
  <advance width="1514"/>
  <unicode hex="006D"/>
  <outline>
    <contour>
      <point x="129" y="0" type="line"/>
      <point x="382" y="0" type="line"/>
      <point x="382" y="1093" type="line"/>
      <point x="419" y="1151"/>
      <point x="469" y="1187"/>
      <point x="514" y="1187" type="curve" smooth="yes"/>
      <point x="596" y="1187"/>
      <point x="631" y="1146"/>
      <point x="631" y="1025" type="curve" smooth="yes"/>
      <point x="631" y="0" type="line"/>
      <point x="884" y="0" type="line"/>
      <point x="884" y="1055" type="line" smooth="yes"/>
      <point x="884" y="1067"/>
      <point x="884" y="1079"/>
      <point x="883" y="1091" type="curve"/>
      <point x="921" y="1150"/>
      <point x="971" y="1187"/>
      <point x="1017" y="1187" type="curve" smooth="yes"/>
      <point x="1099" y="1187"/>
      <point x="1134" y="1146"/>
      <point x="1134" y="1025" type="curve" smooth="yes"/>
      <point x="1134" y="0" type="line"/>
      <point x="1387" y="0" type="line"/>
      <point x="1387" y="1055" type="line" smooth="yes"/>
      <point x="1387" y="1279"/>
      <point x="1295" y="1393"/>
      <point x="1136" y="1393" type="curve" smooth="yes"/>
      <point x="1036" y="1393"/>
      <point x="934" y="1356"/>
      <point x="855" y="1237" type="curve"/>
      <point x="817" y="1341"/>
      <point x="740" y="1393"/>
      <point x="633" y="1393" type="curve" smooth="yes"/>
      <point x="531" y="1393"/>
      <point x="426" y="1355"/>
      <point x="347" y="1229" type="curve"/>
      <point x="347" y="1230" type="line"/>
      <point x="323" y="1377" type="line"/>
      <point x="129" y="1377" type="line"/>
    </contour>
    <contour>
      <point x="758" y="500" type="move" name="top"/>
    </contour>
    <contour>
      <point x="758" y="-100" type="move" name="btm"/>
    </contour>
  </outline>
</glyph>
<glyph name="n" format="1">
  <advance width="1011"/>
  <unicode hex="006E"/>
  <outline>
    <contour>
      <point x="129" y="0" type="line"/>
      <point x="382" y="0" type="line"/>
      <point x="382" y="1093" type="line"/>
      <point x="420" y="1151"/>
      <point x="470" y="1187"/>
      <point x="521" y="1187" type="curve" smooth="yes"/>
      <point x="593" y="1187"/>
      <point x="631" y="1146"/>
      <point x="631" y="1025" type="curve" smooth="yes"/>
      <point x="631" y="0" type="line"/>
      <point x="884" y="0" type="line"/>
      <point x="884" y="1055" type="line" smooth="yes"/>
      <point x="884" y="1279"/>
      <point x="792" y="1393"/>
      <point x="632" y="1393" type="curve" smooth="yes"/>
      <point x="531" y="1393"/>
      <point x="426" y="1355"/>
      <point x="347" y="1229" type="curve"/>
      <point x="347" y="1230" type="line"/>
      <point x="322" y="1377" type="line"/>
      <point x="129" y="1377" type="line"/>
    </contour>
    <contour>
      <point x="506" y="500" type="move" name="top"/>
    </contour>
    <contour>
      <point x="506" y="-100" type="move" name="btm"/>
    </contour>
  </outline>
</glyph>
<glyph name="o" format="1">
  <advance width="948"/>
  <unicode hex="006F"/>
  <outline>
    <contour>
      <point x="476" y="-15" type="curve" smooth="yes"/>
      <point x="635" y="-15"/>
      <point x="853" y="56"/>
      <point x="853" y="591" type="curve" smooth="yes"/>
      <point x="853" y="807" type="line" smooth="yes"/>
      <point x="853" y="1349"/>
      <point x="642" y="1393"/>
      <point x="477" y="1393" type="curve" smooth="yes"/>
      <point x="306" y="1393"/>
      <point x="95" y="1342"/>
      <point x="95" y="807" type="curve" smooth="yes"/>
      <point x="95" y="591" type="line" smooth="yes"/>
      <point x="95" y="47"/>
      <point x="300" y="-15"/>
    </contour>
    <contour>
      <point x="478" y="173" type="curve" smooth="yes"/>
      <point x="383" y="173"/>
      <point x="349" y="258"/>
      <point x="349" y="516" type="curve" smooth="yes"/>
      <point x="349" y="859" type="line" smooth="yes"/>
      <point x="349" y="1117"/>
      <point x="383" y="1205"/>
      <point x="478" y="1205" type="curve" smooth="yes"/>
      <point x="569" y="1205"/>
      <point x="599" y="1117"/>
      <point x="599" y="859" type="curve" smooth="yes"/>
      <point x="599" y="516" type="line" smooth="yes"/>
      <point x="599" y="258"/>
      <point x="569" y="173"/>
    </contour>
    <contour>
      <point x="474" y="500" type="move" name="top"/>
    </contour>
    <contour>
      <point x="474" y="-100" type="move" name="btm"/>
    </contour>
  </outline>
</glyph>
<glyph name="p" format="1">
  <advance width="985"/>
  <unicode hex="0070"/>
  <outline>
    <contour>
      <point x="373" y="91" type="line"/>
      <point x="418" y="33"/>
      <point x="487" y="-16"/>
      <point x="594" y="-16" type="curve" smooth="yes"/>
      <point x="687" y="-16"/>
      <point x="890" y="14"/>
      <point x="890" y="481" type="curve" smooth="yes"/>
      <point x="890" y="898" type="line"/>
      <point x="890" y="1366"/>
      <point x="688" y="1392"/>
      <point x="604" y="1392" type="curve" smooth="yes"/>
      <point x="473" y="1392"/>
      <point x="395" y="1308"/>
      <point x="349" y="1232" type="curve"/>
      <point x="326" y="1377" type="line"/>
      <point x="128" y="1377" type="line"/>
      <point x="128" y="-445" type="line"/>
      <point x="381" y="-445" type="line"/>
      <point x="381" y="-78" type="line"/>
    </contour>
    <contour>
      <point x="381" y="299" type="curve"/>
      <point x="381" y="1092" type="line"/>
      <point x="406" y="1143"/>
      <point x="446" y="1187"/>
      <point x="509" y="1187" type="curve" smooth="yes"/>
      <point x="583" y="1187"/>
      <point x="635" y="1142"/>
      <point x="635" y="937" type="curve" smooth="yes"/>
      <point x="635" y="449" type="line" smooth="yes"/>
      <point x="635" y="244"/>
      <point x="582" y="198"/>
      <point x="508" y="198" type="curve" smooth="yes"/>
      <point x="440" y="198"/>
      <point x="403" y="247"/>
    </contour>
    <contour>
      <point x="509" y="500" type="move" name="top"/>
    </contour>
    <contour>
      <point x="509" y="-100" type="move" name="btm"/>
    </contour>
  </outline>
</glyph>
<glyph name="q" format="1">
  <advance width="984"/>
  <unicode hex="0071"/>
  <outline>
    <contour>
      <point x="391" y="-16" type="curve" smooth="yes"/>
      <point x="497" y="-16"/>
      <point x="565" y="32"/>
      <point x="610" y="89" type="curve"/>
      <point x="603" y="-79" type="line"/>
      <point x="603" y="-446" type="line"/>
      <point x="855" y="-446" type="line"/>
      <point x="855" y="1377" type="line"/>
      <point x="658" y="1377" type="line"/>
      <point x="634" y="1234" type="line"/>
      <point x="589" y="1309"/>
      <point x="511" y="1392"/>
      <point x="381" y="1392" type="curve" smooth="yes"/>
      <point x="297" y="1392"/>
      <point x="95" y="1366"/>
      <point x="95" y="898" type="curve" smooth="yes"/>
      <point x="95" y="481" type="line"/>
      <point x="95" y="14"/>
      <point x="298" y="-16"/>
    </contour>
    <contour>
      <point x="477" y="190" type="curve" smooth="yes"/>
      <point x="403" y="190"/>
      <point x="349" y="236"/>
      <point x="349" y="441" type="curve" smooth="yes"/>
      <point x="349" y="936" type="line" smooth="yes"/>
      <point x="349" y="1142"/>
      <point x="402" y="1187"/>
      <point x="476" y="1187" type="curve" smooth="yes"/>
      <point x="536" y="1187"/>
      <point x="578" y="1141"/>
      <point x="603" y="1086" type="curve"/>
      <point x="603" y="289" type="line"/>
      <point x="581" y="238"/>
      <point x="543" y="190"/>
    </contour>
    <contour>
      <point x="475" y="500" type="move" name="top"/>
    </contour>
    <contour>
      <point x="475" y="-100" type="move" name="btm"/>
    </contour>
  </outline>
</glyph>
<glyph name="r" format="1">
  <advance width="782"/>
  <unicode hex="0072"/>
  <outline>
    <contour>
      <point x="129" y="0" type="line"/>
      <point x="382" y="0" type="line"/>
      <point x="382" y="1113" type="line"/>
      <point x="401" y="1159"/>
      <point x="428" y="1187"/>
      <point x="460" y="1187" type="curve" smooth="yes"/>
      <point x="509" y="1187"/>
      <point x="547" y="1156"/>
      <point x="547" y="1045" type="curve" smooth="yes"/>
      <point x="547" y="938" type="line"/>
      <point x="723" y="938" type="line"/>
      <point x="742" y="994"/>
      <point x="757" y="1079"/>
      <point x="757" y="1125" type="curve" smooth="yes"/>
      <point x="757" y="1303"/>
      <point x="689" y="1393"/>
      <point x="544" y="1393" type="curve" smooth="yes"/>
      <point x="468" y="1393"/>
      <point x="391" y="1341"/>
      <point x="336" y="1237" type="curve"/>
      <point x="314" y="1377" type="line"/>
      <point x="129" y="1377" type="line"/>
    </contour>
    <contour>
      <point x="406" y="500" type="move" name="top"/>
    </contour>
    <contour>
      <point x="250" y="-100" type="move" name="btm"/>
    </contour>
  </outline>
</glyph>
<glyph name="s" format="1">
  <advance width="810"/>
  <unicode hex="0073"/>
  <outline>
    <contour>
      <point x="65" y="288" type="curve" smooth="yes"/>
      <point x="65" y="61"/>
      <point x="213" y="-15"/>
      <point x="398" y="-15" type="curve" smooth="yes"/>
      <point x="623" y="-15"/>
      <point x="749" y="113"/>
      <point x="749" y="307" type="curve" smooth="yes"/>
      <point x="749" y="468"/>
      <point x="645" y="601"/>
      <point x="587" y="674" type="curve" smooth="yes"/>
      <point x="387" y="916" type="line" smooth="yes"/>
      <point x="336" y="980"/>
      <point x="301" y="1025"/>
      <point x="301" y="1089" type="curve" smooth="yes"/>
      <point x="301" y="1147"/>
      <point x="325" y="1205"/>
      <point x="403" y="1205" type="curve" smooth="yes"/>
      <point x="495" y="1205"/>
      <point x="531" y="1118"/>
      <point x="534" y="937" type="curve"/>
      <point x="709" y="937" type="line"/>
      <point x="720" y="980"/>
      <point x="734" y="1044"/>
      <point x="734" y="1107" type="curve" smooth="yes"/>
      <point x="734" y="1297"/>
      <point x="606" y="1393"/>
      <point x="407" y="1393" type="curve" smooth="yes"/>
      <point x="227" y="1393"/>
      <point x="69" y="1293"/>
      <point x="69" y="1079" type="curve" smooth="yes"/>
      <point x="69" y="919"/>
      <point x="158" y="790"/>
      <point x="254" y="669" type="curve" smooth="yes"/>
      <point x="431" y="451" type="line" smooth="yes"/>
      <point x="485" y="385"/>
      <point x="519" y="335"/>
      <point x="519" y="276" type="curve" smooth="yes"/>
      <point x="519" y="220"/>
      <point x="479" y="173"/>
      <point x="413" y="173" type="curve" smooth="yes"/>
      <point x="319" y="173"/>
      <point x="268" y="242"/>
      <point x="268" y="442" type="curve"/>
      <point x="90" y="442" type="line"/>
      <point x="79" y="409"/>
      <point x="65" y="348"/>
    </contour>
    <contour>
      <point x="407" y="500" type="move" name="top"/>
    </contour>
    <contour>
      <point x="407" y="-100" type="move" name="btm"/>
    </contour>
  </outline>
</glyph>
<glyph name="t" format="1">
  <advance width="661"/>
  <unicode hex="0074"/>
  <outline>
    <contour>
      <point x="149" y="343" type="line"/>
      <point x="149" y="44"/>
      <point x="280" y="-16"/>
      <point x="421" y="-16" type="curve" smooth="yes"/>
      <point x="492" y="-16"/>
      <point x="573" y="3"/>
      <point x="631" y="74" type="curve"/>
      <point x="631" y="234" type="line"/>
      <point x="597" y="213"/>
      <point x="560" y="203"/>
      <point x="511" y="203" type="curve" smooth="yes"/>
      <point x="452" y="203"/>
      <point x="402" y="221"/>
      <point x="402" y="341" type="curve" smooth="yes"/>
      <point x="402" y="1185" type="line"/>
      <point x="632" y="1185" type="line"/>
      <point x="632" y="1377" type="line"/>
      <point x="402" y="1377" type="line"/>
      <point x="402" y="1734" type="line"/>
      <point x="222" y="1734" type="line"/>
      <point x="171" y="1377" type="line"/>
      <point x="32" y="1377" type="line"/>
      <point x="32" y="1185" type="line"/>
      <point x="149" y="1185" type="line"/>
    </contour>
    <contour>
      <point x="288" y="500" type="move" name="top"/>
    </contour>
    <contour>
      <point x="357" y="-100" type="move" name="btm"/>
    </contour>
    <contour>
      <point x="447" y="600" type="move" name="car"/>
    </contour>
  </outline>
</glyph>
<glyph name="u" format="1">
  <advance width="1011"/>
  <unicode hex="0075"/>
  <outline>
    <contour>
      <point x="127" y="322" type="line"/>
      <point x="127" y="97"/>
      <point x="219" y="-16"/>
      <point x="379" y="-16" type="curve" smooth="yes"/>
      <point x="480" y="-16"/>
      <point x="584" y="22"/>
      <point x="663" y="147" type="curve"/>
      <point x="664" y="147" type="line"/>
      <point x="689" y="0" type="line"/>
      <point x="882" y="0" type="line"/>
      <point x="882" y="1377" type="line"/>
      <point x="629" y="1377" type="line"/>
      <point x="629" y="283" type="line"/>
      <point x="591" y="231"/>
      <point x="540" y="202"/>
      <point x="490" y="202" type="curve" smooth="yes"/>
      <point x="418" y="202"/>
      <point x="380" y="243"/>
      <point x="380" y="364" type="curve" smooth="yes"/>
      <point x="380" y="1377" type="line"/>
      <point x="127" y="1377" type="line"/>
    </contour>
    <contour>
      <point x="523" y="500" type="move" name="top"/>
    </contour>
    <contour>
      <point x="523" y="-100" type="move" name="btm"/>
    </contour>
  </outline>
</glyph>
<glyph name="v" format="1">
  <advance width="864"/>
  <unicode hex="0076"/>
  <outline>
    <contour>
      <point x="321" y="0" type="line"/>
      <point x="537" y="0" type="line"/>
      <point x="851" y="1377" type="line"/>
      <point x="607" y="1377" type="line"/>
      <point x="475" y="645" type="line"/>
      <point x="437" y="352" type="line"/>
      <point x="429" y="352" type="line"/>
      <point x="396" y="645" type="line"/>
      <point x="263" y="1377" type="line"/>
      <point x="11" y="1377" type="line"/>
    </contour>
    <contour>
      <point x="431" y="500" type="move" name="top"/>
    </contour>
    <contour>
      <point x="431" y="-100" type="move" name="btm"/>
    </contour>
  </outline>
</glyph>
<glyph name="w" format="1">
  <advance width="1328"/>
  <unicode hex="0077"/>
  <outline>
    <contour>
      <point x="257" y="0" type="line"/>
      <point x="500" y="0" type="line"/>
      <point x="630" y="766" type="line"/>
      <point x="659" y="977" type="line"/>
      <point x="659" y="977"/>
      <point x="667" y="977"/>
      <point x="667" y="977" type="curve"/>
      <point x="699" y="766" type="line"/>
      <point x="842" y="0" type="line"/>
      <point x="1075" y="0" type="line"/>
      <point x="1298" y="1377" type="line"/>
      <point x="1062" y="1377" type="line"/>
      <point x="975" y="631" type="line"/>
      <point x="958" y="352" type="line"/>
      <point x="950" y="352" type="line"/>
      <point x="913" y="631" type="line"/>
      <point x="777" y="1377" type="line"/>
      <point x="564" y="1377" type="line"/>
      <point x="432" y="631" type="line"/>
      <point x="402" y="352" type="line"/>
      <point x="394" y="352" type="line"/>
      <point x="370" y="631" type="line"/>
      <point x="271" y="1377" type="line"/>
      <point x="30" y="1377" type="line"/>
    </contour>
    <contour>
      <point x="664" y="500" type="move" name="top"/>
    </contour>
    <contour>
      <point x="664" y="-100" type="move" name="btm"/>
    </contour>
  </outline>
</glyph>
<glyph name="x" format="1">
  <advance width="892"/>
  <unicode hex="0078"/>
  <outline>
    <contour>
      <point x="20" y="0" type="line"/>
      <point x="263" y="0" type="line"/>
      <point x="435" y="475" type="line"/>
      <point x="443" y="475" type="line"/>
      <point x="613" y="0" type="line"/>
      <point x="872" y="0" type="line"/>
      <point x="579" y="723" type="line"/>
      <point x="840" y="1377" type="line"/>
      <point x="598" y="1377" type="line"/>
      <point x="442" y="926" type="line"/>
      <point x="440" y="926" type="line"/>
      <point x="293" y="1377" type="line"/>
      <point x="34" y="1377" type="line"/>
      <point x="306" y="699" type="line"/>
    </contour>
    <contour>
      <point x="446" y="500" type="move" name="top"/>
    </contour>
    <contour>
      <point x="446" y="-100" type="move" name="btm"/>
    </contour>
  </outline>
</glyph>
<glyph name="y" format="1">
  <advance width="888"/>
  <unicode hex="0079"/>
  <outline>
    <contour>
      <point x="80" y="-265" type="curve"/>
      <point x="79" y="-420" type="line"/>
      <point x="125" y="-437"/>
      <point x="170" y="-445"/>
      <point x="212" y="-445" type="curve" smooth="yes"/>
      <point x="426" y="-445"/>
      <point x="523" y="-315"/>
      <point x="574" y="-51" type="curve" smooth="yes"/>
      <point x="857" y="1377" type="line"/>
      <point x="613" y="1377" type="line"/>
      <point x="496" y="615" type="line"/>
      <point x="467" y="352" type="line"/>
      <point x="459" y="352" type="line"/>
      <point x="417" y="615" type="line"/>
      <point x="272" y="1377" type="line"/>
      <point x="20" y="1377" type="line"/>
      <point x="346" y="-8" type="line"/>
      <point x="338" y="-203"/>
      <point x="233" y="-287"/>
    </contour>
    <contour>
      <point x="438" y="500" type="move" name="top"/>
    </contour>
    <contour>
      <point x="438" y="-100" type="move" name="btm"/>
    </contour>
  </outline>
</glyph>
<glyph name="z" format="1">
  <advance width="687"/>
  <unicode hex="007A"/>
  <outline>
    <contour>
      <point x="14" y="0" type="line"/>
      <point x="673" y="0" type="line"/>
      <point x="673" y="192" type="line"/>
      <point x="252" y="192" type="line"/>
      <point x="266" y="142" type="line"/>
      <point x="666" y="1251" type="line"/>
      <point x="666" y="1377" type="line"/>
      <point x="34" y="1377" type="line"/>
      <point x="34" y="1185" type="line"/>
      <point x="440" y="1185" type="line"/>
      <point x="421" y="1256" type="line"/>
      <point x="14" y="126" type="line"/>
    </contour>
    <contour>
      <point x="343" y="500" type="move" name="top"/>
    </contour>
    <contour>
      <point x="343" y="-100" type="move" name="btm"/>
    </contour>
  </outline>
</glyph>
<glyph name="braceleft" format="1">
  <advance width="886"/>
  <unicode hex="007B"/>
  <outline>
    <contour>
      <point x="279" y="129" type="line"/>
      <point x="279" y="-148"/>
      <point x="430" y="-256"/>
      <point x="610" y="-256" type="curve" smooth="yes"/>
      <point x="653" y="-256"/>
      <point x="708" y="-246"/>
      <point x="760" y="-229" type="curve"/>
      <point x="760" y="-76" type="line"/>
      <point x="722" y="-76" type="line" smooth="yes"/>
      <point x="558" y="-76"/>
      <point x="503" y="-41"/>
      <point x="503" y="63" type="curve" smooth="yes"/>
      <point x="503" y="468" type="line" smooth="yes"/>
      <point x="503" y="663"/>
      <point x="464" y="786"/>
      <point x="341" y="843" type="curve"/>
      <point x="341" y="869" type="line"/>
      <point x="467" y="926"/>
      <point x="503" y="1049"/>
      <point x="503" y="1245" type="curve" smooth="yes"/>
      <point x="503" y="1646" type="line" smooth="yes"/>
      <point x="503" y="1750"/>
      <point x="558" y="1784"/>
      <point x="722" y="1784" type="curve" smooth="yes"/>
      <point x="760" y="1784" type="line"/>
      <point x="760" y="1938" type="line"/>
      <point x="708" y="1954"/>
      <point x="653" y="1964"/>
      <point x="610" y="1964" type="curve" smooth="yes"/>
      <point x="430" y="1964"/>
      <point x="278" y="1856"/>
      <point x="278" y="1580" type="curve" smooth="yes"/>
      <point x="278" y="1161" type="line" smooth="yes"/>
      <point x="278" y="1002"/>
      <point x="223" y="955"/>
      <point x="122" y="949" type="curve" smooth="yes"/>
      <point x="71" y="946" type="line"/>
      <point x="71" y="767" type="line"/>
      <point x="123" y="764" type="line" smooth="yes"/>
      <point x="224" y="758"/>
      <point x="279" y="711"/>
      <point x="279" y="551" type="curve" smooth="yes"/>
    </contour>
  </outline>
</glyph>
<glyph name="bar" format="1">
  <advance width="704"/>
  <unicode hex="007C"/>
  <outline>
    <contour>
      <point x="242" y="-326" type="line"/>
      <point x="462" y="-326" type="line"/>
      <point x="462" y="1884" type="line"/>
      <point x="242" y="1884" type="line"/>
    </contour>
  </outline>
</glyph>
<glyph name="braceright" format="1">
  <advance width="886"/>
  <unicode hex="007D"/>
  <outline>
    <contour>
      <point x="126" y="-76" type="line"/>
      <point x="126" y="-229" type="line"/>
      <point x="178" y="-246"/>
      <point x="232" y="-256"/>
      <point x="276" y="-256" type="curve" smooth="yes"/>
      <point x="456" y="-256"/>
      <point x="607" y="-148"/>
      <point x="607" y="129" type="curve" smooth="yes"/>
      <point x="607" y="551" type="line" smooth="yes"/>
      <point x="607" y="711"/>
      <point x="662" y="758"/>
      <point x="763" y="764" type="curve" smooth="yes"/>
      <point x="815" y="767" type="line"/>
      <point x="815" y="946" type="line"/>
      <point x="764" y="949" type="line" smooth="yes"/>
      <point x="663" y="955"/>
      <point x="608" y="1002"/>
      <point x="608" y="1161" type="curve" smooth="yes"/>
      <point x="608" y="1580" type="line" smooth="yes"/>
      <point x="608" y="1856"/>
      <point x="456" y="1964"/>
      <point x="276" y="1964" type="curve" smooth="yes"/>
      <point x="232" y="1964"/>
      <point x="178" y="1954"/>
      <point x="126" y="1938" type="curve"/>
      <point x="126" y="1784" type="line"/>
      <point x="164" y="1784" type="line" smooth="yes"/>
      <point x="328" y="1784"/>
      <point x="383" y="1750"/>
      <point x="383" y="1646" type="curve" smooth="yes"/>
      <point x="383" y="1245" type="line" smooth="yes"/>
      <point x="383" y="1049"/>
      <point x="419" y="926"/>
      <point x="544" y="869" type="curve"/>
      <point x="544" y="843" type="line"/>
      <point x="422" y="786"/>
      <point x="383" y="663"/>
      <point x="383" y="468" type="curve" smooth="yes"/>
      <point x="383" y="63" type="line" smooth="yes"/>
      <point x="383" y="-41"/>
      <point x="328" y="-76"/>
      <point x="164" y="-76" type="curve" smooth="yes"/>
    </contour>
  </outline>
</glyph>
<glyph name="asciitilde" format="1">
  <advance width="1294"/>
  <unicode hex="007E"/>
  <outline>
    <contour>
      <point x="125" y="450" type="curve"/>
      <point x="311" y="450" type="line"/>
      <point x="288" y="603"/>
      <point x="328" y="708"/>
      <point x="429" y="708" type="curve" smooth="yes"/>
      <point x="558" y="708"/>
      <point x="622" y="399"/>
      <point x="895" y="399" type="curve" smooth="yes"/>
      <point x="1064" y="399"/>
      <point x="1218" y="556"/>
      <point x="1159" y="869" type="curve"/>
      <point x="967" y="869" type="line"/>
      <point x="999" y="687"/>
      <point x="963" y="588"/>
      <point x="871" y="588" type="curve" smooth="yes"/>
      <point x="739" y="588"/>
      <point x="689" y="900"/>
      <point x="423" y="900" type="curve" smooth="yes"/>
      <point x="250" y="900"/>
      <point x="98" y="797"/>
    </contour>
  </outline>
</glyph>
<glyph name="cent" format="1">
  <advance width="889"/>
  <unicode hex="00A2"/>
  <outline>
    <contour>
      <point x="389" y="1286" type="line"/>
      <point x="575" y="1286" type="line"/>
      <point x="575" y="1623" type="line"/>
      <point x="389" y="1623" type="line"/>
    </contour>
    <contour>
      <point x="390" y="79" type="line"/>
      <point x="390" y="-258" type="line"/>
      <point x="576" y="-258" type="line"/>
      <point x="576" y="79" type="line"/>
    </contour>
    <component base="c" xOffset="13"/>
  </outline>
</glyph>
<glyph name="sterling" format="1">
  <advance width="996"/>
  <unicode hex="00A3"/>
  <outline>
    <contour>
      <point x="93" y="0" type="line"/>
      <point x="903" y="0" type="line"/>
      <point x="903" y="204" type="line"/>
      <point x="367" y="204" type="line"/>
      <point x="424" y="288"/>
      <point x="445" y="403"/>
      <point x="445" y="563" type="curve" smooth="yes"/>
      <point x="445" y="701" type="line"/>
      <point x="724" y="701" type="line"/>
      <point x="724" y="880" type="line"/>
      <point x="445" y="880" type="line"/>
      <point x="445" y="1224" type="line" smooth="yes"/>
      <point x="445" y="1455"/>
      <point x="486" y="1520"/>
      <point x="569" y="1520" type="curve" smooth="yes"/>
      <point x="648" y="1520"/>
      <point x="700" y="1443"/>
      <point x="700" y="1228" type="curve" smooth="yes"/>
      <point x="700" y="1157" type="line"/>
      <point x="901" y="1157" type="line"/>
      <point x="917" y="1231"/>
      <point x="927" y="1307"/>
      <point x="927" y="1371" type="curve" smooth="yes"/>
      <point x="927" y="1552"/>
      <point x="829" y="1723"/>
      <point x="576" y="1723" type="curve" smooth="yes"/>
      <point x="306" y="1723"/>
      <point x="190" y="1555"/>
      <point x="190" y="1224" type="curve" smooth="yes"/>
      <point x="190" y="880" type="line"/>
      <point x="61" y="880" type="line"/>
      <point x="61" y="701" type="line"/>
      <point x="190" y="701" type="line"/>
      <point x="190" y="591" type="line" smooth="yes"/>
      <point x="190" y="385"/>
      <point x="204" y="203"/>
      <point x="93" y="152" type="curve"/>
    </contour>
  </outline>
</glyph>
<glyph name="currency" format="1">
  <advance width="1277"/>
  <unicode hex="00A4"/>
  <outline>
    <contour>
      <point x="623" y="464" type="curve" smooth="yes"/>
      <point x="880" y="464"/>
      <point x="1005" y="668"/>
      <point x="1005" y="858" type="curve" smooth="yes"/>
      <point x="1005" y="1076"/>
      <point x="880" y="1265"/>
      <point x="623" y="1265" type="curve" smooth="yes"/>
      <point x="369" y="1265"/>
      <point x="256" y="1071"/>
      <point x="256" y="858" type="curve" smooth="yes"/>
      <point x="256" y="657"/>
      <point x="375" y="464"/>
    </contour>
    <contour>
      <point x="623" y="691" type="curve" smooth="yes"/>
      <point x="527" y="691"/>
      <point x="481" y="772"/>
      <point x="481" y="855" type="curve" smooth="yes"/>
      <point x="481" y="952"/>
      <point x="525" y="1039"/>
      <point x="623" y="1039" type="curve" smooth="yes"/>
      <point x="733" y="1039"/>
      <point x="787" y="954"/>
      <point x="787" y="855" type="curve" smooth="yes"/>
      <point x="787" y="776"/>
      <point x="733" y="691"/>
    </contour>
    <contour>
      <point x="433" y="933" type="line"/>
      <point x="558" y="1090" type="line"/>
      <point x="249" y="1375" type="line"/>
      <point x="111" y="1220" type="line"/>
    </contour>
    <contour>
      <point x="843" y="933" type="line"/>
      <point x="1166" y="1220" type="line"/>
      <point x="1027" y="1375" type="line"/>
      <point x="719" y="1090" type="line"/>
    </contour>
    <contour>
      <point x="249" y="358" type="line"/>
      <point x="558" y="643" type="line"/>
      <point x="433" y="800" type="line"/>
      <point x="111" y="513" type="line"/>
    </contour>
    <contour>
      <point x="719" y="643" type="line"/>
      <point x="1027" y="358" type="line"/>
      <point x="1166" y="513" type="line"/>
      <point x="843" y="800" type="line"/>
    </contour>
  </outline>
</glyph>
<glyph name="yen" format="1">
  <advance width="996"/>
  <unicode hex="00A5"/>
  <outline>
    <contour>
      <point x="368" y="0" type="line"/>
      <point x="626" y="0" type="line"/>
      <point x="626" y="727" type="line"/>
      <point x="963" y="1708" type="line"/>
      <point x="702" y="1708" type="line"/>
      <point x="504" y="992" type="line"/>
      <point x="492" y="992" type="line"/>
      <point x="294" y="1708" type="line"/>
      <point x="33" y="1708" type="line"/>
      <point x="368" y="727" type="line"/>
    </contour>
    <contour>
      <point x="132" y="547" type="line"/>
      <point x="861" y="547" type="line"/>
      <point x="861" y="727" type="line"/>
      <point x="132" y="727" type="line"/>
    </contour>
    <contour>
      <point x="132" y="217" type="line"/>
      <point x="861" y="217" type="line"/>
      <point x="861" y="396" type="line"/>
      <point x="132" y="396" type="line"/>
    </contour>
  </outline>
</glyph>
<glyph name="brokenbar" format="1">
  <advance width="704"/>
  <unicode hex="00A6"/>
  <outline>
    <contour>
      <point x="242" y="-326" type="line"/>
      <point x="462" y="-326" type="line"/>
      <point x="462" y="683" type="line"/>
      <point x="242" y="683" type="line"/>
    </contour>
    <contour>
      <point x="242" y="940" type="line"/>
      <point x="462" y="940" type="line"/>
      <point x="462" y="1884" type="line"/>
      <point x="242" y="1884" type="line"/>
    </contour>
  </outline>
</glyph>
<glyph name="section" format="1">
  <advance width="1052"/>
  <unicode hex="00A7"/>
  <outline>
    <contour>
      <point x="558" y="427" type="curve"/>
      <point x="664" y="302" type="line"/>
      <point x="818" y="360"/>
      <point x="921" y="492"/>
      <point x="921" y="666" type="curve" smooth="yes"/>
      <point x="921" y="831"/>
      <point x="850" y="929"/>
      <point x="721" y="1060" type="curve" smooth="yes"/>
      <point x="565" y="1221" type="line" smooth="yes"/>
      <point x="446" y="1341"/>
      <point x="401" y="1401"/>
      <point x="401" y="1482" type="curve" smooth="yes"/>
      <point x="401" y="1571"/>
      <point x="448" y="1642"/>
      <point x="538" y="1642" type="curve" smooth="yes"/>
      <point x="618" y="1642"/>
      <point x="685" y="1568"/>
      <point x="685" y="1406" type="curve" smooth="yes"/>
      <point x="685" y="1297" type="line"/>
      <point x="865" y="1297" type="line"/>
      <point x="883" y="1371"/>
      <point x="892" y="1429"/>
      <point x="892" y="1503" type="curve" smooth="yes"/>
      <point x="892" y="1657"/>
      <point x="792" y="1827"/>
      <point x="538" y="1827" type="curve" smooth="yes"/>
      <point x="302" y="1827"/>
      <point x="161" y="1684"/>
      <point x="161" y="1482" type="curve" smooth="yes"/>
      <point x="161" y="1311"/>
      <point x="237" y="1192"/>
      <point x="407" y="1026" type="curve" smooth="yes"/>
      <point x="564" y="873" type="line" smooth="yes"/>
      <point x="659" y="781"/>
      <point x="696" y="715"/>
      <point x="696" y="635" type="curve" smooth="yes"/>
      <point x="696" y="537"/>
      <point x="634" y="458"/>
    </contour>
    <contour>
      <point x="161" y="-45" type="curve" smooth="yes"/>
      <point x="161" y="-200"/>
      <point x="261" y="-369"/>
      <point x="514" y="-369" type="curve" smooth="yes"/>
      <point x="750" y="-369"/>
      <point x="892" y="-226"/>
      <point x="892" y="-25" type="curve" smooth="yes"/>
      <point x="892" y="146"/>
      <point x="815" y="265"/>
      <point x="645" y="431" type="curve" smooth="yes"/>
      <point x="489" y="584" type="line" smooth="yes"/>
      <point x="394" y="677"/>
      <point x="357" y="743"/>
      <point x="357" y="823" type="curve" smooth="yes"/>
      <point x="357" y="921"/>
      <point x="418" y="1000"/>
      <point x="495" y="1031" type="curve"/>
      <point x="389" y="1155" type="line"/>
      <point x="234" y="1097"/>
      <point x="131" y="966"/>
      <point x="131" y="791" type="curve" smooth="yes"/>
      <point x="131" y="626"/>
      <point x="202" y="529"/>
      <point x="331" y="397" type="curve" smooth="yes"/>
      <point x="488" y="237" type="line" smooth="yes"/>
      <point x="606" y="116"/>
      <point x="651" y="57"/>
      <point x="651" y="-25" type="curve" smooth="yes"/>
      <point x="651" y="-113"/>
      <point x="604" y="-184"/>
      <point x="514" y="-184" type="curve" smooth="yes"/>
      <point x="434" y="-184"/>
      <point x="368" y="-111"/>
      <point x="368" y="51" type="curve" smooth="yes"/>
      <point x="368" y="160" type="line"/>
      <point x="188" y="160" type="line"/>
      <point x="170" y="86"/>
      <point x="161" y="29"/>
    </contour>
  </outline>
</glyph>
<glyph name="dieresis" format="1">
  <advance width="780"/>
  <unicode hex="00A8"/>
  <outline>
    <contour>
      <point x="167" y="1560" type="curve" smooth="yes"/>
      <point x="276" y="1560"/>
      <point x="312" y="1622"/>
      <point x="312" y="1725" type="curve" smooth="yes"/>
      <point x="312" y="1842"/>
      <point x="276" y="1899"/>
      <point x="167" y="1899" type="curve" smooth="yes"/>
      <point x="61" y="1899"/>
      <point x="30" y="1839"/>
      <point x="30" y="1725" type="curve" smooth="yes"/>
      <point x="30" y="1618"/>
      <point x="63" y="1560"/>
    </contour>
    <contour>
      <point x="604" y="1560" type="curve" smooth="yes"/>
      <point x="713" y="1560"/>
      <point x="750" y="1622"/>
      <point x="750" y="1725" type="curve" smooth="yes"/>
      <point x="750" y="1842"/>
      <point x="713" y="1899"/>
      <point x="604" y="1899" type="curve" smooth="yes"/>
      <point x="498" y="1899"/>
      <point x="468" y="1839"/>
      <point x="468" y="1725" type="curve" smooth="yes"/>
      <point x="468" y="1618"/>
      <point x="500" y="1560"/>
    </contour>
  </outline>
</glyph>
<glyph name="copyright" format="1">
  <advance width="1448"/>
  <unicode hex="00A9"/>
  <outline>
    <contour>
      <point x="99" y="694" type="line"/>
      <point x="99" y="73"/>
      <point x="485" y="-15"/>
      <point x="725" y="-15" type="curve" smooth="yes"/>
      <point x="957" y="-15"/>
      <point x="1349" y="64"/>
      <point x="1349" y="694" type="curve" smooth="yes"/>
      <point x="1349" y="1030" type="line" smooth="yes"/>
      <point x="1349" y="1660"/>
      <point x="959" y="1740"/>
      <point x="727" y="1740" type="curve" smooth="yes"/>
      <point x="487" y="1740"/>
      <point x="99" y="1651"/>
      <point x="99" y="1030" type="curve" smooth="yes"/>
    </contour>
    <contour>
      <point x="255" y="670" type="curve" smooth="yes"/>
      <point x="255" y="1054" type="line" smooth="yes"/>
      <point x="255" y="1546"/>
      <point x="543" y="1604"/>
      <point x="727" y="1604" type="curve" smooth="yes"/>
      <point x="905" y="1604"/>
      <point x="1195" y="1553"/>
      <point x="1195" y="1054" type="curve" smooth="yes"/>
      <point x="1195" y="670" type="line"/>
      <point x="1193" y="171"/>
      <point x="903" y="120"/>
      <point x="725" y="120" type="curve" smooth="yes"/>
      <point x="541" y="120"/>
      <point x="255" y="178"/>
    </contour>
    <contour>
      <point x="751" y="292" type="curve" smooth="yes"/>
      <point x="933" y="293"/>
      <point x="1033" y="409"/>
      <point x="1033" y="622" type="curve" smooth="yes"/>
      <point x="1033" y="696" type="line"/>
      <point x="848" y="696" type="line"/>
      <point x="848" y="611" type="line" smooth="yes"/>
      <point x="848" y="505"/>
      <point x="807" y="459"/>
      <point x="751" y="459" type="curve" smooth="yes"/>
      <point x="671" y="459"/>
      <point x="632" y="508"/>
      <point x="632" y="673" type="curve" smooth="yes"/>
      <point x="632" y="1040" type="line" smooth="yes"/>
      <point x="632" y="1211"/>
      <point x="672" y="1263"/>
      <point x="745" y="1263" type="curve" smooth="yes"/>
      <point x="811" y="1263"/>
      <point x="847" y="1199"/>
      <point x="847" y="1076" type="curve" smooth="yes"/>
      <point x="847" y="1020" type="line"/>
      <point x="1011" y="1020" type="line"/>
      <point x="1022" y="1078"/>
      <point x="1029" y="1122"/>
      <point x="1029" y="1179" type="curve" smooth="yes"/>
      <point x="1029" y="1292"/>
      <point x="961" y="1430"/>
      <point x="750" y="1430" type="curve" smooth="yes"/>
      <point x="628" y="1430"/>
      <point x="416" y="1393"/>
      <point x="416" y="993" type="curve" smooth="yes"/>
      <point x="416" y="736" type="line" smooth="yes"/>
      <point x="416" y="337"/>
      <point x="623" y="292"/>
    </contour>
  </outline>
</glyph>
<glyph name="ordfeminine" format="1">
  <advance width="826"/>
  <unicode hex="00AA"/>
  <outline>
    <contour>
      <point x="395" y="814" type="curve" smooth="yes"/>
      <point x="323" y="814"/>
      <point x="282" y="869"/>
      <point x="282" y="949" type="curve" smooth="yes"/>
      <point x="282" y="1056"/>
      <point x="366" y="1125"/>
      <point x="428" y="1150" type="curve" smooth="yes"/>
      <point x="462" y="1165"/>
      <point x="471" y="1167"/>
      <point x="494" y="1175" type="curve"/>
      <point x="494" y="852" type="line"/>
      <point x="469" y="831"/>
      <point x="436" y="814"/>
    </contour>
    <contour>
      <point x="404" y="1761" type="curve" smooth="yes"/>
      <point x="178" y="1761"/>
      <point x="85" y="1636"/>
      <point x="85" y="1514" type="curve" smooth="yes"/>
      <point x="85" y="1476"/>
      <point x="88" y="1443"/>
      <point x="99" y="1392" type="curve"/>
      <point x="281" y="1392" type="line"/>
      <point x="281" y="1438" type="line" smooth="yes"/>
      <point x="281" y="1557"/>
      <point x="331" y="1597"/>
      <point x="403" y="1597" type="curve" smooth="yes"/>
      <point x="473" y="1597"/>
      <point x="494" y="1551"/>
      <point x="494" y="1479" type="curve" smooth="yes"/>
      <point x="494" y="1320" type="line"/>
      <point x="451" y="1308"/>
      <point x="403" y="1287"/>
      <point x="378" y="1276" type="curve" smooth="yes"/>
      <point x="259" y="1227"/>
      <point x="64" y="1126"/>
      <point x="64" y="905" type="curve" smooth="yes"/>
      <point x="64" y="777"/>
      <point x="131" y="649"/>
      <point x="304" y="649" type="curve" smooth="yes"/>
      <point x="392" y="649"/>
      <point x="485" y="692"/>
      <point x="533" y="740" type="curve"/>
      <point x="550" y="668" type="line"/>
      <point x="722" y="668" type="line"/>
      <point x="722" y="1472" type="line" smooth="yes"/>
      <point x="722" y="1615"/>
      <point x="673" y="1761"/>
    </contour>
  </outline>
</glyph>
<glyph name="logicalnot" format="1">
  <advance width="981"/>
  <unicode hex="00AC"/>
  <outline>
    <contour>
      <point x="40" y="692" type="line"/>
      <point x="702" y="692" type="line"/>
      <point x="702" y="368" type="line"/>
      <point x="900" y="368" type="line"/>
      <point x="900" y="887" type="line"/>
      <point x="40" y="887" type="line"/>
    </contour>
  </outline>
</glyph>
<glyph name="uni00AD" format="1">
  <advance width="987"/>
  <unicode hex="00AD"/>
  <outline>
    <contour>
      <point x="121" y="685" type="line"/>
      <point x="866" y="685" type="line"/>
      <point x="866" y="888" type="line"/>
      <point x="121" y="888" type="line"/>
    </contour>
  </outline>
</glyph>
<glyph name="registered" format="1">
  <advance width="1469"/>
  <unicode hex="00AE"/>
  <outline>
    <contour>
      <point x="735" y="184" type="curve" smooth="yes"/>
      <point x="954" y="184"/>
      <point x="1370" y="264"/>
      <point x="1370" y="879" type="curve" smooth="yes"/>
      <point x="1370" y="1045" type="line"/>
      <point x="1370" y="1660"/>
      <point x="956" y="1740"/>
      <point x="737" y="1740" type="curve" smooth="yes"/>
      <point x="509" y="1740"/>
      <point x="99" y="1651"/>
      <point x="99" y="1045" type="curve" smooth="yes"/>
      <point x="99" y="879" type="line" smooth="yes"/>
      <point x="99" y="274"/>
      <point x="507" y="184"/>
    </contour>
    <contour>
      <point x="735" y="330" type="curve" smooth="yes"/>
      <point x="539" y="330"/>
      <point x="255" y="396"/>
      <point x="255" y="871" type="curve" smooth="yes"/>
      <point x="255" y="1053" type="line" smooth="yes"/>
      <point x="255" y="1528"/>
      <point x="541" y="1594"/>
      <point x="737" y="1594" type="curve" smooth="yes"/>
      <point x="927" y="1594"/>
      <point x="1215" y="1536"/>
      <point x="1215" y="1053" type="curve" smooth="yes"/>
      <point x="1215" y="871" type="line"/>
      <point x="1213" y="389"/>
      <point x="925" y="330"/>
    </contour>
    <contour>
      <point x="473" y="562" type="line"/>
      <point x="656" y="562" type="line"/>
      <point x="656" y="842" type="line"/>
      <point x="762" y="842" type="line"/>
      <point x="724" y="901" type="line"/>
      <point x="879" y="562" type="line"/>
      <point x="1086" y="562" type="line"/>
      <point x="870" y="946" type="line"/>
      <point x="811" y="871" type="line"/>
      <point x="950" y="885"/>
      <point x="1028" y="976"/>
      <point x="1028" y="1105" type="curve" smooth="yes"/>
      <point x="1028" y="1135" type="line"/>
      <point x="1028" y="1375"/>
      <point x="807" y="1387"/>
      <point x="656" y="1387" type="curve" smooth="yes"/>
      <point x="473" y="1387" type="line"/>
    </contour>
    <contour>
      <point x="656" y="968" type="line"/>
      <point x="656" y="1261" type="line"/>
      <point x="687" y="1261" type="line"/>
      <point x="795" y="1261"/>
      <point x="828" y="1216"/>
      <point x="828" y="1144" type="curve" smooth="yes"/>
      <point x="828" y="1102" type="line" smooth="yes"/>
      <point x="828" y="1010"/>
      <point x="791" y="968"/>
      <point x="687" y="968" type="curve" smooth="yes"/>
    </contour>
  </outline>
</glyph>
<glyph name="macron" format="1">
  <advance width="683"/>
  <unicode hex="00AF"/>
  <outline>
    <contour>
      <point x="30" y="1633" type="line"/>
      <point x="653" y="1633" type="line"/>
      <point x="653" y="1826" type="line"/>
      <point x="30" y="1826" type="line"/>
    </contour>
  </outline>
</glyph>
<glyph name="degree" format="1">
  <advance width="879"/>
  <unicode hex="00B0"/>
  <outline>
    <contour>
      <point x="434" y="1072" type="curve" smooth="yes"/>
      <point x="664" y="1072"/>
      <point x="778" y="1256"/>
      <point x="778" y="1428" type="curve" smooth="yes"/>
      <point x="778" y="1621"/>
      <point x="664" y="1795"/>
      <point x="434" y="1795" type="curve" smooth="yes"/>
      <point x="204" y="1795"/>
      <point x="101" y="1618"/>
      <point x="101" y="1428" type="curve" smooth="yes"/>
      <point x="101" y="1247"/>
      <point x="209" y="1072"/>
    </contour>
    <contour>
      <point x="431" y="1265" type="curve" smooth="yes"/>
      <point x="343" y="1265"/>
      <point x="301" y="1343"/>
      <point x="301" y="1425" type="curve" smooth="yes"/>
      <point x="301" y="1517"/>
      <point x="341" y="1602"/>
      <point x="431" y="1602" type="curve" smooth="yes"/>
      <point x="530" y="1602"/>
      <point x="578" y="1518"/>
      <point x="578" y="1425" type="curve" smooth="yes"/>
      <point x="578" y="1347"/>
      <point x="530" y="1265"/>
    </contour>
  </outline>
</glyph>
<glyph name="plusminus" format="1">
  <advance width="906"/>
  <unicode hex="00B1"/>
  <outline>
    <contour>
      <point x="352" y="537" type="line"/>
      <point x="551" y="537" type="line"/>
      <point x="551" y="860" type="line"/>
      <point x="825" y="860" type="line"/>
      <point x="825" y="1055" type="line"/>
      <point x="551" y="1055" type="line"/>
      <point x="551" y="1369" type="line"/>
      <point x="352" y="1369" type="line"/>
      <point x="352" y="1055" type="line"/>
      <point x="81" y="1055" type="line"/>
      <point x="81" y="860" type="line"/>
      <point x="352" y="860" type="line"/>
    </contour>
    <contour>
      <point x="81" y="169" type="line"/>
      <point x="825" y="169" type="line"/>
      <point x="825" y="364" type="line"/>
      <point x="81" y="364" type="line"/>
    </contour>
  </outline>
</glyph>
<glyph name="twosuperior" format="1">
  <advance width="854"/>
  <unicode hex="00B2"/>
  <outline>
    <contour>
      <point x="111" y="677" type="line"/>
      <point x="733" y="677" type="line"/>
      <point x="733" y="850" type="line"/>
      <point x="389" y="850" type="line"/>
      <point x="587" y="1134" type="line" smooth="yes"/>
      <point x="702" y="1297"/>
      <point x="732" y="1386"/>
      <point x="732" y="1488" type="curve" smooth="yes"/>
      <point x="732" y="1721"/>
      <point x="545" y="1761"/>
      <point x="413" y="1761" type="curve" smooth="yes"/>
      <point x="217" y="1761"/>
      <point x="104" y="1656"/>
      <point x="104" y="1504" type="curve" smooth="yes"/>
      <point x="104" y="1466"/>
      <point x="109" y="1444"/>
      <point x="118" y="1392" type="curve"/>
      <point x="302" y="1392" type="line"/>
      <point x="302" y="1445" type="line" smooth="yes"/>
      <point x="302" y="1544"/>
      <point x="343" y="1596"/>
      <point x="402" y="1596" type="curve" smooth="yes"/>
      <point x="462" y="1596"/>
      <point x="493" y="1563"/>
      <point x="493" y="1488" type="curve" smooth="yes"/>
      <point x="493" y="1422"/>
      <point x="482" y="1345"/>
      <point x="377" y="1193" type="curve"/>
      <point x="111" y="795" type="line"/>
    </contour>
  </outline>
</glyph>
<glyph name="threesuperior" format="1">
  <advance width="851"/>
  <unicode hex="00B3"/>
  <outline>
    <contour>
      <point x="396" y="666" type="curve" smooth="yes"/>
      <point x="170" y="666"/>
      <point x="81" y="791"/>
      <point x="81" y="913" type="curve" smooth="yes"/>
      <point x="81" y="954"/>
      <point x="85" y="990"/>
      <point x="95" y="1046" type="curve"/>
      <point x="281" y="1046" type="line"/>
      <point x="281" y="1000" type="line" smooth="yes"/>
      <point x="281" y="873"/>
      <point x="331" y="830"/>
      <point x="396" y="830" type="curve" smooth="yes"/>
      <point x="478" y="830"/>
      <point x="508" y="880"/>
      <point x="508" y="946" type="curve" smooth="yes"/>
      <point x="508" y="1019" type="line" smooth="yes"/>
      <point x="508" y="1118"/>
      <point x="457" y="1158"/>
      <point x="392" y="1158" type="curve" smooth="yes"/>
      <point x="312" y="1158" type="line"/>
      <point x="312" y="1293" type="line"/>
      <point x="392" y="1293" type="line" smooth="yes"/>
      <point x="450" y="1293"/>
      <point x="498" y="1327"/>
      <point x="498" y="1418" type="curve" smooth="yes"/>
      <point x="498" y="1489" type="line" smooth="yes"/>
      <point x="498" y="1551"/>
      <point x="470" y="1597"/>
      <point x="396" y="1597" type="curve" smooth="yes"/>
      <point x="337" y="1597"/>
      <point x="291" y="1557"/>
      <point x="291" y="1438" type="curve" smooth="yes"/>
      <point x="291" y="1392" type="line"/>
      <point x="109" y="1392" type="line"/>
      <point x="98" y="1443"/>
      <point x="95" y="1476"/>
      <point x="95" y="1514" type="curve" smooth="yes"/>
      <point x="95" y="1636"/>
      <point x="185" y="1761"/>
      <point x="404" y="1761" type="curve" smooth="yes"/>
      <point x="544" y="1761"/>
      <point x="720" y="1715"/>
      <point x="720" y="1500" type="curve" smooth="yes"/>
      <point x="720" y="1437" type="line" smooth="yes"/>
      <point x="710" y="1344"/>
      <point x="674" y="1267"/>
      <point x="588" y="1230" type="curve"/>
      <point x="588" y="1222" type="line"/>
      <point x="678" y="1185"/>
      <point x="730" y="1105"/>
      <point x="730" y="1011" type="curve" smooth="yes"/>
      <point x="730" y="946" type="line" smooth="yes"/>
      <point x="730" y="714"/>
      <point x="540" y="666"/>
    </contour>
  </outline>
</glyph>
<glyph name="acute" format="1">
  <advance width="519"/>
  <unicode hex="00B4"/>
  <outline>
    <contour>
      <point x="155" y="1462" type="line"/>
      <point x="489" y="1846" type="line"/>
      <point x="320" y="1983" type="line"/>
      <point x="30" y="1567" type="line"/>
    </contour>
  </outline>
</glyph>
<glyph name="mu" format="1">
  <advance width="1026"/>
  <unicode hex="00B5"/>
  <outline>
    <contour>
      <point x="117" y="-328" type="line"/>
      <point x="358" y="-328" type="line"/>
      <point x="351" y="44" type="line"/>
      <point x="359" y="43" type="line"/>
      <point x="401" y="-7"/>
      <point x="440" y="-16"/>
      <point x="485" y="-16" type="curve" smooth="yes"/>
      <point x="553" y="-16"/>
      <point x="630" y="35"/>
      <point x="670" y="96" type="curve"/>
      <point x="687" y="0" type="line"/>
      <point x="893" y="0" type="line"/>
      <point x="893" y="1377" type="line"/>
      <point x="627" y="1377" type="line"/>
      <point x="627" y="256" type="line"/>
      <point x="585" y="206"/>
      <point x="541" y="193"/>
      <point x="495" y="193" type="curve" smooth="yes"/>
      <point x="416" y="193"/>
      <point x="378" y="234"/>
      <point x="378" y="356" type="curve" smooth="yes"/>
      <point x="378" y="1377" type="line"/>
      <point x="116" y="1377" type="line"/>
    </contour>
  </outline>
</glyph>
<glyph name="paragraph" format="1">
  <advance width="1091"/>
  <unicode hex="00B6"/>
  <outline>
    <contour>
      <point x="476" y="520" type="curve"/>
      <point x="507" y="520" type="line"/>
      <point x="507" y="1708" type="line"/>
      <point x="476" y="1708" type="line" smooth="yes"/>
      <point x="341" y="1708"/>
      <point x="94" y="1682"/>
      <point x="94" y="1179" type="curve" smooth="yes"/>
      <point x="94" y="1119" type="line"/>
      <point x="94" y="546"/>
      <point x="341" y="520"/>
    </contour>
    <contour>
      <point x="678" y="0" type="line"/>
      <point x="936" y="0" type="line"/>
      <point x="936" y="1708" type="line"/>
      <point x="678" y="1708" type="line"/>
    </contour>
  </outline>
</glyph>
<glyph name="cedilla" format="1">
  <advance width="437"/>
  <unicode hex="00B8"/>
  <outline>
    <contour>
      <point x="227" y="13" type="line"/>
      <point x="224" y="-56" type="line" smooth="yes"/>
      <point x="217" y="-211"/>
      <point x="160" y="-239"/>
      <point x="70" y="-239" type="curve" smooth="yes"/>
      <point x="59" y="-239"/>
      <point x="48" y="-239"/>
      <point x="37" y="-238" type="curve"/>
      <point x="30" y="-389" type="line"/>
      <point x="85" y="-410"/>
      <point x="126" y="-419"/>
      <point x="181" y="-419" type="curve" smooth="yes"/>
      <point x="244" y="-419"/>
      <point x="422" y="-389"/>
      <point x="405" y="-104" type="curve" smooth="yes"/>
      <point x="398" y="13" type="line"/>
    </contour>
  </outline>
</glyph>
<glyph name="onesuperior" format="1">
  <advance width="760"/>
  <unicode hex="00B9"/>
  <outline>
    <contour>
      <point x="155" y="677" type="line"/>
      <point x="638" y="677" type="line"/>
      <point x="638" y="839" type="line"/>
      <point x="504" y="839" type="line"/>
      <point x="504" y="1726" type="line"/>
      <point x="326" y="1726" type="line"/>
      <point x="61" y="1470" type="line"/>
      <point x="149" y="1338" type="line"/>
      <point x="282" y="1450" type="line"/>
      <point x="282" y="839" type="line"/>
      <point x="155" y="839" type="line"/>
    </contour>
  </outline>
</glyph>
<glyph name="ordmasculine" format="1">
  <advance width="909"/>
  <unicode hex="00BA"/>
  <outline>
    <contour>
      <point x="122" y="1389" type="line" smooth="yes"/>
      <point x="122" y="1691"/>
      <point x="320" y="1761"/>
      <point x="466" y="1761" type="curve" smooth="yes"/>
      <point x="611" y="1761"/>
      <point x="809" y="1690"/>
      <point x="809" y="1387" type="curve" smooth="yes"/>
      <point x="809" y="1040" type="line" smooth="yes"/>
      <point x="809" y="737"/>
      <point x="611" y="666"/>
      <point x="466" y="666" type="curve" smooth="yes"/>
      <point x="320" y="666"/>
      <point x="122" y="736"/>
      <point x="122" y="1039" type="curve" smooth="yes"/>
    </contour>
    <contour>
      <point x="343" y="1040" type="line"/>
      <point x="343" y="898"/>
      <point x="371" y="830"/>
      <point x="466" y="830" type="curve" smooth="yes"/>
      <point x="561" y="830"/>
      <point x="588" y="899"/>
      <point x="588" y="1039" type="curve" smooth="yes"/>
      <point x="588" y="1387" type="line" smooth="yes"/>
      <point x="588" y="1528"/>
      <point x="561" y="1597"/>
      <point x="466" y="1597" type="curve" smooth="yes"/>
      <point x="371" y="1597"/>
      <point x="343" y="1529"/>
      <point x="343" y="1389" type="curve" smooth="yes"/>
    </contour>
  </outline>
</glyph>
<glyph name="onequarter" format="1">
  <advance width="1815"/>
  <unicode hex="00BC"/>
  <outline>
    <contour>
      <point x="997" y="185" type="line"/>
      <point x="1405" y="185" type="line"/>
      <point x="1405" y="1" type="line"/>
      <point x="1627" y="1" type="line"/>
      <point x="1627" y="185" type="line"/>
      <point x="1714" y="185" type="line"/>
      <point x="1714" y="339" type="line"/>
      <point x="1627" y="339" type="line"/>
      <point x="1627" y="1069" type="line"/>
      <point x="1370" y="1069" type="line"/>
      <point x="997" y="281" type="line"/>
    </contour>
    <contour>
      <point x="1218" y="339" type="line"/>
      <point x="1419" y="796" type="line"/>
      <point x="1431" y="796" type="line"/>
      <point x="1405" y="376" type="line"/>
      <point x="1405" y="339" type="line"/>
    </contour>
    <component base="fraction" xOffset="684"/>
    <component base="onesuperior" xOffset="41"/>
  </outline>
</glyph>
<glyph name="threequarters" format="1">
  <advance width="1859"/>
  <unicode hex="00BE"/>
  <outline>
    <contour>
      <point x="1041" y="185" type="line"/>
      <point x="1449" y="185" type="line"/>
      <point x="1449" y="1" type="line"/>
      <point x="1672" y="1" type="line"/>
      <point x="1672" y="185" type="line"/>
      <point x="1758" y="185" type="line"/>
      <point x="1758" y="339" type="line"/>
      <point x="1672" y="339" type="line"/>
      <point x="1672" y="1069" type="line"/>
      <point x="1414" y="1069" type="line"/>
      <point x="1041" y="281" type="line"/>
    </contour>
    <contour>
      <point x="1262" y="339" type="line"/>
      <point x="1463" y="796" type="line"/>
      <point x="1476" y="796" type="line"/>
      <point x="1449" y="376" type="line"/>
      <point x="1449" y="339" type="line"/>
    </contour>
    <component base="fraction" xOffset="726"/>
    <component base="threesuperior" xOffset="30"/>
  </outline>
</glyph>
<glyph name="Aring" format="1">
  <advance width="957"/>
  <unicode hex="00C5"/>
  <outline>
    <contour>
      <point x="14" y="0" type="line"/>
      <point x="275" y="0" type="line"/>
      <point x="320" y="306" type="line"/>
      <point x="636" y="306" type="line"/>
      <point x="683" y="0" type="line"/>
      <point x="943" y="0" type="line"/>
      <point x="624" y="1708" type="line"/>
      <point x="570" y="1607" type="line"/>
      <point x="370" y="1607" type="line"/>
      <point x="332" y="1708" type="line"/>
    </contour>
    <contour>
      <point x="350" y="501" type="line"/>
      <point x="473" y="1356" type="line"/>
      <point x="484" y="1356" type="line"/>
      <point x="606" y="501" type="line"/>
    </contour>
    <contour>
      <point x="478" y="1643" type="curve" smooth="yes"/>
      <point x="384" y="1643"/>
      <point x="339" y="1707"/>
      <point x="339" y="1772" type="curve" smooth="yes"/>
      <point x="339" y="1846"/>
      <point x="382" y="1903"/>
      <point x="478" y="1903" type="curve" smooth="yes"/>
      <point x="584" y="1903"/>
      <point x="636" y="1847"/>
      <point x="636" y="1772" type="curve" smooth="yes"/>
      <point x="636" y="1710"/>
      <point x="584" y="1643"/>
    </contour>
    <contour>
      <point x="479" y="1480" type="curve" smooth="yes"/>
      <point x="697" y="1480"/>
      <point x="803" y="1633"/>
      <point x="803" y="1776" type="curve" smooth="yes"/>
      <point x="803" y="1935"/>
      <point x="697" y="2065"/>
      <point x="479" y="2065" type="curve" smooth="yes"/>
      <point x="262" y="2065"/>
      <point x="165" y="1931"/>
      <point x="165" y="1776" type="curve" smooth="yes"/>
      <point x="165" y="1625"/>
      <point x="266" y="1480"/>
    </contour>
  </outline>
</glyph>
<glyph name="AE" format="1">
  <advance width="1256"/>
  <unicode hex="00C6"/>
  <outline>
    <contour>
      <point x="6" y="0" type="line"/>
      <point x="267" y="0" type="line"/>
      <point x="330" y="306" type="line"/>
      <point x="585" y="306" type="line"/>
      <point x="585" y="0" type="line"/>
      <point x="1235" y="0" type="line"/>
      <point x="1235" y="205" type="line"/>
      <point x="841" y="205" type="line"/>
      <point x="841" y="771" type="line"/>
      <point x="1148" y="771" type="line"/>
      <point x="1148" y="995" type="line"/>
      <point x="841" y="995" type="line"/>
      <point x="841" y="1503" type="line"/>
      <point x="1235" y="1503" type="line"/>
      <point x="1235" y="1708" type="line"/>
      <point x="438" y="1708" type="line"/>
    </contour>
    <contour>
      <point x="369" y="492" type="line"/>
      <point x="548" y="1356" type="line"/>
      <point x="585" y="1356" type="line"/>
      <point x="585" y="492" type="line"/>
    </contour>
    <contour>
      <point x="620" y="500" type="move" name="top"/>
    </contour>
    <contour>
      <point x="620" y="-100" type="move" name="btm"/>
    </contour>
  </outline>
</glyph>
<glyph name="Eth" format="1">
  <advance width="1027"/>
  <unicode hex="00D0"/>
  <outline>
    <contour>
      <point x="123" y="0" type="line"/>
      <point x="401" y="0" type="line" smooth="yes"/>
      <point x="594" y="0"/>
      <point x="936" y="28"/>
      <point x="936" y="606" type="curve" smooth="yes"/>
      <point x="936" y="1129" type="line" smooth="yes"/>
      <point x="936" y="1696"/>
      <point x="594" y="1725"/>
      <point x="401" y="1725" type="curve" smooth="yes"/>
      <point x="123" y="1725" type="line"/>
      <point x="123" y="1019" type="line"/>
      <point x="38" y="1019" type="line"/>
      <point x="38" y="817" type="line"/>
      <point x="123" y="817" type="line"/>
    </contour>
    <contour>
      <point x="375" y="179" type="line"/>
      <point x="375" y="817" type="line"/>
      <point x="540" y="817" type="line"/>
      <point x="540" y="1019" type="line"/>
      <point x="375" y="1019" type="line"/>
      <point x="375" y="1546" type="line"/>
      <point x="413" y="1546" type="line"/>
      <point x="606" y="1546"/>
      <point x="667" y="1420"/>
      <point x="667" y="1176" type="curve" smooth="yes"/>
      <point x="667" y="557" type="line" smooth="yes"/>
      <point x="667" y="297"/>
      <point x="598" y="179"/>
      <point x="413" y="179" type="curve" smooth="yes"/>
    </contour>
  </outline>
</glyph>
<glyph name="multiply" format="1">
  <advance width="850"/>
  <unicode hex="00D7"/>
  <outline>
    <contour>
      <point x="660" y="419" type="line"/>
      <point x="790" y="551" type="line"/>
      <point x="191" y="1161" type="line"/>
      <point x="61" y="1029" type="line"/>
    </contour>
    <contour>
      <point x="191" y="419" type="line"/>
      <point x="790" y="1029" type="line"/>
      <point x="660" y="1161" type="line"/>
      <point x="61" y="551" type="line"/>
    </contour>
  </outline>
</glyph>
<glyph name="Oslash" format="1">
  <advance width="1029"/>
  <unicode hex="00D8"/>
  <outline>
    <contour>
      <point x="169" y="-171" type="line"/>
      <point x="294" y="-171" type="line"/>
      <point x="345" y="19" type="line"/>
      <point x="404" y="-8"/>
      <point x="465" y="-15"/>
      <point x="517" y="-15" type="curve" smooth="yes"/>
      <point x="666" y="-15"/>
      <point x="933" y="67"/>
      <point x="933" y="606" type="curve" smooth="yes"/>
      <point x="933" y="1129" type="line" smooth="yes"/>
      <point x="933" y="1400"/>
      <point x="871" y="1551"/>
      <point x="789" y="1636" type="curve"/>
      <point x="855" y="1878" type="line"/>
      <point x="730" y="1878" type="line"/>
      <point x="684" y="1709" type="line"/>
      <point x="625" y="1734"/>
      <point x="566" y="1740"/>
      <point x="517" y="1740" type="curve" smooth="yes"/>
      <point x="357" y="1740"/>
      <point x="96" y="1676"/>
      <point x="96" y="1129" type="curve" smooth="yes"/>
      <point x="96" y="606" type="line" smooth="yes"/>
      <point x="96" y="335"/>
      <point x="158" y="181"/>
      <point x="240" y="94" type="curve"/>
    </contour>
    <contour>
      <point x="365" y="544" type="line"/>
      <point x="365" y="1236" type="line"/>
      <point x="365" y="1458"/>
      <point x="412" y="1543"/>
      <point x="517" y="1543" type="curve" smooth="yes"/>
      <point x="564" y="1543"/>
      <point x="598" y="1525"/>
      <point x="622" y="1485" type="curve"/>
    </contour>
    <contour>
      <point x="408" y="244" type="curve"/>
      <point x="666" y="1185" type="line"/>
      <point x="666" y="482" type="line" smooth="yes"/>
      <point x="666" y="268"/>
      <point x="619" y="188"/>
      <point x="517" y="188" type="curve" smooth="yes"/>
      <point x="469" y="188"/>
      <point x="432" y="205"/>
    </contour>
    <contour>
      <point x="514" y="500" type="move" name="top"/>
    </contour>
    <contour>
      <point x="514" y="-100" type="move" name="btm"/>
    </contour>
  </outline>
</glyph>
<glyph name="Udieresis" format="1">
  <advance width="1095"/>
  <unicode hex="00DC"/>
  <outline>
    <contour>
      <point x="324" y="2082" type="curve" smooth="yes"/>
      <point x="433" y="2082"/>
      <point x="469" y="2139"/>
      <point x="469" y="2235" type="curve" smooth="yes"/>
      <point x="469" y="2345"/>
      <point x="433" y="2397"/>
      <point x="324" y="2397" type="curve" smooth="yes"/>
      <point x="218" y="2397"/>
      <point x="187" y="2342"/>
      <point x="187" y="2235" type="curve" smooth="yes"/>
      <point x="187" y="2135"/>
      <point x="220" y="2082"/>
    </contour>
    <contour>
      <point x="761" y="2082" type="curve" smooth="yes"/>
      <point x="870" y="2082"/>
      <point x="907" y="2139"/>
      <point x="907" y="2235" type="curve" smooth="yes"/>
      <point x="907" y="2345"/>
      <point x="870" y="2397"/>
      <point x="761" y="2397" type="curve" smooth="yes"/>
      <point x="655" y="2397"/>
      <point x="625" y="2342"/>
      <point x="625" y="2235" type="curve" smooth="yes"/>
      <point x="625" y="2135"/>
      <point x="657" y="2082"/>
    </contour>
    <component base="U"/>
  </outline>
</glyph>
<glyph name="Thorn" format="1">
  <advance width="995"/>
  <unicode hex="00DE"/>
  <outline>
    <contour>
      <point x="141" y="0" type="line"/>
      <point x="400" y="0" type="line"/>
      <point x="400" y="264" type="line"/>
      <point x="425" y="264" type="line"/>
      <point x="624" y="264"/>
      <point x="927" y="317"/>
      <point x="927" y="864" type="curve" smooth="yes"/>
      <point x="927" y="925" type="line"/>
      <point x="927" y="1428"/>
      <point x="602" y="1453"/>
      <point x="409" y="1453" type="curve" smooth="yes"/>
      <point x="398" y="1453" type="line"/>
      <point x="398" y="1708" type="line"/>
      <point x="141" y="1708" type="line"/>
    </contour>
    <contour>
      <point x="400" y="455" type="line"/>
      <point x="400" y="1265" type="line"/>
      <point x="413" y="1265" type="line"/>
      <point x="609" y="1265"/>
      <point x="661" y="1173"/>
      <point x="661" y="970" type="curve" smooth="yes"/>
      <point x="661" y="817" type="line" smooth="yes"/>
      <point x="661" y="559"/>
      <point x="601" y="455"/>
      <point x="413" y="455" type="curve"/>
    </contour>
  </outline>
</glyph>
<glyph name="germandbls" format="1">
  <advance width="1026"/>
  <unicode hex="00DF"/>
  <outline>
    <contour>
      <point x="129" y="-443" type="line"/>
      <point x="382" y="-443" type="line"/>
      <point x="382" y="1485" type="line" smooth="yes"/>
      <point x="382" y="1591"/>
      <point x="445" y="1629"/>
      <point x="524" y="1629" type="curve" smooth="yes"/>
      <point x="627" y="1629"/>
      <point x="681" y="1546"/>
      <point x="681" y="1436" type="curve" smooth="yes"/>
      <point x="681" y="1348"/>
      <point x="662" y="1281"/>
      <point x="593" y="1140" type="curve" smooth="yes"/>
      <point x="528" y="1033"/>
      <point x="505" y="980"/>
      <point x="505" y="907" type="curve" smooth="yes"/>
      <point x="505" y="824"/>
      <point x="535" y="750"/>
      <point x="575" y="670" type="curve" smooth="yes"/>
      <point x="633" y="509" type="line" smooth="yes"/>
      <point x="670" y="435"/>
      <point x="705" y="363"/>
      <point x="705" y="296" type="curve" smooth="yes"/>
      <point x="705" y="208"/>
      <point x="650" y="170"/>
      <point x="602" y="170" type="curve" smooth="yes"/>
      <point x="573" y="170"/>
      <point x="567" y="170"/>
      <point x="537" y="177" type="curve"/>
      <point x="537" y="11" type="line"/>
      <point x="582" y="-7"/>
      <point x="632" y="-19"/>
      <point x="693" y="-19" type="curve" smooth="yes"/>
      <point x="886" y="-19"/>
      <point x="962" y="136"/>
      <point x="962" y="297" type="curve" smooth="yes"/>
      <point x="962" y="392"/>
      <point x="934" y="468"/>
      <point x="888" y="593" type="curve" smooth="yes"/>
      <point x="796" y="790" type="line" smooth="yes"/>
      <point x="764" y="859"/>
      <point x="747" y="902"/>
      <point x="747" y="948" type="curve" smooth="yes"/>
      <point x="747" y="988"/>
      <point x="756" y="1029"/>
      <point x="820" y="1134" type="curve" smooth="yes"/>
      <point x="887" y="1269"/>
      <point x="919" y="1362"/>
      <point x="919" y="1474" type="curve" smooth="yes"/>
      <point x="919" y="1680"/>
      <point x="798" y="1828"/>
      <point x="529" y="1828" type="curve" smooth="yes"/>
      <point x="285" y="1828"/>
      <point x="129" y="1691"/>
      <point x="129" y="1408" type="curve" smooth="yes"/>
    </contour>
  </outline>
</glyph>
<glyph name="ae" format="1">
  <advance width="1352"/>
  <unicode hex="00E6"/>
  <outline>
    <contour>
      <point x="788" y="807" type="line"/>
      <point x="788" y="888" type="line" smooth="yes"/>
      <point x="788" y="1123"/>
      <point x="829" y="1199"/>
      <point x="918" y="1199" type="curve"/>
      <point x="1002" y="1198"/>
      <point x="1039" y="1125"/>
      <point x="1039" y="944" type="curve" smooth="yes"/>
      <point x="1039" y="908"/>
      <point x="1038" y="836"/>
      <point x="1035" y="807" type="curve"/>
    </contour>
    <contour>
      <point x="53" y="314" type="curve" smooth="yes"/>
      <point x="53" y="137"/>
      <point x="136" y="-16"/>
      <point x="350" y="-16" type="curve" smooth="yes"/>
      <point x="463" y="-16"/>
      <point x="571" y="46"/>
      <point x="639" y="151" type="curve"/>
      <point x="647" y="151" type="line"/>
      <point x="704" y="43"/>
      <point x="800" y="-16"/>
      <point x="926" y="-16" type="curve" smooth="yes"/>
      <point x="1145" y="-16"/>
      <point x="1262" y="99"/>
      <point x="1262" y="358" type="curve" smooth="yes"/>
      <point x="1262" y="421" type="line"/>
      <point x="1057" y="421" type="line"/>
      <point x="1057" y="361" type="line" smooth="yes"/>
      <point x="1057" y="217"/>
      <point x="996" y="172"/>
      <point x="934" y="172" type="curve" smooth="yes"/>
      <point x="819" y="172"/>
      <point x="788" y="260"/>
      <point x="788" y="499" type="curve" smooth="yes"/>
      <point x="788" y="638" type="line"/>
      <point x="1236" y="638" type="line"/>
      <point x="1256" y="725"/>
      <point x="1270" y="848"/>
      <point x="1270" y="958" type="curve" smooth="yes"/>
      <point x="1270" y="1289"/>
      <point x="1110" y="1386"/>
      <point x="944" y="1386" type="curve" smooth="yes"/>
      <point x="868" y="1386"/>
      <point x="770" y="1358"/>
      <point x="699" y="1273" type="curve"/>
      <point x="691" y="1273" type="line"/>
      <point x="641" y="1334"/>
      <point x="562" y="1385"/>
      <point x="435" y="1385" type="curve" smooth="yes"/>
      <point x="225" y="1385"/>
      <point x="76" y="1276"/>
      <point x="76" y="1072" type="curve" smooth="yes"/>
      <point x="76" y="1029"/>
      <point x="82" y="988"/>
      <point x="94" y="936" type="curve"/>
      <point x="287" y="936" type="line"/>
      <point x="287" y="991" type="line" smooth="yes"/>
      <point x="287" y="1148"/>
      <point x="355" y="1197"/>
      <point x="427" y="1197" type="curve" smooth="yes"/>
      <point x="534" y="1197"/>
      <point x="535" y="1101"/>
      <point x="535" y="999" type="curve" smooth="yes"/>
      <point x="535" y="833" type="line"/>
      <point x="486" y="815"/>
      <point x="422" y="786"/>
      <point x="372" y="761" type="curve" smooth="yes"/>
      <point x="162" y="658"/>
      <point x="53" y="539"/>
    </contour>
    <contour>
      <point x="298" y="353" type="curve" smooth="yes"/>
      <point x="298" y="488"/>
      <point x="372" y="573"/>
      <point x="443" y="617" type="curve" smooth="yes"/>
      <point x="481" y="641"/>
      <point x="509" y="654"/>
      <point x="535" y="665" type="curve"/>
      <point x="535" y="233" type="line"/>
      <point x="507" y="201"/>
      <point x="470" y="176"/>
      <point x="428" y="176" type="curve" smooth="yes"/>
      <point x="337" y="176"/>
      <point x="298" y="249"/>
    </contour>
    <contour>
      <point x="661" y="500" type="move" name="top"/>
    </contour>
    <contour>
      <point x="661" y="-100" type="move" name="btm"/>
    </contour>
  </outline>
</glyph>
<glyph name="eth" format="1">
  <advance width="963"/>
  <unicode hex="00F0"/>
  <outline>
    <contour>
      <point x="321" y="1509" type="line"/>
      <point x="652" y="1904" type="line"/>
      <point x="520" y="2020" type="line"/>
      <point x="194" y="1615" type="line"/>
    </contour>
    <contour>
      <point x="487" y="-15" type="curve" smooth="yes"/>
      <point x="646" y="-15"/>
      <point x="871" y="47"/>
      <point x="871" y="597" type="curve" smooth="yes"/>
      <point x="871" y="789" type="line" smooth="yes"/>
      <point x="871" y="1399"/>
      <point x="609" y="1959"/>
      <point x="118" y="1959" type="curve"/>
      <point x="118" y="1793" type="line"/>
      <point x="329" y="1789"/>
      <point x="487" y="1617"/>
      <point x="551" y="1367" type="curve"/>
      <point x="527" y="1378"/>
      <point x="514" y="1386"/>
      <point x="445" y="1386" type="curve" smooth="yes"/>
      <point x="339" y="1386"/>
      <point x="92" y="1343"/>
      <point x="92" y="795" type="curve" smooth="yes"/>
      <point x="92" y="597" type="line" smooth="yes"/>
      <point x="92" y="39"/>
      <point x="311" y="-15"/>
    </contour>
    <contour>
      <point x="489" y="149" type="curve" smooth="yes"/>
      <point x="386" y="149"/>
      <point x="366" y="237"/>
      <point x="366" y="489" type="curve" smooth="yes"/>
      <point x="366" y="881" type="line" smooth="yes"/>
      <point x="366" y="1133"/>
      <point x="386" y="1224"/>
      <point x="489" y="1224" type="curve" smooth="yes"/>
      <point x="588" y="1224"/>
      <point x="605" y="1133"/>
      <point x="605" y="881" type="curve" smooth="yes"/>
      <point x="605" y="489" type="line" smooth="yes"/>
      <point x="605" y="237"/>
      <point x="588" y="149"/>
    </contour>
  </outline>
</glyph>
<glyph name="divide" format="1">
  <advance width="825"/>
  <unicode hex="00F7"/>
  <outline>
    <contour>
      <point x="277" y="377" type="curve" smooth="yes"/>
      <point x="277" y="274"/>
      <point x="332" y="215"/>
      <point x="412" y="215" type="curve" smooth="yes"/>
      <point x="496" y="215"/>
      <point x="541" y="277"/>
      <point x="541" y="377" type="curve" smooth="yes"/>
      <point x="541" y="484"/>
      <point x="496" y="535"/>
      <point x="413" y="535" type="curve" smooth="yes"/>
      <point x="331" y="535"/>
      <point x="277" y="493"/>
    </contour>
    <contour>
      <point x="40" y="691" type="line"/>
      <point x="785" y="691" type="line"/>
      <point x="785" y="887" type="line"/>
      <point x="413" y="887" type="line"/>
      <point x="40" y="887" type="line"/>
    </contour>
    <contour>
      <point x="413" y="1043" type="curve" smooth="yes"/>
      <point x="497" y="1043"/>
      <point x="542" y="1105"/>
      <point x="542" y="1205" type="curve" smooth="yes"/>
      <point x="542" y="1312"/>
      <point x="497" y="1363"/>
      <point x="414" y="1363" type="curve" smooth="yes"/>
      <point x="332" y="1363"/>
      <point x="278" y="1321"/>
      <point x="278" y="1205" type="curve" smooth="yes"/>
      <point x="278" y="1102"/>
      <point x="333" y="1043"/>
    </contour>
  </outline>
</glyph>
<glyph name="oslash" format="1">
  <advance width="948"/>
  <unicode hex="00F8"/>
  <outline>
    <contour>
      <point x="95" y="-171" type="line"/>
      <point x="212" y="-171" type="line"/>
      <point x="852" y="1541" type="line"/>
      <point x="735" y="1541" type="line"/>
    </contour>
    <contour>
      <point x="476" y="-15" type="curve" smooth="yes"/>
      <point x="635" y="-15"/>
      <point x="853" y="56"/>
      <point x="853" y="588" type="curve" smooth="yes"/>
      <point x="853" y="803" type="line" smooth="yes"/>
      <point x="853" y="1342"/>
      <point x="642" y="1386"/>
      <point x="477" y="1386" type="curve" smooth="yes"/>
      <point x="306" y="1386"/>
      <point x="95" y="1335"/>
      <point x="95" y="803" type="curve" smooth="yes"/>
      <point x="95" y="588" type="line" smooth="yes"/>
      <point x="95" y="47"/>
      <point x="300" y="-15"/>
    </contour>
    <contour>
      <point x="478" y="161" type="curve" smooth="yes"/>
      <point x="369" y="161"/>
      <point x="329" y="249"/>
      <point x="329" y="513" type="curve" smooth="yes"/>
      <point x="329" y="855" type="line" smooth="yes"/>
      <point x="329" y="1118"/>
      <point x="369" y="1210"/>
      <point x="478" y="1210" type="curve" smooth="yes"/>
      <point x="583" y="1210"/>
      <point x="619" y="1118"/>
      <point x="619" y="855" type="curve" smooth="yes"/>
      <point x="619" y="513" type="line" smooth="yes"/>
      <point x="619" y="249"/>
      <point x="583" y="161"/>
    </contour>
    <contour>
      <point x="474" y="500" type="move" name="top"/>
    </contour>
    <contour>
      <point x="474" y="-100" type="move" name="btm"/>
    </contour>
  </outline>
</glyph>
<glyph name="thorn" format="1">
  <advance width="985"/>
  <unicode hex="00FE"/>
  <outline>
    <contour>
      <point x="368" y="95" type="line"/>
      <point x="408" y="44"/>
      <point x="491" y="-16"/>
      <point x="594" y="-16" type="curve" smooth="yes"/>
      <point x="687" y="-16"/>
      <point x="890" y="14"/>
      <point x="890" y="479" type="curve" smooth="yes"/>
      <point x="890" y="894" type="line"/>
      <point x="890" y="1359"/>
      <point x="688" y="1385"/>
      <point x="604" y="1385" type="curve" smooth="yes"/>
      <point x="494" y="1385"/>
      <point x="421" y="1326"/>
      <point x="375" y="1263" type="curve"/>
      <point x="374" y="1264" type="line"/>
      <point x="382" y="1445" type="line"/>
      <point x="382" y="1810" type="line"/>
      <point x="129" y="1810" type="line"/>
      <point x="129" y="-443" type="line"/>
      <point x="382" y="-443" type="line"/>
      <point x="382" y="-59" type="line"/>
    </contour>
    <contour>
      <point x="382" y="296" type="curve"/>
      <point x="382" y="1089" type="line"/>
      <point x="407" y="1133"/>
      <point x="447" y="1171"/>
      <point x="509" y="1171" type="curve" smooth="yes"/>
      <point x="583" y="1171"/>
      <point x="635" y="1126"/>
      <point x="635" y="922" type="curve" smooth="yes"/>
      <point x="635" y="447" type="line" smooth="yes"/>
      <point x="635" y="243"/>
      <point x="582" y="197"/>
      <point x="508" y="197" type="curve" smooth="yes"/>
      <point x="441" y="197"/>
      <point x="404" y="245"/>
    </contour>
  </outline>
</glyph>
<glyph name="Amacron" format="1">
  <advance width="957"/>
  <unicode hex="0100"/>
  <outline>
    <contour>
      <point x="167" y="1817" type="line"/>
      <point x="790" y="1817" type="line"/>
      <point x="790" y="2009" type="line"/>
      <point x="167" y="2009" type="line"/>
    </contour>
    <component base="A"/>
  </outline>
</glyph>
<glyph name="Aogonek" format="1">
  <advance width="957"/>
  <unicode hex="0104"/>
  <outline>
    <contour>
      <point x="718" y="0" type="line"/>
      <point x="696" y="-20"/>
      <point x="613" y="-90"/>
      <point x="613" y="-194" type="curve" smooth="yes"/>
      <point x="613" y="-382"/>
      <point x="743" y="-419"/>
      <point x="806" y="-419" type="curve" smooth="yes"/>
      <point x="861" y="-419"/>
      <point x="902" y="-410"/>
      <point x="957" y="-389" type="curve"/>
      <point x="950" y="-238" type="line"/>
      <point x="939" y="-239"/>
      <point x="928" y="-239"/>
      <point x="917" y="-239" type="curve" smooth="yes"/>
      <point x="827" y="-239"/>
      <point x="791" y="-134"/>
      <point x="912" y="0" type="curve"/>
      <point x="807" y="13" type="line"/>
    </contour>
    <contour>
      <point x="14" y="0" type="line"/>
      <point x="275" y="0" type="line"/>
      <point x="320" y="306" type="line"/>
      <point x="636" y="306" type="line"/>
      <point x="683" y="0" type="line"/>
      <point x="943" y="0" type="line"/>
      <point x="624" y="1708" type="line"/>
      <point x="332" y="1708" type="line"/>
    </contour>
    <contour>
      <point x="350" y="501" type="line"/>
      <point x="473" y="1356" type="line"/>
      <point x="484" y="1356" type="line"/>
      <point x="606" y="501" type="line"/>
    </contour>
  </outline>
</glyph>
<glyph name="dcroat" format="1">
  <advance width="985"/>
  <unicode hex="0111"/>
  <outline>
    <contour>
      <point x="411" y="1499" type="line"/>
      <point x="603" y="1499" type="line"/>
      <point x="603" y="1452" type="line"/>
      <point x="611" y="1278" type="line"/>
      <point x="610" y="1277" type="line"/>
      <point x="572" y="1333"/>
      <point x="497" y="1392"/>
      <point x="397" y="1392" type="curve" smooth="yes"/>
      <point x="316" y="1392"/>
      <point x="95" y="1381"/>
      <point x="95" y="918" type="curve" smooth="yes"/>
      <point x="95" y="481" type="line" smooth="yes"/>
      <point x="95" y="14"/>
      <point x="298" y="-16"/>
      <point x="391" y="-16" type="curve" smooth="yes"/>
      <point x="519" y="-16"/>
      <point x="592" y="55"/>
      <point x="636" y="128" type="curve"/>
      <point x="658" y="0" type="line"/>
      <point x="855" y="0" type="line"/>
      <point x="855" y="1499" type="line"/>
      <point x="986" y="1499" type="line"/>
      <point x="986" y="1682" type="line"/>
      <point x="855" y="1682" type="line"/>
      <point x="855" y="1819" type="line"/>
      <point x="603" y="1819" type="line"/>
      <point x="603" y="1682" type="line"/>
      <point x="411" y="1682" type="line"/>
    </contour>
    <contour>
      <point x="477" y="190" type="curve" smooth="yes"/>
      <point x="403" y="190"/>
      <point x="349" y="236"/>
      <point x="349" y="441" type="curve" smooth="yes"/>
      <point x="349" y="938" type="line" smooth="yes"/>
      <point x="349" y="1144"/>
      <point x="402" y="1187"/>
      <point x="476" y="1187" type="curve" smooth="yes"/>
      <point x="536" y="1187"/>
      <point x="578" y="1141"/>
      <point x="603" y="1086" type="curve"/>
      <point x="603" y="289" type="line"/>
      <point x="581" y="238"/>
      <point x="543" y="190"/>
    </contour>
  </outline>
</glyph>
<glyph name="Eogonek" format="1">
  <advance width="820"/>
  <unicode hex="0118"/>
  <outline>
    <contour>
      <point x="576" y="0" type="line"/>
      <point x="523" y="-21"/>
      <point x="441" y="-90"/>
      <point x="441" y="-194" type="curve" smooth="yes"/>
      <point x="441" y="-382"/>
      <point x="581" y="-419"/>
      <point x="644" y="-419" type="curve" smooth="yes"/>
      <point x="699" y="-419"/>
      <point x="740" y="-410"/>
      <point x="795" y="-389" type="curve"/>
      <point x="788" y="-238" type="line"/>
      <point x="777" y="-239"/>
      <point x="766" y="-239"/>
      <point x="755" y="-239" type="curve" smooth="yes"/>
      <point x="665" y="-239"/>
      <point x="649" y="-134"/>
      <point x="770" y="0" type="curve"/>
      <point x="665" y="13" type="line"/>
    </contour>
    <contour>
      <point x="141" y="0" type="line"/>
      <point x="794" y="0" type="line"/>
      <point x="794" y="204" type="line"/>
      <point x="400" y="204" type="line"/>
      <point x="400" y="789" type="line"/>
      <point x="709" y="789" type="line"/>
      <point x="709" y="993" type="line"/>
      <point x="400" y="993" type="line"/>
      <point x="400" y="1504" type="line"/>
      <point x="794" y="1504" type="line"/>
      <point x="794" y="1708" type="line"/>
      <point x="141" y="1708" type="line"/>
    </contour>
  </outline>
</glyph>
<glyph name="eogonek" format="1">
  <advance width="914"/>
  <unicode hex="0119"/>
  <outline>
    <contour>
      <point x="585" y="97" type="line"/>
      <point x="563" y="77"/>
      <point x="440" y="0"/>
      <point x="439" y="-194" type="curve" smooth="yes"/>
      <point x="438" y="-382"/>
      <point x="569" y="-419"/>
      <point x="632" y="-419" type="curve" smooth="yes"/>
      <point x="687" y="-419"/>
      <point x="728" y="-410"/>
      <point x="783" y="-389" type="curve"/>
      <point x="776" y="-238" type="line"/>
      <point x="765" y="-239"/>
      <point x="754" y="-239"/>
      <point x="743" y="-239" type="curve" smooth="yes"/>
      <point x="653" y="-239"/>
      <point x="617" y="-114"/>
      <point x="759" y="97" type="curve"/>
      <point x="654" y="110" type="line"/>
    </contour>
    <contour>
      <point x="463" y="-15" type="curve" smooth="yes"/>
      <point x="699" y="-15"/>
      <point x="827" y="99"/>
      <point x="827" y="360" type="curve" smooth="yes"/>
      <point x="827" y="423" type="line"/>
      <point x="619" y="423" type="line"/>
      <point x="619" y="363" type="line" smooth="yes"/>
      <point x="619" y="218"/>
      <point x="558" y="173"/>
      <point x="496" y="173" type="curve" smooth="yes"/>
      <point x="381" y="173"/>
      <point x="349" y="261"/>
      <point x="349" y="501" type="curve" smooth="yes"/>
      <point x="349" y="641" type="line"/>
      <point x="800" y="641" type="line"/>
      <point x="820" y="729"/>
      <point x="833" y="852"/>
      <point x="833" y="963" type="curve" smooth="yes"/>
      <point x="833" y="1295"/>
      <point x="677" y="1393"/>
      <point x="495" y="1393" type="curve" smooth="yes"/>
      <point x="349" y="1393"/>
      <point x="95" y="1350"/>
      <point x="95" y="824" type="curve" smooth="yes"/>
      <point x="95" y="564" type="line" smooth="yes"/>
      <point x="95" y="154"/>
      <point x="226" y="-15"/>
    </contour>
    <contour>
      <point x="349" y="811" type="line"/>
      <point x="349" y="892" type="line" smooth="yes"/>
      <point x="349" y="1129"/>
      <point x="391" y="1205"/>
      <point x="480" y="1205" type="curve"/>
      <point x="564" y="1204"/>
      <point x="601" y="1131"/>
      <point x="601" y="949" type="curve" smooth="yes"/>
      <point x="601" y="913"/>
      <point x="600" y="840"/>
      <point x="597" y="811" type="curve"/>
    </contour>
  </outline>
</glyph>
<glyph name="Hbar" format="1">
  <advance width="1107"/>
  <unicode hex="0126"/>
  <outline>
    <contour>
      <point x="20" y="1183" type="line"/>
      <point x="1087" y="1183" type="line"/>
      <point x="1087" y="1376" type="line"/>
      <point x="20" y="1376" type="line"/>
    </contour>
    <contour>
      <point x="141" y="0" type="line"/>
      <point x="400" y="0" type="line"/>
      <point x="400" y="789" type="line"/>
      <point x="707" y="789" type="line"/>
      <point x="707" y="0" type="line"/>
      <point x="966" y="0" type="line"/>
      <point x="966" y="1708" type="line"/>
      <point x="707" y="1708" type="line"/>
      <point x="707" y="993" type="line"/>
      <point x="400" y="993" type="line"/>
      <point x="400" y="1708" type="line"/>
      <point x="141" y="1708" type="line"/>
    </contour>
  </outline>
</glyph>
<glyph name="hbar" format="1">
  <advance width="1011"/>
  <unicode hex="0127"/>
  <outline>
    <contour>
      <point x="128" y="0" type="line"/>
      <point x="381" y="0" type="line"/>
      <point x="381" y="1086" type="line"/>
      <point x="419" y="1138"/>
      <point x="470" y="1169"/>
      <point x="521" y="1169" type="curve" smooth="yes"/>
      <point x="593" y="1169"/>
      <point x="631" y="1128"/>
      <point x="631" y="1008" type="curve" smooth="yes"/>
      <point x="631" y="0" type="line"/>
      <point x="884" y="0" type="line"/>
      <point x="884" y="1050" type="line" smooth="yes"/>
      <point x="884" y="1273"/>
      <point x="792" y="1386"/>
      <point x="632" y="1386" type="curve" smooth="yes"/>
      <point x="539" y="1386"/>
      <point x="443" y="1355"/>
      <point x="368" y="1253" type="curve"/>
      <point x="381" y="1488" type="line"/>
      <point x="381" y="1505" type="line"/>
      <point x="602" y="1505" type="line"/>
      <point x="602" y="1676" type="line"/>
      <point x="381" y="1676" type="line"/>
      <point x="381" y="1810" type="line"/>
      <point x="128" y="1810" type="line"/>
      <point x="128" y="1676" type="line"/>
      <point x="4" y="1676" type="line"/>
      <point x="4" y="1505" type="line"/>
      <point x="128" y="1505" type="line"/>
    </contour>
  </outline>
</glyph>
<glyph name="Iogonek" format="1">
  <advance width="541"/>
  <unicode hex="012E"/>
  <outline>
    <contour>
      <point x="187" y="0" type="line"/>
      <point x="165" y="-20"/>
      <point x="102" y="-90"/>
      <point x="102" y="-194" type="curve" smooth="yes"/>
      <point x="102" y="-382"/>
      <point x="242" y="-419"/>
      <point x="305" y="-419" type="curve" smooth="yes"/>
      <point x="360" y="-419"/>
      <point x="401" y="-410"/>
      <point x="456" y="-389" type="curve"/>
      <point x="449" y="-238" type="line"/>
      <point x="438" y="-239"/>
      <point x="427" y="-239"/>
      <point x="416" y="-239" type="curve" smooth="yes"/>
      <point x="326" y="-239"/>
      <point x="260" y="-134"/>
      <point x="381" y="0" type="curve"/>
      <point x="276" y="13" type="line"/>
    </contour>
    <contour>
      <point x="141" y="0" type="line"/>
      <point x="400" y="0" type="line"/>
      <point x="400" y="1708" type="line"/>
      <point x="141" y="1708" type="line"/>
    </contour>
  </outline>
</glyph>
<glyph name="dotlessi" format="1">
  <advance width="511"/>
  <unicode hex="0131"/>
  <outline>
    <contour>
      <point x="129" y="0" type="line"/>
      <point x="382" y="0" type="line"/>
      <point x="382" y="1377" type="line"/>
      <point x="129" y="1377" type="line"/>
    </contour>
  </outline>
</glyph>
<glyph name="kgreenlandic" format="1">
  <advance width="949"/>
  <unicode hex="0138"/>
  <outline>
    <contour>
      <point x="129" y="0" type="line"/>
      <point x="382" y="0" type="line"/>
      <point x="382" y="639" type="line"/>
      <point x="390" y="639" type="line"/>
      <point x="682" y="0" type="line"/>
      <point x="938" y="0" type="line"/>
      <point x="614" y="714" type="line"/>
      <point x="909" y="1370" type="line"/>
      <point x="666" y="1370" type="line"/>
      <point x="390" y="727" type="line"/>
      <point x="382" y="727" type="line"/>
      <point x="382" y="1370" type="line"/>
      <point x="129" y="1370" type="line"/>
    </contour>
  </outline>
</glyph>
<glyph name="lacute" format="1">
  <advance width="511"/>
  <unicode hex="013A"/>
  <outline>
    <contour>
      <point x="129" y="0" type="line"/>
      <point x="382" y="0" type="line"/>
      <point x="382" y="1709" type="line"/>
      <point x="129" y="1709" type="line"/>
    </contour>
    <contour>
      <point x="255" y="1733" type="line"/>
      <point x="600" y="1899" type="line"/>
      <point x="471" y="2066" type="line"/>
      <point x="150" y="1850" type="line"/>
    </contour>
  </outline>
</glyph>
<glyph name="Ldot" format="1">
  <advance width="784"/>
  <unicode hex="013F"/>
  <outline>
    <contour>
      <point x="669" y="601" type="curve" smooth="yes"/>
      <point x="770" y="601"/>
      <point x="819" y="685"/>
      <point x="819" y="765" type="curve" smooth="yes"/>
      <point x="819" y="857"/>
      <point x="770" y="939"/>
      <point x="669" y="939" type="curve" smooth="yes"/>
      <point x="571" y="939"/>
      <point x="526" y="855"/>
      <point x="526" y="765" type="curve" smooth="yes"/>
      <point x="526" y="682"/>
      <point x="573" y="601"/>
    </contour>
    <component base="L"/>
  </outline>
</glyph>
<glyph name="ldot" format="1">
  <advance width="757"/>
  <unicode hex="0140"/>
  <outline>
    <contour>
      <point x="129" y="0" type="line"/>
      <point x="382" y="0" type="line"/>
      <point x="382" y="1810" type="line"/>
      <point x="129" y="1810" type="line"/>
    </contour>
    <contour>
      <point x="614" y="712" type="curve" smooth="yes"/>
      <point x="701" y="712"/>
      <point x="747" y="780"/>
      <point x="747" y="890" type="curve" smooth="yes"/>
      <point x="747" y="1008"/>
      <point x="701" y="1062"/>
      <point x="615" y="1062" type="curve" smooth="yes"/>
      <point x="531" y="1062"/>
      <point x="475" y="1016"/>
      <point x="475" y="890" type="curve" smooth="yes"/>
      <point x="475" y="777"/>
      <point x="532" y="712"/>
    </contour>
  </outline>
</glyph>
<glyph name="Lslash" format="1">
  <advance width="791"/>
  <unicode hex="0141"/>
  <outline>
    <contour>
      <point x="161" y="0" type="line"/>
      <point x="771" y="0" type="line"/>
      <point x="771" y="207" type="line"/>
      <point x="417" y="207" type="line"/>
      <point x="417" y="970" type="line"/>
      <point x="744" y="1223" type="line"/>
      <point x="614" y="1391" type="line"/>
      <point x="417" y="1231" type="line"/>
      <point x="417" y="1725" type="line"/>
      <point x="161" y="1725" type="line"/>
      <point x="161" y="1015" type="line"/>
      <point x="-61" y="837" type="line"/>
      <point x="57" y="682" type="line"/>
      <point x="161" y="763" type="line"/>
    </contour>
  </outline>
</glyph>
<glyph name="lslash" format="1">
  <advance width="608"/>
  <unicode hex="0142"/>
  <outline>
    <contour>
      <point x="168" y="0" type="line"/>
      <point x="420" y="0" type="line"/>
      <point x="420" y="1810" type="line"/>
      <point x="168" y="1810" type="line"/>
    </contour>
    <contour>
      <point x="58" y="709" type="line"/>
      <point x="241" y="882" type="line"/>
      <point x="380" y="996" type="line"/>
      <point x="668" y="1269" type="line"/>
      <point x="550" y="1391" type="line"/>
      <point x="379" y="1229" type="line"/>
      <point x="227" y="1102" type="line"/>
      <point x="-60" y="830" type="line"/>
    </contour>
  </outline>
</glyph>
<glyph name="OE" format="1">
  <advance width="1360"/>
  <unicode hex="0152"/>
  <outline>
    <contour>
      <point x="98" y="631" type="line"/>
      <point x="98" y="28"/>
      <point x="442" y="0"/>
      <point x="639" y="0" type="curve" smooth="yes"/>
      <point x="1293" y="0" type="line"/>
      <point x="1293" y="205" type="line"/>
      <point x="899" y="205" type="line"/>
      <point x="899" y="771" type="line"/>
      <point x="1206" y="771" type="line"/>
      <point x="1206" y="995" type="line"/>
      <point x="899" y="995" type="line"/>
      <point x="899" y="1503" type="line"/>
      <point x="1293" y="1503" type="line"/>
      <point x="1293" y="1708" type="line"/>
      <point x="639" y="1708" type="line" smooth="yes"/>
      <point x="442" y="1708"/>
      <point x="98" y="1679"/>
      <point x="98" y="1077" type="curve" smooth="yes"/>
    </contour>
    <contour>
      <point x="626" y="187" type="line"/>
      <point x="438" y="187"/>
      <point x="366" y="303"/>
      <point x="366" y="582" type="curve"/>
      <point x="366" y="1123" type="line" smooth="yes"/>
      <point x="366" y="1394"/>
      <point x="429" y="1521"/>
      <point x="626" y="1521" type="curve" smooth="yes"/>
      <point x="642" y="1521" type="line"/>
      <point x="642" y="187" type="line"/>
    </contour>
  </outline>
</glyph>
<glyph name="oe" format="1">
  <advance width="1418"/>
  <unicode hex="0153"/>
  <outline>
    <contour>
      <point x="476" y="-15" type="curve" smooth="yes"/>
      <point x="555" y="-15"/>
      <point x="651" y="10"/>
      <point x="722" y="98" type="curve"/>
      <point x="730" y="98" type="line"/>
      <point x="788" y="31"/>
      <point x="877" y="-15"/>
      <point x="977" y="-15" type="curve" smooth="yes"/>
      <point x="1219" y="-15"/>
      <point x="1328" y="99"/>
      <point x="1328" y="358" type="curve" smooth="yes"/>
      <point x="1328" y="421" type="line"/>
      <point x="1123" y="421" type="line"/>
      <point x="1123" y="361" type="line" smooth="yes"/>
      <point x="1123" y="217"/>
      <point x="1062" y="172"/>
      <point x="1000" y="172" type="curve" smooth="yes"/>
      <point x="885" y="172"/>
      <point x="853" y="260"/>
      <point x="853" y="499" type="curve" smooth="yes"/>
      <point x="853" y="638" type="line"/>
      <point x="1302" y="638" type="line"/>
      <point x="1322" y="725"/>
      <point x="1335" y="848"/>
      <point x="1335" y="958" type="curve" smooth="yes"/>
      <point x="1335" y="1289"/>
      <point x="1181" y="1386"/>
      <point x="999" y="1386" type="curve" smooth="yes"/>
      <point x="923" y="1386"/>
      <point x="822" y="1368"/>
      <point x="738" y="1273" type="curve"/>
      <point x="730" y="1273" type="line"/>
      <point x="658" y="1366"/>
      <point x="558" y="1386"/>
      <point x="477" y="1386" type="curve" smooth="yes"/>
      <point x="306" y="1386"/>
      <point x="95" y="1335"/>
      <point x="95" y="803" type="curve" smooth="yes"/>
      <point x="95" y="588" type="line" smooth="yes"/>
      <point x="95" y="47"/>
      <point x="300" y="-15"/>
    </contour>
    <contour>
      <point x="478" y="172" type="curve" smooth="yes"/>
      <point x="383" y="172"/>
      <point x="349" y="257"/>
      <point x="349" y="513" type="curve" smooth="yes"/>
      <point x="349" y="855" type="line" smooth="yes"/>
      <point x="349" y="1111"/>
      <point x="383" y="1199"/>
      <point x="478" y="1199" type="curve" smooth="yes"/>
      <point x="569" y="1199"/>
      <point x="599" y="1111"/>
      <point x="599" y="855" type="curve" smooth="yes"/>
      <point x="599" y="513" type="line" smooth="yes"/>
      <point x="599" y="257"/>
      <point x="569" y="172"/>
    </contour>
    <contour>
      <point x="853" y="807" type="line"/>
      <point x="853" y="888" type="line" smooth="yes"/>
      <point x="853" y="1123"/>
      <point x="895" y="1199"/>
      <point x="984" y="1199" type="curve"/>
      <point x="1068" y="1198"/>
      <point x="1105" y="1125"/>
      <point x="1105" y="944" type="curve" smooth="yes"/>
      <point x="1105" y="908"/>
      <point x="1104" y="836"/>
      <point x="1101" y="807" type="curve"/>
    </contour>
  </outline>
</glyph>
<glyph name="Scaron" format="1">
  <advance width="936"/>
  <unicode hex="0160"/>
  <outline>
    <contour>
      <point x="514" y="1936" type="line"/>
      <point x="474" y="1880" type="line"/>
      <point x="434" y="1936" type="line"/>
      <point x="350" y="2066" type="line"/>
      <point x="102" y="2066" type="line"/>
      <point x="352" y="1756" type="line"/>
      <point x="586" y="1756" type="line"/>
      <point x="832" y="2066" type="line"/>
      <point x="583" y="2066" type="line"/>
    </contour>
    <component base="S"/>
  </outline>
</glyph>
<glyph name="uni0162" format="1">
  <advance width="856"/>
  <unicode hex="0162"/>
  <outline>
    <contour>
      <point x="343" y="13" type="line"/>
      <point x="340" y="-56" type="line" smooth="yes"/>
      <point x="333" y="-211"/>
      <point x="276" y="-239"/>
      <point x="186" y="-239" type="curve" smooth="yes"/>
      <point x="175" y="-239"/>
      <point x="164" y="-239"/>
      <point x="153" y="-238" type="curve"/>
      <point x="146" y="-389" type="line"/>
      <point x="201" y="-410"/>
      <point x="242" y="-419"/>
      <point x="297" y="-419" type="curve" smooth="yes"/>
      <point x="360" y="-419"/>
      <point x="538" y="-389"/>
      <point x="521" y="-104" type="curve" smooth="yes"/>
      <point x="514" y="13" type="line"/>
    </contour>
    <contour>
      <point x="299" y="0" type="line"/>
      <point x="558" y="0" type="line"/>
      <point x="558" y="1504" type="line"/>
      <point x="832" y="1504" type="line"/>
      <point x="832" y="1708" type="line"/>
      <point x="24" y="1708" type="line"/>
      <point x="24" y="1504" type="line"/>
      <point x="299" y="1504" type="line"/>
    </contour>
  </outline>
</glyph>
<glyph name="Tbar" format="1">
  <advance width="856"/>
  <unicode hex="0166"/>
  <outline>
    <contour>
      <point x="56" y="946" type="line"/>
      <point x="801" y="946" type="line"/>
      <point x="801" y="1149" type="line"/>
      <point x="56" y="1149" type="line"/>
    </contour>
    <contour>
      <point x="299" y="0" type="line"/>
      <point x="558" y="0" type="line"/>
      <point x="558" y="1504" type="line"/>
      <point x="832" y="1504" type="line"/>
      <point x="832" y="1708" type="line"/>
      <point x="24" y="1708" type="line"/>
      <point x="24" y="1504" type="line"/>
      <point x="299" y="1504" type="line"/>
    </contour>
  </outline>
</glyph>
<glyph name="Uring" format="1">
  <advance width="1095"/>
  <unicode hex="016E"/>
  <outline>
    <contour>
      <point x="141" y="525" type="curve" smooth="yes"/>
      <point x="141" y="1498" type="line"/>
      <point x="400" y="1498" type="line"/>
      <point x="400" y="464" type="line" smooth="yes"/>
      <point x="400" y="252"/>
      <point x="445" y="188"/>
      <point x="547" y="188" type="curve" smooth="yes"/>
      <point x="649" y="188"/>
      <point x="695" y="252"/>
      <point x="695" y="464" type="curve" smooth="yes"/>
      <point x="695" y="1498" type="line"/>
      <point x="953" y="1498" type="line"/>
      <point x="953" y="525" type="line" smooth="yes"/>
      <point x="953" y="23"/>
      <point x="696" y="-15"/>
      <point x="547" y="-15" type="curve" smooth="yes"/>
      <point x="399" y="-15"/>
      <point x="141" y="23"/>
    </contour>
    <contour>
      <point x="541" y="1659" type="curve" smooth="yes"/>
      <point x="647" y="1659"/>
      <point x="699" y="1725"/>
      <point x="699" y="1792" type="curve" smooth="yes"/>
      <point x="699" y="1874"/>
      <point x="647" y="1934"/>
      <point x="541" y="1934" type="curve" smooth="yes"/>
      <point x="445" y="1934"/>
      <point x="402" y="1872"/>
      <point x="402" y="1792" type="curve" smooth="yes"/>
      <point x="402" y="1722"/>
      <point x="447" y="1659"/>
    </contour>
    <contour>
      <point x="542" y="1496" type="curve" smooth="yes"/>
      <point x="329" y="1496"/>
      <point x="228" y="1640"/>
      <point x="228" y="1796" type="curve" smooth="yes"/>
      <point x="228" y="1957"/>
      <point x="325" y="2097"/>
      <point x="542" y="2097" type="curve" smooth="yes"/>
      <point x="760" y="2097"/>
      <point x="866" y="1960"/>
      <point x="866" y="1796" type="curve" smooth="yes"/>
      <point x="866" y="1648"/>
      <point x="760" y="1496"/>
    </contour>
  </outline>
</glyph>
<glyph name="Uogonek" format="1">
  <advance width="1095"/>
  <unicode hex="0172"/>
  <outline>
    <contour>
      <point x="535" y="30" type="line"/>
      <point x="513" y="10"/>
      <point x="450" y="-90"/>
      <point x="450" y="-194" type="curve" smooth="yes"/>
      <point x="450" y="-382"/>
      <point x="590" y="-419"/>
      <point x="653" y="-419" type="curve" smooth="yes"/>
      <point x="708" y="-419"/>
      <point x="749" y="-410"/>
      <point x="804" y="-389" type="curve"/>
      <point x="797" y="-238" type="line"/>
      <point x="786" y="-239"/>
      <point x="775" y="-239"/>
      <point x="764" y="-239" type="curve" smooth="yes"/>
      <point x="674" y="-239"/>
      <point x="608" y="-104"/>
      <point x="729" y="30" type="curve"/>
      <point x="624" y="43" type="line"/>
    </contour>
    <contour>
      <point x="141" y="525" type="line"/>
      <point x="141" y="23"/>
      <point x="399" y="-15"/>
      <point x="547" y="-15" type="curve" smooth="yes"/>
      <point x="696" y="-15"/>
      <point x="953" y="23"/>
      <point x="953" y="525" type="curve" smooth="yes"/>
      <point x="953" y="1708" type="line"/>
      <point x="695" y="1708" type="line"/>
      <point x="695" y="464" type="line" smooth="yes"/>
      <point x="695" y="252"/>
      <point x="649" y="188"/>
      <point x="547" y="188" type="curve" smooth="yes"/>
      <point x="445" y="188"/>
      <point x="400" y="252"/>
      <point x="400" y="464" type="curve" smooth="yes"/>
      <point x="400" y="1708" type="line"/>
      <point x="141" y="1708" type="line"/>
    </contour>
  </outline>
</glyph>
<glyph name="florin" format="1">
  <advance width="606"/>
  <unicode hex="0192"/>
  <outline>
    <contour>
      <point x="401" y="961" type="line"/>
      <point x="602" y="961" type="line"/>
      <point x="602" y="1153" type="line"/>
      <point x="401" y="1153" type="line"/>
      <point x="401" y="1476" type="line" smooth="yes"/>
      <point x="401" y="1596"/>
      <point x="459" y="1635"/>
      <point x="525" y="1635" type="curve" smooth="yes"/>
      <point x="559" y="1635"/>
      <point x="592" y="1631"/>
      <point x="619" y="1624" type="curve"/>
      <point x="619" y="1802" type="line"/>
      <point x="573" y="1825"/>
      <point x="500" y="1836"/>
      <point x="451" y="1836" type="curve" smooth="yes"/>
      <point x="283" y="1836"/>
      <point x="148" y="1775"/>
      <point x="148" y="1476" type="curve" smooth="yes"/>
      <point x="148" y="1153" type="line"/>
      <point x="33" y="1153" type="line"/>
      <point x="33" y="961" type="line"/>
      <point x="148" y="961" type="line"/>
      <point x="148" y="-59" type="line" smooth="yes"/>
      <point x="148" y="-179"/>
      <point x="90" y="-218"/>
      <point x="24" y="-218" type="curve" smooth="yes"/>
      <point x="-10" y="-218"/>
      <point x="-43" y="-214"/>
      <point x="-70" y="-207" type="curve"/>
      <point x="-70" y="-385" type="line"/>
      <point x="-24" y="-408"/>
      <point x="49" y="-419"/>
      <point x="98" y="-419" type="curve" smooth="yes"/>
      <point x="266" y="-419"/>
      <point x="401" y="-358"/>
      <point x="401" y="-59" type="curve" smooth="yes"/>
    </contour>
  </outline>
</glyph>
<glyph name="Aringacute" format="1">
  <advance width="957"/>
  <unicode hex="01FA"/>
  <outline>
    <contour>
      <point x="14" y="0" type="line"/>
      <point x="275" y="0" type="line"/>
      <point x="320" y="306" type="line"/>
      <point x="636" y="306" type="line"/>
      <point x="683" y="0" type="line"/>
      <point x="943" y="0" type="line"/>
      <point x="624" y="1628" type="line"/>
      <point x="570" y="1527" type="line"/>
      <point x="370" y="1527" type="line"/>
      <point x="332" y="1628" type="line"/>
    </contour>
    <contour>
      <point x="350" y="501" type="line"/>
      <point x="473" y="1276" type="line"/>
      <point x="484" y="1276" type="line"/>
      <point x="606" y="501" type="line"/>
    </contour>
    <contour>
      <point x="478" y="1563" type="curve" smooth="yes"/>
      <point x="384" y="1563"/>
      <point x="339" y="1627"/>
      <point x="339" y="1692" type="curve" smooth="yes"/>
      <point x="339" y="1766"/>
      <point x="382" y="1823"/>
      <point x="478" y="1823" type="curve" smooth="yes"/>
      <point x="584" y="1823"/>
      <point x="636" y="1767"/>
      <point x="636" y="1692" type="curve" smooth="yes"/>
      <point x="636" y="1630"/>
      <point x="584" y="1563"/>
    </contour>
    <contour>
      <point x="479" y="1400" type="curve" smooth="yes"/>
      <point x="697" y="1400"/>
      <point x="803" y="1553"/>
      <point x="803" y="1696" type="curve" smooth="yes"/>
      <point x="803" y="1855"/>
      <point x="697" y="1985"/>
      <point x="479" y="1985" type="curve" smooth="yes"/>
      <point x="262" y="1985"/>
      <point x="165" y="1851"/>
      <point x="165" y="1696" type="curve" smooth="yes"/>
      <point x="165" y="1545"/>
      <point x="266" y="1400"/>
    </contour>
    <contour>
      <point x="562" y="1812" type="line"/>
      <point x="907" y="1978" type="line"/>
      <point x="778" y="2145" type="line"/>
      <point x="457" y="1929" type="line"/>
    </contour>
  </outline>
</glyph>
<glyph name="caron" format="1">
  <advance width="780"/>
  <unicode hex="02C7"/>
  <outline>
    <contour>
      <point x="474" y="1505" type="line"/>
      <point x="750" y="1996" type="line"/>
      <point x="531" y="1996" type="line"/>
      <point x="443" y="1804" type="line"/>
      <point x="392" y="1672" type="line"/>
      <point x="342" y="1804" type="line"/>
      <point x="248" y="1996" type="line"/>
      <point x="30" y="1996" type="line"/>
      <point x="300" y="1505" type="line"/>
    </contour>
    <contour>
      <point x="390" y="500" type="move" name="_top"/>
    </contour>
  </outline>
</glyph>
<glyph name="breve" format="1">
  <advance width="698"/>
  <unicode hex="02D8"/>
  <outline>
    <contour>
      <point x="344" y="1451" type="curve" smooth="yes"/>
      <point x="131" y="1451"/>
      <point x="30" y="1601"/>
      <point x="30" y="1757" type="curve" smooth="yes"/>
      <point x="30" y="1780"/>
      <point x="32" y="1802"/>
      <point x="36" y="1824" type="curve"/>
      <point x="214" y="1824" type="line"/>
      <point x="205" y="1802"/>
      <point x="204" y="1778"/>
      <point x="204" y="1753" type="curve" smooth="yes"/>
      <point x="204" y="1683"/>
      <point x="249" y="1614"/>
      <point x="343" y="1614" type="curve" smooth="yes"/>
      <point x="449" y="1614"/>
      <point x="501" y="1686"/>
      <point x="501" y="1753" type="curve" smooth="yes"/>
      <point x="501" y="1778"/>
      <point x="504" y="1803"/>
      <point x="493" y="1824" type="curve"/>
      <point x="662" y="1824" type="line"/>
      <point x="666" y="1802"/>
      <point x="668" y="1780"/>
      <point x="668" y="1757" type="curve" smooth="yes"/>
      <point x="668" y="1609"/>
      <point x="562" y="1451"/>
    </contour>
  </outline>
</glyph>
<glyph name="dotaccent" format="1">
  <advance width="373"/>
  <unicode hex="02D9"/>
  <outline>
    <contour>
      <point x="185" y="1568" type="curve" smooth="yes"/>
      <point x="284" y="1568"/>
      <point x="343" y="1632"/>
      <point x="343" y="1736" type="curve" smooth="yes"/>
      <point x="343" y="1847"/>
      <point x="285" y="1899"/>
      <point x="186" y="1899" type="curve" smooth="yes"/>
      <point x="91" y="1899"/>
      <point x="30" y="1855"/>
      <point x="30" y="1736" type="curve" smooth="yes"/>
      <point x="30" y="1629"/>
      <point x="92" y="1568"/>
    </contour>
  </outline>
</glyph>
<glyph name="ring" format="1">
  <advance width="698"/>
  <unicode hex="02DA"/>
  <outline>
    <contour>
      <point x="343" y="1664" type="curve" smooth="yes"/>
      <point x="449" y="1664"/>
      <point x="501" y="1730"/>
      <point x="501" y="1797" type="curve" smooth="yes"/>
      <point x="501" y="1879"/>
      <point x="449" y="1939"/>
      <point x="343" y="1939" type="curve" smooth="yes"/>
      <point x="247" y="1939"/>
      <point x="204" y="1877"/>
      <point x="204" y="1797" type="curve" smooth="yes"/>
      <point x="204" y="1727"/>
      <point x="249" y="1664"/>
    </contour>
    <contour>
      <point x="344" y="1501" type="curve" smooth="yes"/>
      <point x="131" y="1501"/>
      <point x="30" y="1645"/>
      <point x="30" y="1801" type="curve" smooth="yes"/>
      <point x="30" y="1962"/>
      <point x="127" y="2102"/>
      <point x="344" y="2102" type="curve" smooth="yes"/>
      <point x="562" y="2102"/>
      <point x="668" y="1965"/>
      <point x="668" y="1801" type="curve" smooth="yes"/>
      <point x="668" y="1653"/>
      <point x="562" y="1501"/>
    </contour>
    <contour>
      <point x="349" y="500" type="move" name="_top"/>
    </contour>
  </outline>
</glyph>
<glyph name="ogonek" format="1">
  <advance width="437"/>
  <unicode hex="02DB"/>
  <outline>
    <contour>
      <point x="39" y="13" type="line"/>
      <point x="32" y="-104" type="line" smooth="yes"/>
      <point x="15" y="-389"/>
      <point x="193" y="-419"/>
      <point x="256" y="-419" type="curve" smooth="yes"/>
      <point x="311" y="-419"/>
      <point x="352" y="-410"/>
      <point x="407" y="-389" type="curve"/>
      <point x="400" y="-238" type="line"/>
      <point x="389" y="-239"/>
      <point x="378" y="-239"/>
      <point x="367" y="-239" type="curve" smooth="yes"/>
      <point x="277" y="-239"/>
      <point x="220" y="-211"/>
      <point x="213" y="-56" type="curve" smooth="yes"/>
      <point x="210" y="13" type="line"/>
    </contour>
    <contour>
      <point x="218" y="-100" type="move" name="_btm"/>
    </contour>
  </outline>
</glyph>
<glyph name="tilde" format="1">
  <advance width="807"/>
  <unicode hex="02DC"/>
  <outline>
    <contour>
      <point x="569" y="1536" type="curve" smooth="yes"/>
      <point x="677" y="1536"/>
      <point x="777" y="1614"/>
      <point x="777" y="1767" type="curve" smooth="yes"/>
      <point x="777" y="1792"/>
      <point x="774" y="1826"/>
      <point x="766" y="1873" type="curve"/>
      <point x="607" y="1873" type="line"/>
      <point x="607" y="1786" type="line" smooth="yes"/>
      <point x="607" y="1745"/>
      <point x="586" y="1727"/>
      <point x="557" y="1727" type="curve" smooth="yes"/>
      <point x="515" y="1727"/>
      <point x="466" y="1782"/>
      <point x="431" y="1815" type="curve" smooth="yes"/>
      <point x="378" y="1866"/>
      <point x="329" y="1892"/>
      <point x="251" y="1892" type="curve" smooth="yes"/>
      <point x="133" y="1892"/>
      <point x="30" y="1833"/>
      <point x="30" y="1646" type="curve" smooth="yes"/>
      <point x="30" y="1632"/>
      <point x="33" y="1579"/>
      <point x="34" y="1564" type="curve"/>
      <point x="212" y="1564" type="line"/>
      <point x="212" y="1636" type="line" smooth="yes"/>
      <point x="212" y="1676"/>
      <point x="227" y="1700"/>
      <point x="255" y="1700" type="curve" smooth="yes"/>
      <point x="296" y="1700"/>
      <point x="313" y="1670"/>
      <point x="377" y="1614" type="curve" smooth="yes"/>
      <point x="433" y="1563"/>
      <point x="487" y="1536"/>
    </contour>
  </outline>
</glyph>
<glyph name="hungarumlaut" format="1">
  <advance width="904"/>
  <unicode hex="02DD"/>
  <outline>
    <contour>
      <point x="151" y="1462" type="line"/>
      <point x="465" y="1856" type="line"/>
      <point x="300" y="1993" type="line"/>
      <point x="30" y="1567" type="line"/>
    </contour>
    <contour>
      <point x="540" y="1462" type="line"/>
      <point x="874" y="1846" type="line"/>
      <point x="710" y="1983" type="line"/>
      <point x="420" y="1567" type="line"/>
    </contour>
    <contour>
      <point x="285" y="500" type="move" name="_top"/>
    </contour>
  </outline>
</glyph>
<glyph name="uni0302" format="1">
  <advance width="0"/>
  <unicode hex="0302"/>
  <outline>
    <contour>
      <point x="-90" y="1996" type="line"/>
      <point x="-360" y="1505" type="line"/>
      <point x="-142" y="1505" type="line"/>
      <point x="-48" y="1697" type="line"/>
      <point x="2" y="1829" type="line"/>
      <point x="53" y="1697" type="line"/>
      <point x="141" y="1505" type="line"/>
      <point x="360" y="1505" type="line"/>
      <point x="84" y="1996" type="line"/>
    </contour>
    <contour>
      <point x="0" y="500" type="move" name="_top"/>
    </contour>
  </outline>
</glyph>
<glyph name="uni0303" format="1">
  <advance width="0"/>
  <unicode hex="0303"/>
  <outline>
    <contour>
      <point x="166" y="1547" type="curve" smooth="yes"/>
      <point x="274" y="1547"/>
      <point x="374" y="1625"/>
      <point x="374" y="1778" type="curve" smooth="yes"/>
      <point x="374" y="1803"/>
      <point x="371" y="1826"/>
      <point x="363" y="1873" type="curve"/>
      <point x="204" y="1873" type="line"/>
      <point x="204" y="1786" type="line" smooth="yes"/>
      <point x="204" y="1745"/>
      <point x="183" y="1727"/>
      <point x="154" y="1727" type="curve" smooth="yes"/>
      <point x="112" y="1727"/>
      <point x="63" y="1782"/>
      <point x="28" y="1815" type="curve" smooth="yes"/>
      <point x="-25" y="1866"/>
      <point x="-74" y="1892"/>
      <point x="-152" y="1892" type="curve" smooth="yes"/>
      <point x="-270" y="1892"/>
      <point x="-373" y="1844"/>
      <point x="-373" y="1657" type="curve" smooth="yes"/>
      <point x="-373" y="1643"/>
      <point x="-370" y="1590"/>
      <point x="-369" y="1575" type="curve"/>
      <point x="-191" y="1575" type="line"/>
      <point x="-191" y="1647" type="line" smooth="yes"/>
      <point x="-191" y="1687"/>
      <point x="-176" y="1711"/>
      <point x="-148" y="1711" type="curve" smooth="yes"/>
      <point x="-107" y="1711"/>
      <point x="-90" y="1681"/>
      <point x="-26" y="1625" type="curve"/>
      <point x="30" y="1574"/>
      <point x="84" y="1547"/>
    </contour>
    <contour>
      <point x="0" y="500" type="move" name="_top"/>
    </contour>
  </outline>
</glyph>
<glyph name="uni0304" format="1">
  <advance width="0"/>
  <unicode hex="0304"/>
  <outline>
    <contour>
      <point x="-311" y="1633" type="line"/>
      <point x="312" y="1633" type="line"/>
      <point x="312" y="1826" type="line"/>
      <point x="-311" y="1826" type="line"/>
    </contour>
    <contour>
      <point x="0" y="500" type="move" name="_top"/>
    </contour>
  </outline>
</glyph>
<glyph name="uni0306" format="1">
  <advance width="0"/>
  <unicode hex="0306"/>
  <outline>
    <contour>
      <point x="0" y="1504" type="curve" smooth="yes"/>
      <point x="-213" y="1504"/>
      <point x="-314" y="1654"/>
      <point x="-314" y="1810" type="curve" smooth="yes"/>
      <point x="-314" y="1833"/>
      <point x="-312" y="1855"/>
      <point x="-308" y="1877" type="curve"/>
      <point x="-130" y="1877" type="line"/>
      <point x="-139" y="1855"/>
      <point x="-140" y="1831"/>
      <point x="-140" y="1806" type="curve" smooth="yes"/>
      <point x="-140" y="1736"/>
      <point x="-95" y="1667"/>
      <point x="-1" y="1667" type="curve" smooth="yes"/>
      <point x="105" y="1667"/>
      <point x="157" y="1739"/>
      <point x="157" y="1806" type="curve" smooth="yes"/>
      <point x="157" y="1831"/>
      <point x="160" y="1856"/>
      <point x="149" y="1877" type="curve"/>
      <point x="318" y="1877" type="line"/>
      <point x="322" y="1855"/>
      <point x="324" y="1833"/>
      <point x="324" y="1810" type="curve" smooth="yes"/>
      <point x="324" y="1662"/>
      <point x="218" y="1504"/>
    </contour>
    <contour>
      <point x="0" y="500" type="move" name="_top"/>
    </contour>
  </outline>
</glyph>
